<svg xmlns="http://www.w3.org/2000/svg" xmlns:xlink="http://www.w3.org/1999/xlink" viewBox="0 0 500 500"><defs><clipPath id="freepik--clip-path--inject-4"><rect x="108.77" y="145.02" width="292.05" height="210.92" style="fill:#fff;stroke:#263238;stroke-linecap:round;stroke-linejoin:round"></rect></clipPath><clipPath id="freepik--clip-path-2--inject-4"><rect x="332.48" y="276.35" width="60.39" height="79.24" style="fill:none"></rect></clipPath><clipPath id="freepik--clip-path-3--inject-4"><rect x="261.7" y="276.35" width="60.39" height="79.24" style="fill:none"></rect></clipPath><clipPath id="freepik--clip-path-4--inject-4"><rect x="182.46" y="275.97" width="60.39" height="79.63" style="fill:none"></rect></clipPath><clipPath id="freepik--clip-path-5--inject-4"><rect x="121.68" y="276.35" width="53.47" height="79.24" style="fill:none"></rect></clipPath></defs><g id="freepik--character-3--inject-4"><g style="clip-path:url(#freepik--clip-path-3--inject-4)"><path d="M289.43,312.19a110.91,110.91,0,0,0-11.85,2c-4.57,1.18-6.77,1.69-6.77,3.89s-.51,11.68-2,15.92-3.22,10.33-3.22,12.53,3.22,11.51,3.22,11.51h5.92s-2.2-10.84-2.2-11.85,3.05-10,3.05-10l.17,22.18h31l-.33-21.17s2.7,8.64,2.7,10.16-1,11.52-1,11.52H314s2.88-11,2.71-14.9-3-16.26-3.38-20,1.86-5.76-2.2-8.3-13.38-4.06-15.41-4.23A32.58,32.58,0,0,0,289.43,312.19Z" style="fill:#1F385D;stroke:#263238;stroke-miterlimit:10"></path><polyline points="275.55 336.24 276.06 327.77 274.19 321.34" style="fill:none;stroke:#263238;stroke-linecap:round;stroke-linejoin:round"></polyline><line x1="306.37" y1="326.42" x2="306.37" y2="337.25" style="fill:none;stroke:#263238;stroke-linecap:round;stroke-linejoin:round"></line><line x1="306.53" y1="329.47" x2="309.24" y2="325.4" style="fill:none;stroke:#263238;stroke-linecap:round;stroke-linejoin:round"></line><line x1="292.31" y1="323.71" x2="291.3" y2="358.08" style="fill:#fff;stroke:#263238;stroke-linecap:round;stroke-linejoin:round"></line><path d="M291.8,308.13a6.6,6.6,0,0,0-4.06,1.69c-1.86,1.7-2.54,8.3-2.54,8.3s5.93-1.69,6.94-2,10,1.69,10,1.69-.84-5.92-3.21-8.46S291.8,308.13,291.8,308.13Z" style="fill:#263238;stroke:#263238;stroke-linecap:round;stroke-linejoin:round"></path><path d="M289.43,302.71s1.36,2,1.36,8,.67,12.19,1.52,13,4.4-8,4.4-12a18.38,18.38,0,0,1,1.87-7.62s-4.24-2.88-6.44-3.22A2.4,2.4,0,0,0,289.43,302.71Z" style="fill:#fff;stroke:#263238;stroke-linecap:round;stroke-linejoin:round"></path><path d="M291.06,317.31c.27,3.29.73,5.88,1.25,6.4s2.15-2.78,3.27-6.32A14.35,14.35,0,0,1,291.06,317.31Z" style="fill:#263238;stroke:#263238;stroke-linecap:round;stroke-linejoin:round"></path><path d="M299.76,286.46s1,.34,2.88-1.36,1-4.91.17-4.23a6.55,6.55,0,0,0-1.36,1.52,5.48,5.48,0,0,0-4.57-3.72c-3.55-.34-7.79,4.57-7.79,4.57s-7.78,5.76-6.94,10.33,5.25,8.63,7.28,9.14,5.76-3.21,5.08-6.43-1.18-8,0-8.47A48.06,48.06,0,0,1,299.76,286.46Z" style="fill:#263238;stroke:#263238;stroke-linecap:round;stroke-linejoin:round"></path><path d="M289.09,300s-2.87-2-3.55-.5.85,4.23,2.71,5.07,3.55-1.86,3.55-1.86,5.93,4.74,10,4.91,4.24-3.05,3.56-9.14-2.71-10.84-4.23-12.53-7.45-.17-9.32,1.35-3,2.88-1.18,3.22,3.55,1,1.86,2.88-2.54,1.18-2,2.54,2.71,2.71.68,3.39Z" style="fill:#fff;stroke:#263238;stroke-linecap:round;stroke-linejoin:round"></path></g></g><g id="freepik--character-2--inject-4"><g style="clip-path:url(#freepik--clip-path-4--inject-4)"><path d="M214.68,309s-21.34,2.54-22,4.4-8.46,20-7.28,21.67,3.56,2,5.42,2a6.26,6.26,0,0,0,3.56-1.52l-5.42,23h39.28l1.19-16.09s4.57,2,7.62,1.7,2.37-2.71,1.69-7.28-1-16.26-2.2-18.46-15.58-8.3-15.58-8.3Z" style="fill:#263238;stroke:#263238;stroke-linecap:round;stroke-linejoin:round"></path><polyline points="229.75 336.58 229.75 326.08 230.59 324.05" style="fill:none;stroke:#fff;stroke-linecap:round;stroke-linejoin:round"></polyline><polyline points="195.54 327.77 197.24 320.66 196.9 319.14" style="fill:none;stroke:#fff;stroke-linecap:round;stroke-linejoin:round"></polyline><path d="M200,359.27s3.21-13.89,4.74-22.52S212.64,309,212.64,309l9.83,2.71s-6.61,19.3-8.3,27.6-3.11,20.06-3.11,20.06Z" style="fill:#1F385D;stroke:#263238;stroke-miterlimit:10"></path><path d="M214,307s-2.88,0-3.9,2-2.37,9.82-2.37,9.82,6.1-2.71,6.61-2.71,2.88.17,4.06,1.52,3.73,4.57,3.73,4.57,3.89-6.26,2.88-10.32a6.57,6.57,0,0,0-5.93-4.91Z" style="fill:#1F385D;stroke:#263238;stroke-miterlimit:10"></path><path d="M213,302.54s-.34,11.86,0,15.24.85,4.23.85,4.23,2.88-4.74,3.72-6.43,3.39-3.56,4.58-5.08,2-7.28,2-7.28-4.4,3.39-6.77,2.54A12.6,12.6,0,0,1,213,302.54Z" style="fill:#fff;stroke:#263238;stroke-linecap:round;stroke-linejoin:round"></path><path d="M220,281.11c-2.88.42-5.69,1.86-6.5,4.67-.68,2.37-1,10.16-1.18,14.05s1.86,8.81,3.55,9.32a8.46,8.46,0,0,0,4.4.34c.85-.34,4.75-5.59,5.76-6.61s4.06-10.5,4.06-13.88a7.67,7.67,0,0,0-5.24-7.62A11.67,11.67,0,0,0,220,281.11Z" style="fill:#fff;stroke:#263238;stroke-linecap:round;stroke-linejoin:round"></path><path d="M228.39,297s2.71-2.38,2,.67a6.39,6.39,0,0,1-3.38,4.24Z" style="fill:#fff;stroke:#263238;stroke-linecap:round;stroke-linejoin:round"></path><path d="M212.64,293.74s-2-1.86-2,.68a8,8,0,0,0,1.7,4.57Z" style="fill:#fff;stroke:#263238;stroke-linecap:round;stroke-linejoin:round"></path><path d="M228.39,297a34.49,34.49,0,0,0,1.69-8,7.67,7.67,0,0,0-5.24-7.62,11.67,11.67,0,0,0-4.85-.27c-2.88.42-5.69,1.86-6.5,4.67a55.44,55.44,0,0,0-.91,8.49c.86-.67,2.65-2.31,2.27-4.26-.51-2.54-1.53-3.72.33-4.91s4.07.51,7.12,1.53,6.09-.34,6.94.5-2.71,4.41-2.2,5.76,1.69,2.88,1.35,4.07Z" style="fill:#263238;stroke:#263238;stroke-linecap:round;stroke-linejoin:round"></path><path d="M204,329.47s-2.54-3.56-4.23-3.73-5.76,3.73-5.76,3.73Z" style="fill:#fff;stroke:#263238;stroke-linecap:round;stroke-linejoin:round"></path><polygon points="220.09 329.8 222.47 329.8 222.97 334.55 220.43 333.87 220.09 329.8" style="fill:#fff;stroke:#263238;stroke-linecap:round;stroke-linejoin:round"></polygon><polygon points="222.47 329.8 226.7 331.67 227.71 336.92 222.97 334.55 222.47 329.8" style="fill:#fff;stroke:#263238;stroke-linecap:round;stroke-linejoin:round"></polygon><path d="M236,339l-24.21-9.48a19.64,19.64,0,0,0-3.9,2.53,6.14,6.14,0,0,0-1.52,2.54s11.51,8.3,17.1,10.84,13.72,3.39,15.07,2,1-6.6.17-7.45a6.86,6.86,0,0,0-1.52-1.18" style="fill:#263238;stroke:#263238;stroke-linecap:round;stroke-linejoin:round"></path><path d="M220.09,329l.34,4.91s-17.78,4.06-24.38,5.25-10.16.33-11.17-2.71,2.37-6.78,3.89-7.62S220.09,329,220.09,329Z" style="fill:#263238;stroke:#263238;stroke-linecap:round;stroke-linejoin:round"></path></g></g><g id="freepik--character-1--inject-4"><g style="clip-path:url(#freepik--clip-path-5--inject-4)"><path d="M154.69,317.39s6.78,1.69,9.49,2.54,3.55,1.86,3.55,3.89-1.52,11-1.52,12.36v9.15c0,2.54,2.54,11.85,2.54,11.85h-33s-3.72-14.22-6.26-22-2.88-10.5-.34-11.69a167.55,167.55,0,0,1,18.45-5.58A50.79,50.79,0,0,1,154.69,317.39Z" style="fill:#1F385D;stroke:#263238;stroke-miterlimit:10"></path><path d="M164.52,328.56s2,9.32,1.35,12.7-5.25,16.26-5.25,16.26" style="fill:none;stroke:#263238;stroke-linecap:round;stroke-linejoin:round"></path><path d="M129.13,323.48s-3,.51-2.2,4.41S123.88,357,123.88,357h7.45s5.08-13.38,5.92-16.59,1.53-5.76,0-8.47" style="fill:#1F385D;stroke:#263238;stroke-miterlimit:10"></path><polygon points="160.68 300.9 161.79 335.39 151.78 335.39 151.78 303.87 160.68 300.9" style="fill:#263238;stroke:#263238;stroke-linecap:round;stroke-linejoin:round"></polygon><path d="M147.75,325.69s2.88,13,4.07,16.93,1.35,13,1,14.22,4.23,0,4.23,0,1.19-9,1.87-14.22-1.36-15.07-1.36-15.07l-2.2-8.64-8.3,1.53Z" style="fill:#fff;stroke:#263238;stroke-linecap:round;stroke-linejoin:round"></path><path d="M155,311.46a21.06,21.06,0,0,0,.17,8.13c1,3.73,3.73,10.5,1.36,12.36s-5.59.85-7.28-2.54-3.22-11.85-3.22-18.79.68-8.13,3.05-8.13S155,311.46,155,311.46Z" style="fill:#fff;stroke:#263238;stroke-linecap:round;stroke-linejoin:round"></path><path d="M150.12,308.25a14,14,0,0,1-5.25,2.87c-2.54.51-3.89-6.26-4.23-13s1.36-10.5,4.91-12.19,12.19-.85,15.58.5,7.45,3.56,7.45,7.11S164,300,162.65,300.8s-4.57,2-6.6,4.06A18.87,18.87,0,0,1,150.12,308.25Z" style="fill:#263238;stroke:#263238;stroke-linecap:round;stroke-linejoin:round"></path><path d="M150.12,308.25s2,5.08,5.76,5.24,8-8.46,8.13-12.19-3.73-10.16-3.73-10.16S153.68,306.21,150.12,308.25Z" style="fill:#fff;stroke:#263238;stroke-linecap:round;stroke-linejoin:round"></path><polyline points="149.11 300.63 149.44 337.2 138.1 337.2 140.64 294.7" style="fill:#263238;stroke:#263238;stroke-linecap:round;stroke-linejoin:round"></polyline></g></g></svg>