<svg xmlns="http://www.w3.org/2000/svg" viewBox="0 0 750 500"><g id="freepik--Floor--inject-20"><path d="M714,377.53c0,.14-151.79.26-339,.26s-339-.12-339-.26,151.75-.26,339-.26S714,377.38,714,377.53Z" style="fill:#263238"></path></g><g id="freepik--screen-2--inject-20"><rect x="306.36" y="49.18" width="187.07" height="112.02" style="fill:#455a64"></rect><rect x="312.33" y="54.11" width="176.12" height="102.05" style="fill:#263238"></rect><path d="M488.45,73.37c0,.11-39.43.19-88.06.19s-88.06-.08-88.06-.19,39.42-.19,88.06-.19S488.45,73.26,488.45,73.37Z" style="fill:#455a64"></path><path d="M488.45,89.74c0,.1-39.54.19-88.29.19s-88.3-.09-88.3-.19,39.52-.2,88.3-.2S488.45,89.63,488.45,89.74Z" style="fill:#455a64"></path><path d="M360.17,65.55c0,.11-3.86.2-8.62.2s-8.62-.09-8.62-.2,3.86-.19,8.62-.19S360.17,65.45,360.17,65.55Z" style="fill:#fff"></path><path d="M376.54,65.57a41.36,41.36,0,0,1-7.92,0,41.36,41.36,0,0,1,7.92,0Z" style="fill:#fff"></path><path d="M423.55,65.57c0,.11-8.06.19-18,.19s-18-.08-18-.19,8.06-.19,18-.19S423.55,65.46,423.55,65.57Z" style="fill:#fff"></path><path d="M360.17,81.67c0,.1-3.86.19-8.62.19s-8.62-.09-8.62-.19,3.86-.2,8.62-.2S360.17,81.56,360.17,81.67Z" style="fill:#fff"></path><path d="M376.54,81.68a39.3,39.3,0,0,1-7.92,0,41.36,41.36,0,0,1,7.92,0Z" style="fill:#fff"></path><path d="M423.55,81.68c0,.11-8.06.2-18,.2s-18-.09-18-.2,8.06-.19,18-.19S423.55,81.58,423.55,81.68Z" style="fill:#fff"></path><path d="M360.17,97.78c0,.11-3.86.19-8.62.19s-8.62-.08-8.62-.19,3.86-.2,8.62-.2S360.17,97.67,360.17,97.78Z" style="fill:#fff"></path><path d="M376.54,97.79a39.3,39.3,0,0,1-7.92,0,41.36,41.36,0,0,1,7.92,0Z" style="fill:#fff"></path><path d="M423.55,97.79c0,.11-8.06.2-18,.2s-18-.09-18-.2,8.06-.19,18-.19S423.55,97.69,423.55,97.79Z" style="fill:#fff"></path><path d="M360.17,113.89c0,.11-3.86.19-8.62.19s-8.62-.08-8.62-.19,3.86-.19,8.62-.19S360.17,113.78,360.17,113.89Z" style="fill:#fff"></path><path d="M376.54,113.91a41.36,41.36,0,0,1-7.92,0,39.3,39.3,0,0,1,7.92,0Z" style="fill:#fff"></path><path d="M423.55,113.91c0,.1-8.06.19-18,.19s-18-.09-18-.19,8.06-.2,18-.2S423.55,113.8,423.55,113.91Z" style="fill:#fff"></path><path d="M360.17,130c0,.11-3.86.2-8.62.2s-8.62-.09-8.62-.2,3.86-.19,8.62-.19S360.17,129.89,360.17,130Z" style="fill:#fff"></path><path d="M376.54,130a41.36,41.36,0,0,1-7.92,0,39.3,39.3,0,0,1,7.92,0Z" style="fill:#fff"></path><path d="M423.55,130c0,.1-8.06.19-18,.19s-18-.09-18-.19,8.06-.2,18-.2S423.55,129.91,423.55,130Z" style="fill:#fff"></path><path d="M360.17,146.11c0,.11-3.86.2-8.62.2s-8.62-.09-8.62-.2,3.86-.19,8.62-.19S360.17,146,360.17,146.11Z" style="fill:#fff"></path><path d="M376.54,146.13a41.36,41.36,0,0,1-7.92,0,41.36,41.36,0,0,1,7.92,0Z" style="fill:#fff"></path><path d="M423.55,146.13c0,.11-8.06.19-18,.19s-18-.08-18-.19,8.06-.19,18-.19S423.55,146,423.55,146.13Z" style="fill:#fff"></path><path d="M325.44,86.33h0a4.83,4.83,0,0,1-4.83-4.83h0a4.83,4.83,0,0,1,4.83-4.83h0a4.83,4.83,0,0,1,4.83,4.83h0A4.83,4.83,0,0,1,325.44,86.33Z" style="fill:#455a64"></path><path d="M488.45,107.1c0,.11-39.54.19-88.29.19s-88.3-.08-88.3-.19,39.52-.19,88.3-.19S488.45,107,488.45,107.1Z" style="fill:#455a64"></path><path d="M325.44,103.69h0a4.83,4.83,0,0,1-4.83-4.83h0A4.82,4.82,0,0,1,325.44,94h0a4.82,4.82,0,0,1,4.83,4.82h0A4.83,4.83,0,0,1,325.44,103.69Z" style="fill:#455a64"></path><path d="M488.45,122c0,.11-39.16.2-87.46.2s-87.47-.09-87.47-.2,39.15-.19,87.47-.19S488.45,121.85,488.45,122Z" style="fill:#455a64"></path><path d="M325.44,119.36h0a4.83,4.83,0,0,1-4.83-4.83h0a4.83,4.83,0,0,1,4.83-4.83h0a4.83,4.83,0,0,1,4.83,4.83h0A4.83,4.83,0,0,1,325.44,119.36Z" style="fill:#455a64"></path><path d="M488.45,138.6c0,.1-39.16.19-87.46.19s-87.47-.09-87.47-.19,39.15-.2,87.47-.2S488.45,138.49,488.45,138.6Z" style="fill:#455a64"></path><path d="M325.44,136h0a4.82,4.82,0,0,1-4.83-4.82h0a4.83,4.83,0,0,1,4.83-4.83h0a4.83,4.83,0,0,1,4.83,4.83h0A4.82,4.82,0,0,1,325.44,136Z" style="fill:#455a64"></path><path d="M325.44,152.63h0a4.83,4.83,0,0,1-4.83-4.83h0a4.83,4.83,0,0,1,4.83-4.83h0a4.83,4.83,0,0,1,4.83,4.83h0A4.83,4.83,0,0,1,325.44,152.63Z" style="fill:#455a64"></path><path d="M325.44,68.66h0a4.83,4.83,0,0,1-4.83-4.83h0A4.83,4.83,0,0,1,325.44,59h0a4.83,4.83,0,0,1,4.83,4.83h0A4.83,4.83,0,0,1,325.44,68.66Z" style="fill:#455a64"></path><rect x="392.72" y="25.28" width="14.86" height="26.03" style="fill:#455a64"></rect><path d="M493.43,49.18c0,.11-41.88.2-93.53.2s-93.54-.09-93.54-.2S348.23,49,399.9,49,493.43,49.07,493.43,49.18Z" style="fill:#263238"></path><path d="M474.36,65.76H445a1,1,0,0,1-1-1h0a1,1,0,0,1,1-1h29.36a1,1,0,0,1,1,1h0A1,1,0,0,1,474.36,65.76Z" style="fill:#1F385D"></path><path d="M474.36,82.7H445a1,1,0,0,1-1-1h0a1,1,0,0,1,1-1h29.36a1,1,0,0,1,1,1h0A1,1,0,0,1,474.36,82.7Z" style="fill:#1F385D"></path><path d="M474.36,99.65H445a1,1,0,0,1-1-1h0a1,1,0,0,1,1-1h29.36a1,1,0,0,1,1,1h0A1,1,0,0,1,474.36,99.65Z" style="fill:#1F385D"></path><path d="M474.36,115.05H445a1,1,0,0,1-1-1h0a1,1,0,0,1,1-1h29.36a1,1,0,0,1,1,1h0A1,1,0,0,1,474.36,115.05Z" style="fill:#1F385D"></path><path d="M474.36,131.18H445a1,1,0,0,1-1-1h0a1,1,0,0,1,1-1h29.36a1,1,0,0,1,1,1h0A1,1,0,0,1,474.36,131.18Z" style="fill:#1F385D"></path><path d="M474.36,147.29H445a1,1,0,0,1-1-1h0a1,1,0,0,1,1-1h29.36a1,1,0,0,1,1,1h0A1,1,0,0,1,474.36,147.29Z" style="fill:#1F385D"></path></g><g id="freepik--screen-1--inject-20"><rect x="86.51" y="50.6" width="110.7" height="66.29" style="fill:#455a64"></rect><rect x="90.04" y="53.51" width="104.22" height="60.39" style="fill:#263238"></rect><path d="M194.26,64.91c0,.07-23.33.12-52.1.12S90,65,90,64.91s23.33-.11,52.12-.11S194.26,64.85,194.26,64.91Z" style="fill:#455a64"></path><path d="M194.26,74.6c0,.06-23.39.11-52.24.11s-52.26,0-52.26-.11,23.39-.11,52.26-.11S194.26,74.54,194.26,74.6Z" style="fill:#455a64"></path><path d="M118.36,60.29c0,.06-2.29.11-5.11.11s-5.1,0-5.1-.11,2.28-.11,5.1-.11S118.36,60.23,118.36,60.29Z" style="fill:#fff"></path><path d="M128,60.3a25.05,25.05,0,0,1-4.69,0,23,23,0,0,1,4.69,0Z" style="fill:#fff"></path><path d="M155.86,60.3c0,.06-4.77.11-10.66.11s-10.66,0-10.66-.11,4.77-.12,10.66-.12S155.86,60.24,155.86,60.3Z" style="fill:#fff"></path><path d="M118.36,69.82c0,.07-2.29.12-5.11.12s-5.1,0-5.1-.12,2.28-.11,5.1-.11S118.36,69.76,118.36,69.82Z" style="fill:#fff"></path><path d="M128,69.83a23,23,0,0,1-4.69,0,25.05,25.05,0,0,1,4.69,0Z" style="fill:#fff"></path><path d="M155.86,69.83c0,.07-4.77.12-10.66.12s-10.66,0-10.66-.12,4.77-.11,10.66-.11S155.86,69.77,155.86,69.83Z" style="fill:#fff"></path><path d="M118.36,79.36c0,.06-2.29.11-5.11.11s-5.1,0-5.1-.11,2.28-.12,5.1-.12S118.36,79.29,118.36,79.36Z" style="fill:#fff"></path><path d="M128,79.37a25.05,25.05,0,0,1-4.69,0,23,23,0,0,1,4.69,0Z" style="fill:#fff"></path><path d="M155.86,79.37c0,.06-4.77.11-10.66.11s-10.66,0-10.66-.11,4.77-.12,10.66-.12S155.86,79.3,155.86,79.37Z" style="fill:#fff"></path><path d="M118.36,88.89c0,.07-2.29.12-5.11.12s-5.1-.05-5.1-.12,2.28-.11,5.1-.11S118.36,88.83,118.36,88.89Z" style="fill:#fff"></path><path d="M128,88.9a23,23,0,0,1-4.69,0,25.05,25.05,0,0,1,4.69,0Z" style="fill:#fff"></path><path d="M155.86,88.9c0,.06-4.77.12-10.66.12s-10.66-.06-10.66-.12,4.77-.11,10.66-.11S155.86,88.84,155.86,88.9Z" style="fill:#fff"></path><path d="M118.36,98.43c0,.06-2.29.11-5.11.11s-5.1-.05-5.1-.11,2.28-.12,5.1-.12S118.36,98.36,118.36,98.43Z" style="fill:#fff"></path><path d="M128,98.44a25.05,25.05,0,0,1-4.69,0,23,23,0,0,1,4.69,0Z" style="fill:#fff"></path><path d="M155.86,98.44c0,.06-4.77.11-10.66.11s-10.66,0-10.66-.11,4.77-.12,10.66-.12S155.86,98.37,155.86,98.44Z" style="fill:#fff"></path><path d="M118.36,108c0,.06-2.29.12-5.11.12s-5.1-.06-5.1-.12,2.28-.11,5.1-.11S118.36,107.9,118.36,108Z" style="fill:#fff"></path><path d="M128,108a25.05,25.05,0,0,1-4.69,0,25.05,25.05,0,0,1,4.69,0Z" style="fill:#fff"></path><path d="M155.86,108c0,.06-4.77.11-10.66.11s-10.66,0-10.66-.11,4.77-.11,10.66-.11S155.86,107.91,155.86,108Z" style="fill:#fff"></path><path d="M97.8,72.58h0A2.85,2.85,0,0,1,95,69.73h0a2.85,2.85,0,0,1,2.85-2.86h0a2.86,2.86,0,0,1,2.86,2.86h0A2.86,2.86,0,0,1,97.8,72.58Z" style="fill:#455a64"></path><path d="M194.26,84.87c0,.07-23.39.12-52.24.12s-52.26,0-52.26-.12,23.39-.11,52.26-.11S194.26,84.81,194.26,84.87Z" style="fill:#455a64"></path><path d="M97.8,82.86h0A2.85,2.85,0,0,1,95,80h0a2.85,2.85,0,0,1,2.85-2.86h0A2.86,2.86,0,0,1,100.66,80h0A2.86,2.86,0,0,1,97.8,82.86Z" style="fill:#455a64"></path><path d="M194.26,93.67c0,.06-23.17.11-51.75.11s-51.76,0-51.76-.11,23.17-.12,51.76-.12S194.26,93.61,194.26,93.67Z" style="fill:#455a64"></path><path d="M97.8,92.13h0A2.85,2.85,0,0,1,95,89.27h0a2.85,2.85,0,0,1,2.85-2.86h0a2.86,2.86,0,0,1,2.86,2.86h0A2.86,2.86,0,0,1,97.8,92.13Z" style="fill:#455a64"></path><path d="M194.26,103.51c0,.07-23.17.12-51.75.12s-51.76,0-51.76-.12,23.17-.11,51.76-.11S194.26,103.45,194.26,103.51Z" style="fill:#455a64"></path><path d="M97.8,102h0A2.85,2.85,0,0,1,95,99.12h0a2.85,2.85,0,0,1,2.85-2.86h0a2.86,2.86,0,0,1,2.86,2.86h0A2.86,2.86,0,0,1,97.8,102Z" style="fill:#455a64"></path><path d="M97.8,111.82h0A2.85,2.85,0,0,1,95,109h0a2.85,2.85,0,0,1,2.85-2.86h0a2.86,2.86,0,0,1,2.86,2.86h0A2.86,2.86,0,0,1,97.8,111.82Z" style="fill:#455a64"></path><path d="M97.8,62.13h0A2.85,2.85,0,0,1,95,59.27h0a2.85,2.85,0,0,1,2.85-2.86h0a2.86,2.86,0,0,1,2.86,2.86h0A2.86,2.86,0,0,1,97.8,62.13Z" style="fill:#455a64"></path><rect x="137.62" y="36.46" width="8.79" height="15.4" style="fill:#455a64"></rect><path d="M197.21,50.6c0,.06-24.78.12-55.34.12s-55.36-.06-55.36-.12,24.78-.11,55.36-.11S197.21,50.54,197.21,50.6Z" style="fill:#263238"></path><path d="M185.93,60.41H168.55a.56.56,0,0,1-.57-.57h0a.57.57,0,0,1,.57-.57h17.38a.58.58,0,0,1,.57.57h0A.57.57,0,0,1,185.93,60.41Z" style="fill:#1F385D"></path><path d="M185.93,70.44H168.55a.57.57,0,0,1-.57-.57h0a.57.57,0,0,1,.57-.58h17.38a.58.58,0,0,1,.57.58h0A.58.58,0,0,1,185.93,70.44Z" style="fill:#1F385D"></path><path d="M185.93,80.46H168.55a.56.56,0,0,1-.57-.57h0a.56.56,0,0,1,.57-.57h17.38a.57.57,0,0,1,.57.57h0A.57.57,0,0,1,185.93,80.46Z" style="fill:#1F385D"></path><path d="M185.93,89.58H168.55A.57.57,0,0,1,168,89h0a.57.57,0,0,1,.57-.58h17.38a.58.58,0,0,1,.57.58h0A.58.58,0,0,1,185.93,89.58Z" style="fill:#1F385D"></path><path d="M185.93,99.12H168.55a.56.56,0,0,1-.57-.57h0a.56.56,0,0,1,.57-.57h17.38a.57.57,0,0,1,.57.57h0A.57.57,0,0,1,185.93,99.12Z" style="fill:#1F385D"></path><path d="M185.93,108.66H168.55a.57.57,0,0,1-.57-.58h0a.57.57,0,0,1,.57-.57h17.38a.58.58,0,0,1,.57.57h0A.58.58,0,0,1,185.93,108.66Z" style="fill:#1F385D"></path></g><g id="freepik--Sign--inject-20"><path d="M572.77,73.53c-.11,0-.19-6.16-.19-13.75s.08-13.74.19-13.74.19,6.15.19,13.74S572.87,73.53,572.77,73.53Z" style="fill:#263238"></path><path d="M665.34,73.93c-.11,0-.19-6.24-.19-13.94s.08-14,.19-14,.19,6.24.19,14S665.44,73.93,665.34,73.93Z" style="fill:#263238"></path><rect x="553.84" y="72.7" width="133.5" height="32.81" rx="4.69" style="fill:#1F385D"></rect><path d="M682.61,105.52h-124a4.75,4.75,0,0,1-4.75-4.74V77.42a4.75,4.75,0,0,1,4.75-4.74h124a4.75,4.75,0,0,1,4.75,4.74v23.36A4.75,4.75,0,0,1,682.61,105.52Zm-124-32.81a4.72,4.72,0,0,0-4.71,4.71v23.36a4.71,4.71,0,0,0,4.71,4.71h124a4.71,4.71,0,0,0,4.71-4.71V77.42a4.72,4.72,0,0,0-4.71-4.71Z" style="fill:#263238"></path><path d="M595.55,86.17h2.68a3.3,3.3,0,1,1,0,6.59h-2.68Zm2.64,6a2.7,2.7,0,1,0,0-5.39h-2v5.39Z" style="fill:#fafafa"></path><path d="M607.5,90.49h-4.14a1.83,1.83,0,0,0,1.95,1.73,2,2,0,0,0,1.51-.65l.38.43a2.42,2.42,0,0,1-1.91.81,2.46,2.46,0,0,1-2.6-2.53,2.41,2.41,0,1,1,4.82,0C607.51,90.34,607.5,90.42,607.5,90.49Zm-4.14-.5h3.51a1.76,1.76,0,0,0-3.51,0Z" style="fill:#fafafa"></path><path d="M613.9,90.28a2.41,2.41,0,0,1-2.47,2.53,2.18,2.18,0,0,1-1.89-1v2.76h-.66V87.81h.64v1a2.15,2.15,0,0,1,1.91-1A2.4,2.4,0,0,1,613.9,90.28Zm-.67,0a1.85,1.85,0,1,0-1.85,1.94A1.83,1.83,0,0,0,613.23,90.28Z" style="fill:#fafafa"></path><path d="M619,89.69v3.07h-.64V92a1.85,1.85,0,0,1-1.7.82c-1.12,0-1.81-.59-1.81-1.44s.49-1.41,1.91-1.41h1.57v-.3c0-.84-.48-1.31-1.4-1.31a2.53,2.53,0,0,0-1.65.59l-.3-.5a3.17,3.17,0,0,1,2-.67A1.75,1.75,0,0,1,619,89.69Zm-.67,1.58v-.81h-1.55c-1,0-1.27.38-1.27.89s.46.93,1.25.93A1.58,1.58,0,0,0,618.3,91.27Z" style="fill:#fafafa"></path><path d="M623.29,87.77v.65h-.16a1.6,1.6,0,0,0-1.67,1.83v2.52h-.67v-5h.64v1A1.87,1.87,0,0,1,623.29,87.77Z" style="fill:#fafafa"></path><path d="M627.32,92.46a1.59,1.59,0,0,1-1.05.35,1.31,1.31,0,0,1-1.45-1.44v-3h-.88v-.56h.88V86.73h.67v1.08H627v.56h-1.51v3a.79.79,0,0,0,.86.9,1.1,1.1,0,0,0,.73-.25Z" style="fill:#fafafa"></path><path d="M633,87.81v5h-.64v-.9a2,2,0,0,1-1.78,1,1.92,1.92,0,0,1-2.09-2.13V87.81h.67v2.8c0,1.06.54,1.6,1.48,1.6a1.61,1.61,0,0,0,1.69-1.8v-2.6Z" style="fill:#fafafa"></path><path d="M637.37,87.77v.65h-.16a1.6,1.6,0,0,0-1.67,1.83v2.52h-.67v-5h.64v1A1.88,1.88,0,0,1,637.37,87.77Z" style="fill:#fafafa"></path><path d="M642.84,90.49H638.7a1.83,1.83,0,0,0,1.95,1.73,1.94,1.94,0,0,0,1.51-.65l.38.43a2.42,2.42,0,0,1-1.91.81,2.46,2.46,0,0,1-2.6-2.53,2.41,2.41,0,1,1,4.82,0C642.85,90.34,642.84,90.42,642.84,90.49ZM638.7,90h3.51a1.76,1.76,0,0,0-3.51,0Z" style="fill:#fafafa"></path><path d="M643.53,92.2l.3-.53a3,3,0,0,0,1.76.55c.94,0,1.33-.32,1.33-.81,0-1.29-3.21-.27-3.21-2.23,0-.81.7-1.41,2-1.41a3.39,3.39,0,0,1,1.75.46l-.29.54a2.57,2.57,0,0,0-1.46-.43c-.9,0-1.29.35-1.29.82,0,1.34,3.21.33,3.21,2.24,0,.85-.76,1.41-2.05,1.41A3.36,3.36,0,0,1,643.53,92.2Z" style="fill:#fafafa"></path><path d="M664.64,86.07h0a.71.71,0,0,0,0,1l3.12,3.15-8.94,0a.7.7,0,0,0-.71.71h0a.71.71,0,0,0,.71.71l8.93,0-3.15,3.12a.72.72,0,0,0,0,1h0a.71.71,0,0,0,1,0L670.49,91l-4.84-4.88A.71.71,0,0,0,664.64,86.07Z" style="fill:#fafafa"></path><rect x="563.97" y="94.92" width="18.45" height="1.34" style="fill:#fafafa"></rect><path d="M584.43,83.4a1.37,1.37,0,0,0-.37-.35,11.58,11.58,0,0,0-2.94-.68A7.8,7.8,0,0,0,577,83.79l-1.65,1h0l-5.79-1a.45.45,0,0,0-.28,0l-.92.42a.3.3,0,0,0,0,.53l3.84,1.85a0,0,0,0,1,0,0l-4,2.36-.06,0a3.45,3.45,0,0,1-2.48.38l-2-.47a.65.65,0,0,0-.31,0,.52.52,0,0,0-.18.88L565.4,92a1.25,1.25,0,0,0,1.34.24l1.14-.46L574.39,89l9.19-3.87C584.49,84.76,584.85,84,584.43,83.4Z" style="fill:#fafafa"></path><path d="M576.12,89.1l-2.73,1.14-.51,2.26a.21.21,0,0,0,.2.26h.27a1.07,1.07,0,0,0,.91-.49Z" style="fill:#fafafa"></path></g><g id="freepik--character-4--inject-20"><path d="M590,393.64l-.88-.47c.63-1.19,14.66-27.43,16.7-31.17l-13.37-8.31-17.18,31.78-.88-.47L592,352.28l15.09,9.38-.25.42C606.58,362.58,595.69,382.94,590,393.64Z" style="fill:#263238"></path><path d="M659.74,231.79l2.54,2.45,3.73-3.63,1-2.72,4.71-4.23a21.61,21.61,0,0,1,0,2.72l2.67,5.14v9.58l2.66,5.2-9.18,4.18-3-7.47a20.31,20.31,0,0,1-4.37-3.53c-1.5-1.82-3-8.21-3-8.21A2.23,2.23,0,0,1,659.74,231.79Z" style="fill:#ffbf9d"></path><path d="M667.6,233.92a1,1,0,0,0,.28-1l-1.4-5-4.22-13.54a1,1,0,0,0-1.56-.43l-5.78,5.15a.94.94,0,0,0-.28,1l5.91,18.43a1,1,0,0,0,1.57.41Z" style="fill:#e0e0e0"></path><path d="M666.89,233.48a.87.87,0,0,0,.25-.88l-1.3-4.71L662,215.14a.86.86,0,0,0-1.41-.39l-5.34,4.67a.89.89,0,0,0-.26.92l5.71,17.36a.88.88,0,0,0,1.43.37Z" style="fill:#263238"></path><path d="M667.06,227.89s-.54.18-1.95.73c-1.68.65-2.09-.23-2.09-.23h0a1.19,1.19,0,0,1,.66-1.54l3.38-1.38,0-.71A30.29,30.29,0,0,1,664,225c-2.7,0-1.68-2.33-1.68-2.33l3.11-.41-1.58-2.3a1.71,1.71,0,0,1,.28-2.53l5.87,4.84s1.71.7,1.81,1.41a21.61,21.61,0,0,1,0,2.72Z" style="fill:#ffbf9d"></path><path d="M663.65,228.82a2.79,2.79,0,0,0,1.33,0,14,14,0,0,0,3.07-1l.42-.19-.24-.07c.6.94,1,1.86,1.4,2.49s.66,1,.7,1a4.51,4.51,0,0,0-.47-1.07,21.72,21.72,0,0,0-1.31-2.58l-.08-.14-.16.07-.42.18a20.06,20.06,0,0,1-3,1.05A12.76,12.76,0,0,0,663.65,228.82Z" style="fill:#ff9a6c"></path><path d="M667,225.63s.29-.12.73-.27a3.23,3.23,0,0,1,1.74-.13,3.29,3.29,0,0,1,1.55.82c.34.32.51.57.56.54s0-.33-.35-.73a3,3,0,0,0-3.61-.76C667.2,225.34,667,225.59,667,225.63Z" style="fill:#ff9a6c"></path><path d="M662.76,222.59c0,.11,1.63-.25,3.63-.33s3.63.14,3.65,0a8.94,8.94,0,0,0-3.66-.4A9.21,9.21,0,0,0,662.76,222.59Z" style="fill:#ff9a6c"></path><path d="M667,241.31c.06,0-.09-.56-.12-1.45a7.17,7.17,0,0,1,2.8-6c.7-.55,1.21-.78,1.19-.84a3.16,3.16,0,0,0-1.35.62,6.64,6.64,0,0,0-2.91,6.22A3.14,3.14,0,0,0,667,241.31Z" style="fill:#ff9a6c"></path><path d="M655.37,250.29l2.74,1.25c1.5.44,3.95,1.53,7.79,5.39l7.91,10.46-9.71-23.1,10.34-3.19s9.43,17.8,13.64,25.9a19,19,0,0,1,2.16,12.05c-.58,4.62-5.72,8.4-10.32,7.74-4.35-.62-8.6-4.21-11.25-7.61l-8.88-10Z" style="fill:#455a64"></path><path d="M684.69,449.22l3.09,16.09s17.86,5.72,18,9l-33.93.62-2.66-25.65Z" style="fill:#455a64"></path><g style="opacity:0.6000000000000001"><path d="M674.6,464.9a1.42,1.42,0,0,0-1,1.6,1.38,1.38,0,0,0,1.58,1,1.52,1.52,0,0,0,1.07-1.71,1.41,1.41,0,0,0-1.76-.87" style="fill:#fff"></path></g><g style="opacity:0.6000000000000001"><path d="M671.85,475l-.55-2.46,33.35.22A2.39,2.39,0,0,1,706,474.6Z" style="fill:#fff"></path></g><path d="M688.35,465.14c0,.17-.86.23-1.71.76s-1.31,1.24-1.46,1.17.12-1.05,1.15-1.67S688.38,465,688.35,465.14Z" style="fill:#263238"></path><path d="M692,466.72c0,.17-.7.44-1.29,1.15s-.78,1.46-.94,1.45-.26-1,.49-1.84S692,466.56,692,466.72Z" style="fill:#263238"></path><path d="M694,471.13c-.16,0-.38-.82.08-1.74s1.25-1.28,1.32-1.14-.43.63-.79,1.4S694.12,471.11,694,471.13Z" style="fill:#263238"></path><path d="M686.91,461.4c-.07.15-.85-.1-1.81,0s-1.72.33-1.8.19.64-.74,1.78-.78S687,461.27,686.91,461.4Z" style="fill:#263238"></path><path d="M602.12,445.37,588,455.2S598,471,596,473.66l-27.14-21.75L590.48,434Z" style="fill:#455a64"></path><g style="opacity:0.6000000000000001"><path d="M580.8,447a1.41,1.41,0,0,0-1.8.58,1.35,1.35,0,0,0,.56,1.79,1.49,1.49,0,0,0,1.9-.63,1.42,1.42,0,0,0-.79-1.8" style="fill:#fff"></path></g><g style="opacity:0.6000000000000001"><path d="M568.87,451.91l2.2-1.82,25.11,21.6A2.4,2.4,0,0,1,596,474Z" style="fill:#fff"></path></g><path d="M588.49,455.44c-.11.12-.81-.38-1.8-.51s-1.79.12-1.86,0,.75-.73,1.95-.54S588.62,455.34,588.49,455.44Z" style="fill:#263238"></path><path d="M590.26,459c-.08.15-.82-.11-1.73.06s-1.53.63-1.65.51.42-.91,1.56-1.1S590.37,458.84,590.26,459Z" style="fill:#263238"></path><path d="M589,463.62c-.14-.07.24-.87,1.18-1.29s1.78-.17,1.74,0-.73.21-1.5.56S589.11,463.72,589,463.62Z" style="fill:#263238"></path><path d="M590.94,452.14c-.15.07-.59-.62-1.36-1.2s-1.53-.84-1.5-1,1-.15,1.86.54S591.09,452.09,590.94,452.14Z" style="fill:#263238"></path><path d="M632.91,223.7a62.25,62.25,0,0,1-3.08-10.28,21.72,21.72,0,0,1,.47-10.63c.17-.52,1.66-4,2.2-3.95s-.49,3.24-.28,3.57a18.52,18.52,0,0,1,2.46,10.66,49.2,49.2,0,0,1-1.77,10.63" style="fill:#263238"></path><path d="M634.06,242.78l-1.31-32.52c-.61-9,3.4-17,12.38-17.37l1,0a15.91,15.91,0,0,1,15.61,14.9c.49,7.81.94,16.48.81,20.67-.25,8.62-8.9,9.81-8.9,9.81s.37,6.25.44,8.78c0,0-.92.66-8.95,1S634.06,242.78,634.06,242.78Z" style="fill:#ffbf9d"></path><path d="M653.62,238.29a20.9,20.9,0,0,1-11.17-3.51s2.63,6.31,11.25,5.69Z" style="fill:#ff9a6c"></path><path d="M658.75,215.64a1.24,1.24,0,0,1-1.21,1.22,1.18,1.18,0,0,1-1.25-1.13,1.24,1.24,0,0,1,1.21-1.23A1.19,1.19,0,0,1,658.75,215.64Z" style="fill:#263238"></path><path d="M659.53,212.56c-.15.16-1.07-.55-2.4-.57s-2.31.63-2.45.46.09-.36.52-.66a3.44,3.44,0,0,1,2-.57,3.22,3.22,0,0,1,1.9.66C659.47,212.2,659.61,212.49,659.53,212.56Z" style="fill:#263238"></path><path d="M647.46,215.64a1.24,1.24,0,0,1-1.21,1.22,1.18,1.18,0,0,1-1.25-1.13,1.24,1.24,0,0,1,1.21-1.23A1.19,1.19,0,0,1,647.46,215.64Z" style="fill:#263238"></path><path d="M647.42,212.76c-.15.16-1.08-.55-2.4-.57s-2.31.63-2.45.46.09-.36.52-.66a3.37,3.37,0,0,1,2-.57,3.29,3.29,0,0,1,1.9.65C647.36,212.39,647.5,212.69,647.42,212.76Z" style="fill:#263238"></path><path d="M651.46,223a8.58,8.58,0,0,1,2.15-.35c.34,0,.66-.09.73-.32a1.82,1.82,0,0,0-.21-1c-.31-.82-.62-1.69-1-2.59A44.92,44.92,0,0,1,651,212a43.81,43.81,0,0,1,2.67,6.59l.92,2.61a2,2,0,0,1,.15,1.33.85.85,0,0,1-.57.48,1.77,1.77,0,0,1-.57.07A9,9,0,0,1,651.46,223Z" style="fill:#263238"></path><path d="M647.27,208.59c-.14.35-1.46.17-3,.33s-2.82.58-3,.25c-.09-.16.14-.49.65-.83a4.92,4.92,0,0,1,2.25-.76,5,5,0,0,1,2.35.31C647,208.13,647.33,208.42,647.27,208.59Z" style="fill:#263238"></path><path d="M660,208c-.25.31-1.33.06-2.6.12s-2.35.34-2.61,0c-.12-.14,0-.45.49-.77a4.08,4.08,0,0,1,2.09-.61,4,4,0,0,1,2.11.48C660,207.56,660.12,207.86,660,208Z" style="fill:#263238"></path><path d="M633.34,216.6c-.14-.07-5.89-1.86-5.81,4s6,4.59,6,4.42S633.34,216.6,633.34,216.6Z" style="fill:#ffbf9d"></path><path d="M631.6,222.88s-.1.07-.28.16a1,1,0,0,1-.76,0,2.52,2.52,0,0,1-1.21-2.26,3.37,3.37,0,0,1,.26-1.48,1.21,1.21,0,0,1,.76-.8.54.54,0,0,1,.62.28c.08.16,0,.28.07.29s.13-.1.08-.34a.68.68,0,0,0-.24-.37.77.77,0,0,0-.57-.14,1.43,1.43,0,0,0-1.06.93,3.39,3.39,0,0,0-.33,1.65,2.66,2.66,0,0,0,1.53,2.52,1.12,1.12,0,0,0,.94-.17C631.59,223,631.62,222.89,631.6,222.88Z" style="fill:#ff9a6c"></path><path d="M657.67,198.27c.94-.55-2-3.57-4.36-4.58-3.58-1.53-9-2.39-12.26-1.39-3.91,1.21-7.14,3.24-9,6.87a23.22,23.22,0,0,0-2.32,11.9,7,7,0,0,0,.91,3.59c.85,1.28,2.45,2.06,2.43,3.86a2.48,2.48,0,0,0,.65,1.79c1.11,1.12,2.4,0,3-1.08,1.25-2.34,1.33-5.1,1.38-7.75a17.24,17.24,0,0,0-.51-5.6c-.31-1-.79-1.89-1-2.89a3.53,3.53,0,0,1,.35-3,4,4,0,0,1,.47-.49,6.13,6.13,0,0,1,6.07-1.31c3.35,1.1,9.06,2.72,10.51,1.56a9,9,0,0,0,2.58-2.74Z" style="fill:#263238"></path><path d="M652.31,226.58c0,.1-.3.29-.89.36a4.21,4.21,0,0,1-2.26-.4,4.27,4.27,0,0,1-1.74-1.5c-.32-.51-.38-.88-.29-.92s.91,1.06,2.36,1.72S652.27,226.36,652.31,226.58Z" style="fill:#263238"></path><path d="M611.17,267.72s-17.29,11.31-18.1,18.81-3.6,23.47-.69,33.21,5.71,21,13.72,21.22a23.29,23.29,0,0,0,13.2-3.52L629,308.06l-3.14-33-1.12-11.88Z" style="fill:#263238"></path><path d="M612.6,340.26l-.09-.15-.24-.45c-.2-.4-.49-1-.85-1.75-.73-1.53-1.74-3.75-2.91-6.54s-2.48-6.15-3.74-9.95a68,68,0,0,1-3.06-12.64,87.27,87.27,0,0,1-.48-13c.1-4,.35-7.59.6-10.6s.53-5.45.74-7.12c.11-.82.19-1.46.26-1.93,0-.2.06-.37.08-.5s0-.17,0-.17,0,.06,0,.17l-.05.51c0,.47-.11,1.12-.19,1.93-.16,1.68-.4,4.12-.62,7.13s-.43,6.6-.52,10.59a90.74,90.74,0,0,0,.51,13,69.11,69.11,0,0,0,3,12.59c1.23,3.79,2.52,7.15,3.65,9.95s2.12,5,2.8,6.58c.33.75.6,1.34.79,1.78l.2.46C612.59,340.2,612.61,340.25,612.6,340.26Z" style="fill:#455a64"></path><path d="M602.2,311a11.19,11.19,0,0,1-1.57.91c-1,.53-2.32,1.28-3.77,2.17s-2.72,1.75-3.64,2.38a9.11,9.11,0,0,1-1.52,1,8.35,8.35,0,0,1,1.36-1.19,42.12,42.12,0,0,1,3.61-2.49,43.52,43.52,0,0,1,3.84-2.09A7.57,7.57,0,0,1,602.2,311Z" style="fill:#455a64"></path><path d="M618.7,333.17a14.69,14.69,0,0,0,.19,3.88c.72,4,.05,10.37,3.42,15.26,5.15,7.49,13.88,16.61,13.88,16.61l17.1,41.73,15.19,54.47L689.35,462l-10.81-66.58-17.33-62.58Z" style="fill:#263238"></path><path d="M577.75,440.46l37.06-47.36,7.37-44.1,28.52,13.11-9.11,39.06a25,25,0,0,1-7.26,12.58L593.85,456Z" style="fill:#263238"></path><path d="M648.46,398.79s0-.05-.1-.17l-.27-.54c-.22-.48-.57-1.17-1-2.09-.81-1.83-1.88-4.51-3.08-7.88s-2.49-7.41-4.22-11.79a36.87,36.87,0,0,0-8-12.91c-1.88-2-3.79-3.82-5.52-5.74q-.65-.72-1.23-1.47l-1.1-1.53c-.37-.49-.68-1-1-1.53l-.48-.77-.44-.78a26.22,26.22,0,0,1-2.54-6.22,21.29,21.29,0,0,1-.6-5.83c0-.9.14-1.75.22-2.55s.24-1.55.43-2.24.32-1.33.5-1.91.33-1.12.5-1.59c.31-.95.59-1.67.79-2.16l.22-.56.09-.18s0,.07-.05.2l-.19.56c-.18.5-.43,1.23-.72,2.18-.16.48-.31,1-.47,1.59s-.32,1.23-.47,1.92-.25,1.44-.39,2.22a24.8,24.8,0,0,0-.19,2.53,21.06,21.06,0,0,0,.63,5.74,25.64,25.64,0,0,0,2.54,6.13l.43.77.49.76c.33.5.63,1,1,1.52l1.1,1.51c.38.49.79,1,1.22,1.45,1.71,1.9,3.62,3.75,5.51,5.72a36.81,36.81,0,0,1,8,13c1.72,4.41,3,8.47,4.15,11.84s2.2,6.06,3,7.9c.38.93.7,1.63.9,2.12.1.22.17.41.23.55Z" style="fill:#455a64"></path><path d="M653.7,247l6.54,7.8s5.48,28.33,5.37,32.78-2.35,39.79-2.35,39.79Z" style="fill:#455a64"></path><polygon points="633.84 236.15 633.83 234.08 654.91 246.1 655.37 250.29 663.25 271.57 664.52 325.01 663.26 339.19 646.55 340.97 640.94 250.67 633.84 236.15" style="fill:#e0e0e0"></polygon><path d="M631,240l-8.61,4.87L620.8,290.5l4.68,14.42-9.29,37.26.21,4.5,50.77-.19-1.11-17.29s-1.57-12.54-1.54-15a297.91,297.91,0,0,0-2-33.15c-1.81-14-11-30-11-30L632.9,235.36Z" style="fill:#455a64"></path><path d="M663.26,297.09s0,0-.09-.16l-.22-.48-.82-1.84c-.7-1.64-1.7-4-2.93-6.81l-9.57-22.53c-.74-1.74-1.46-3.46-2.16-5.12l0,0V260c.27-1.3.53-2.57.79-3.81l.21.22-2.47.45-.09,0-.06-.06-11.55-11.51c-1.39-1.41-2.51-2.53-3.29-3.33l-.87-.9a2.33,2.33,0,0,1-.29-.32,2.06,2.06,0,0,1,.33.28l.91.86,3.36,3.25,11.64,11.42-.15-.05,2.46-.47.27,0-.06.27c-.25,1.23-.51,2.51-.78,3.81V260c.7,1.66,1.43,3.37,2.16,5.12,3.69,8.8,7,16.76,9.47,22.56,1.18,2.88,2.15,5.21,2.83,6.86l.75,1.87.19.49A1,1,0,0,1,663.26,297.09Z" style="fill:#263238"></path><g style="opacity:0.30000000000000004"><polygon points="642.2 255.95 644.08 258.69 646.55 257.92 645.36 260.23 648.49 268.94 650.21 266.17 647.64 260.08 648.43 256.27 645.96 256.73 641.92 252.73 642.2 255.95"></polygon></g><path d="M621.93,245.12a40.25,40.25,0,0,1,4.58-3.89,7.87,7.87,0,0,1,6.42-.86c1.16.46,7.05,2.19,9.27,13.68,1.18,6.16-7.31,36.09-9.6,44a8.15,8.15,0,0,1-1.94,3.37L621.58,311s11.87-43.34,12.49-49S636.65,242.21,621.93,245.12Z" style="fill:#263238"></path><path d="M626.37,242.51c0,.1-.38.23-.87.28s-.89,0-.91-.1.37-.22.87-.27S626.37,242.41,626.37,242.51Z" style="fill:#455a64"></path><path d="M633.13,243.66a6.45,6.45,0,0,1-1.66-.46,5.76,5.76,0,0,1-1.64-.55,3.31,3.31,0,0,1,1.74.2A3,3,0,0,1,633.13,243.66Z" style="fill:#455a64"></path><path d="M637.3,249a5.24,5.24,0,0,1-.89-1.49,5.39,5.39,0,0,1-.7-1.59c.09-.06.59.56,1,1.42A3.62,3.62,0,0,1,637.3,249Z" style="fill:#455a64"></path><path d="M638.34,255.79a5,5,0,0,1-.16-1.72,6.27,6.27,0,0,1,0-1.74,3.32,3.32,0,0,1,.35,1.72A3.43,3.43,0,0,1,638.34,255.79Z" style="fill:#455a64"></path><path d="M637.2,262.62a8.08,8.08,0,0,1,.73-3.39,8.08,8.08,0,0,1-.73,3.39Z" style="fill:#455a64"></path><path d="M635.54,269.35a4.25,4.25,0,0,1,.24-1.73,4.05,4.05,0,0,1,.6-1.63,4,4,0,0,1-.24,1.72A4.22,4.22,0,0,1,635.54,269.35Z" style="fill:#455a64"></path><path d="M633.82,276.06a4.11,4.11,0,0,1,.25-1.72,4.25,4.25,0,0,1,.62-1.64,4.27,4.27,0,0,1-.26,1.73A4,4,0,0,1,633.82,276.06Z" style="fill:#455a64"></path><path d="M632.07,282.77a8.17,8.17,0,0,1,.88-3.36,8.17,8.17,0,0,1-.88,3.36Z" style="fill:#455a64"></path><path d="M630.3,289.47a4.13,4.13,0,0,1,.27-1.72,4.07,4.07,0,0,1,.62-1.63,4.22,4.22,0,0,1-.26,1.72A4.17,4.17,0,0,1,630.3,289.47Z" style="fill:#455a64"></path><path d="M629,294.55c-.1,0-.08-.43,0-.91s.31-.84.41-.82.08.44,0,.92S629.05,294.58,629,294.55Z" style="fill:#455a64"></path><path d="M630.7,327.34a2.13,2.13,0,0,1-.2.41l-.62,1.12L627.55,333l-.1-.18c4.79.07,12,.2,20.14.38l2.2.05-.19.2c-.15-2-.3-3.94-.44-5.76l.17.16-13.33-.3-3.88-.12-1,0-.37,0,.35,0h4.87l13.42.16h.16v.16c.15,1.82.3,3.76.46,5.76l0,.21h-.21l-2.2,0c-8.1-.18-15.35-.37-20.14-.52h-.21l.11-.18,2.46-4.1c.28-.45.5-.8.66-1.08Z" style="fill:#263238"></path><path d="M613.32,366.43a.64.64,0,0,1-.35,1,4.15,4.15,0,0,1-4.35-1.62,10.15,10.15,0,0,1-2.17-3.95l-5.66,4.57s-2.3,1.31-3.13,0-.51-1.52-.51-1.52a1.71,1.71,0,0,1-2.5-.31,2.92,2.92,0,0,1-.36-2.25s-1.59-1-1.68-1.5a8.18,8.18,0,0,1,.6-2.22s-1.09-.6-1-1.52,2.19-4.35,2.19-4.35,3.11-3.45,4.34-4.72l1.3-2.33,9.47,5.25a11.11,11.11,0,0,0-.87,2.63c.09,1.22,1.61,6.5,1.61,6.5a11.86,11.86,0,0,0,1.19,4.1C612.16,365.18,612.92,365.87,613.32,366.43Z" style="fill:#ffbf9d"></path><path d="M600.2,361.89a28.54,28.54,0,0,0-3,3.09,15.38,15.38,0,0,0,1.56-1.49A14.34,14.34,0,0,0,600.2,361.89Z" style="fill:#ff9a6c"></path><path d="M597.69,358.33a2.91,2.91,0,0,0-.56.52c-.33.35-.77.83-1.23,1.38s-.87,1.07-1.15,1.46a3.28,3.28,0,0,0-.43.64,4.08,4.08,0,0,0,.51-.57l1.19-1.42,1.19-1.41A5,5,0,0,0,597.69,358.33Z" style="fill:#ff9a6c"></path><path d="M594.84,356.17a6.67,6.67,0,0,0-.84,1.15,6,6,0,0,0-.71,1.24,7.2,7.2,0,0,0,.84-1.15A6.3,6.3,0,0,0,594.84,356.17Z" style="fill:#ff9a6c"></path><path d="M623,305.39s12.34-40.54,12.95-44.8,2-19.66-12-16.51c0,0-7.84,3-9.89,12.92s-10.3,38-11.78,46.6l-7.76,43.08,16.86,5.68Z" style="fill:#455a64"></path><path d="M552.25,468.1a4.63,4.63,0,1,1-2.16-6A4.53,4.53,0,0,1,552.25,468.1Z" style="fill:#263238"></path><path d="M539.07,462a4.63,4.63,0,1,1-2.16-6A4.53,4.53,0,0,1,539.07,462Z" style="fill:#263238"></path><rect x="542.54" y="381.11" width="35.38" height="81.85" rx="8.96" transform="translate(247.49 -205.79) rotate(26.53)" style="fill:#1F385D"></rect><g style="opacity:0.30000000000000004"><rect x="542.54" y="381.11" width="35.38" height="81.85" rx="8.96" transform="translate(247.49 -205.79) rotate(26.53)"></rect></g><rect x="558.45" y="384.86" width="18.59" height="81.85" rx="8.96" transform="translate(249.97 -208.76) rotate(26.53)" style="fill:#1F385D"></rect><path d="M563.68,454.21c0,.09-3.81-1.7-8.41-4S547,446,547,445.89s3.82,1.7,8.42,4S563.73,454.12,563.68,454.21Z" style="fill:#263238"></path><path d="M568.72,444.11c-.05.1-3.81-1.69-8.41-4s-8.29-4.23-8.25-4.32,3.81,1.69,8.42,4S568.77,444,568.72,444.11Z" style="fill:#263238"></path><path d="M573.76,434c0,.09-3.81-1.69-8.41-4s-8.29-4.23-8.25-4.32,3.81,1.69,8.41,4S573.8,433.93,573.76,434Z" style="fill:#263238"></path><path d="M578.8,423.93c0,.09-3.81-1.7-8.41-4s-8.29-4.24-8.25-4.33,3.81,1.7,8.41,4S578.84,423.84,578.8,423.93Z" style="fill:#263238"></path><path d="M583.84,413.84c-.05.09-3.82-1.7-8.41-4s-8.3-4.23-8.25-4.32,3.81,1.69,8.41,4S583.88,413.74,583.84,413.84Z" style="fill:#263238"></path><path d="M588.88,403.74c0,.09-3.82-1.69-8.42-4s-8.29-4.23-8.24-4.32,3.81,1.69,8.41,4S588.92,403.65,588.88,403.74Z" style="fill:#263238"></path><path d="M546.93,429.2h0a2.86,2.86,0,0,1-1.28-3.85l10.49-21A2.87,2.87,0,0,1,560,403h0a2.87,2.87,0,0,1,1.29,3.85l-10.5,21A2.87,2.87,0,0,1,546.93,429.2Z" style="fill:#263238"></path><path d="M535.05,455.49l-.11-.19-.28-.6a8.69,8.69,0,0,1-.55-2.45c-.22-2.19.56-5.32,2.29-8.73,3.55-6.79,8.54-16.09,14-26.39l14.15-26.33a26.68,26.68,0,0,1,2.73-4.4,7.39,7.39,0,0,1,3.19-2.3,5.39,5.39,0,0,1,2.52-.29,3.22,3.22,0,0,1,.87.23s-.3-.09-.88-.15a5.33,5.33,0,0,0-2.46.35,7.25,7.25,0,0,0-3.07,2.3,25.57,25.57,0,0,0-2.65,4.39c-3.61,6.77-8.57,16.09-14.06,26.38l-14.13,26.33c-1.75,3.38-2.56,6.45-2.39,8.6A9.85,9.85,0,0,0,535.05,455.49Z" style="fill:#263238"></path></g><g id="freepik--characters-2-and-3--inject-20"><polygon points="282.18 388.35 278.69 388.35 278.69 322.11 263.8 322.11 263.8 388.35 260.31 388.35 260.31 318.62 282.18 318.62 282.18 388.35" style="fill:#e0e0e0"></polygon><path d="M282.18,388.35s0-.44,0-1.28,0-2.09,0-3.72c0-3.25,0-8,0-14.1,0-12.15,0-29.56-.08-50.63l.15.15-21.87,0,.16-.17c0,20,0,42.49,0,66.23v3.5l-.18-.18h3.49l-.18.18c0-23.93,0-46.45,0-66.24V322h15.21v.15c-.06,33.53-.1,57.67-.12,66.24l0,0,2.6,0,.88,0h-.86l-2.62,0h0v0c0-8.57-.06-32.71-.12-66.24l.16.15H263.8l.16-.16c0,19.79,0,42.31,0,66.24v.18h-3.85v-3.68c0-23.74,0-46.25,0-66.23v-.16h22.19v.15c0,21.1-.06,38.55-.07,50.73,0,6.07,0,10.82,0,14.06,0,1.61,0,2.85,0,3.69S282.18,388.35,282.18,388.35Z" style="fill:#263238"></path><path d="M259.31,325.13v-5.07a2.17,2.17,0,0,1,2.16-2.17H281a2.17,2.17,0,0,1,2.16,2.17v5.07h-5.33v-2.71H264.74v2.71Z" style="fill:#263238"></path><path d="M263.29,356.84c0,.1-.57.18-1.26.18s-1.26-.08-1.26-.18.56-.18,1.26-.18S263.29,356.74,263.29,356.84Z" style="fill:#263238"></path><path d="M263.29,361c0,.1-.57.18-1.26.18s-1.26-.08-1.26-.18.56-.18,1.26-.18S263.29,360.86,263.29,361Z" style="fill:#263238"></path><path d="M262.42,355.74a.37.37,0,1,1-.73,0,.37.37,0,1,1,.73,0Z" style="fill:#263238"></path><path d="M281.67,356.84c0,.1-.56.18-1.26.18s-1.25-.08-1.25-.18.56-.18,1.25-.18S281.67,356.74,281.67,356.84Z" style="fill:#263238"></path><path d="M281.67,361c0,.1-.56.18-1.26.18s-1.25-.08-1.25-.18.56-.18,1.25-.18S281.67,360.86,281.67,361Z" style="fill:#263238"></path><path d="M280.81,355.74a.37.37,0,0,1-.74,0,.37.37,0,0,1,.74,0Z" style="fill:#263238"></path><path d="M283.22,374.81c-.28.14-1-1.06-2.7-2.43a11.6,11.6,0,0,0-15.1-.21c-1.69,1.32-2.48,2.51-2.76,2.35s.11-1.62,1.77-3.43a11.21,11.21,0,0,1,3.44-2.53,11.36,11.36,0,0,1,10.3.15,11.2,11.2,0,0,1,3.38,2.62C283.15,373.18,283.45,374.72,283.22,374.81Z" style="fill:#263238"></path><rect x="242.53" y="374.39" width="57.15" height="83.36" rx="8.19" style="fill:#1F385D"></rect><path d="M291.49,457.75a9.55,9.55,0,0,0,2.65-.49,7.91,7.91,0,0,0,2.78-1.67,8.07,8.07,0,0,0,2.34-3.71c.51-1.61.28-3.52.32-5.57s0-4.29,0-6.68c0-4.8,0-10.27,0-16.3s0-12.66,0-19.76c0-3.55,0-7.22,0-11v-5.76c0-1,0-1.95,0-2.93a13.55,13.55,0,0,0-.17-2.93,8,8,0,0,0-5.86-6.11,11.37,11.37,0,0,0-3-.25H250.73a8,8,0,0,0-5.94,2.65,7.88,7.88,0,0,0-1.65,2.84,9,9,0,0,0-.4,3.27q0,6.74,0,13.25c0,8.69,0,17.08,0,25.06s0,15.57,0,22.68v5.23a8,8,0,0,0,5.18,7.49,7.64,7.64,0,0,0,2.24.5c.75.06,1.53,0,2.28,0l28.6.07,7.78,0,2,0,.69,0-.69,0-2,0-7.78,0-28.6.07c-.76,0-1.51,0-2.3,0a7.92,7.92,0,0,1-2.33-.51,8.36,8.36,0,0,1-5.41-7.78v-5.23c0-7.11,0-14.69,0-22.68s0-16.37,0-25.06q0-6.51,0-13.25a9.63,9.63,0,0,1,.42-3.4,8.44,8.44,0,0,1,8-5.78h39.68a11.58,11.58,0,0,1,3.15.27,8.31,8.31,0,0,1,2.84,1.33,8.4,8.4,0,0,1,3.3,5.08,14.6,14.6,0,0,1,.17,3v8.69c0,3.78,0,7.45,0,11,0,7.1,0,13.72,0,19.76s0,11.5,0,16.3c0,2.39,0,4.63,0,6.68,0,1,0,2,0,2.95a8.78,8.78,0,0,1-.35,2.66,8.29,8.29,0,0,1-2.41,3.77,8.19,8.19,0,0,1-2.84,1.65,8.48,8.48,0,0,1-2,.4Z" style="fill:#263238"></path><path d="M257.76,462.2a3.61,3.61,0,1,1-3.61-3.61A3.61,3.61,0,0,1,257.76,462.2Z" style="fill:#455a64"></path><path d="M242.53,400.79h-.17a4.22,4.22,0,0,1-4.22-4.22h0a4.22,4.22,0,0,1,4.22-4.21h.17Z" style="fill:#263238"></path><path d="M242.53,439.49h-.17a4.21,4.21,0,0,1-4.22-4.21h0a4.21,4.21,0,0,1,4.22-4.21h.17Z" style="fill:#263238"></path><polygon points="251.84 457.75 252.85 463.05 255.35 463.05 256.45 457.75 251.84 457.75" style="fill:#263238"></polygon><path d="M256,462.2a1.85,1.85,0,1,1-1.84-1.84A1.84,1.84,0,0,1,256,462.2Z" style="fill:#263238"></path><path d="M294,462.2a3.61,3.61,0,1,1-3.61-3.61A3.61,3.61,0,0,1,294,462.2Z" style="fill:#455a64"></path><polygon points="288.1 457.75 289.11 463.05 291.61 463.05 292.71 457.75 288.1 457.75" style="fill:#263238"></polygon><path d="M292.25,462.2a1.85,1.85,0,1,1-1.84-1.84A1.84,1.84,0,0,1,292.25,462.2Z" style="fill:#263238"></path><path d="M299.68,392c0,.12-12.79.21-28.57.21s-28.58-.09-28.58-.21,12.79-.21,28.58-.21S299.68,391.91,299.68,392Z" style="fill:#263238"></path><path d="M299.68,389.85c0,.11-12.79.21-28.57.21s-28.58-.1-28.58-.21,12.79-.21,28.58-.21S299.68,389.73,299.68,389.85Z" style="fill:#263238"></path><path d="M299.68,408.47c0,.11-12.79.21-28.57.21s-28.58-.1-28.58-.21,12.79-.21,28.58-.21S299.68,408.35,299.68,408.47Z" style="fill:#263238"></path><path d="M299.68,406.29c0,.12-12.79.21-28.57.21s-28.58-.09-28.58-.21,12.79-.2,28.58-.2S299.68,406.18,299.68,406.29Z" style="fill:#263238"></path><path d="M299.68,424.91c0,.12-12.79.21-28.57.21s-28.58-.09-28.58-.21,12.79-.21,28.58-.21S299.68,424.8,299.68,424.91Z" style="fill:#263238"></path><path d="M299.68,422.74c0,.11-12.79.21-28.57.21s-28.58-.1-28.58-.21,12.79-.21,28.58-.21S299.68,422.62,299.68,422.74Z" style="fill:#263238"></path><path d="M299.68,441.36c0,.11-12.79.21-28.57.21s-28.58-.1-28.58-.21,12.79-.21,28.58-.21S299.68,441.24,299.68,441.36Z" style="fill:#263238"></path><path d="M299.68,439.18c0,.12-12.79.21-28.57.21s-28.58-.09-28.58-.21,12.79-.2,28.58-.2S299.68,439.07,299.68,439.18Z" style="fill:#263238"></path><rect x="264.35" y="396.59" width="11.75" height="2.97" style="fill:#fff"></rect><path d="M276.12,399.58H264.33v-3h11.79Zm-11.75,0h11.71v-2.93H264.37Z" style="fill:#263238"></path><g style="opacity:0.2"><rect x="242.53" y="389.85" width="57.15" height="1.36"></rect></g><g style="opacity:0.2"><rect x="242.53" y="406.22" width="57.15" height="1.36"></rect></g><g style="opacity:0.2"><rect x="242.53" y="422.58" width="57.15" height="1.36"></rect></g><g style="opacity:0.2"><rect x="242.53" y="438.93" width="57.15" height="1.36"></rect></g><path d="M276.08,397.77c-3.41-1.74.64-15.71.68-15.85,4.13-13.18,16.87-34.51,55.82-29.26l-.54,4c-19.29-2.61-33.83,1.35-43.21,11.74s-10.55,24.74-10,26.85a1.76,1.76,0,0,0-.89-1Z" style="fill:#455a64"></path><rect x="353.19" y="395.99" width="10.2" height="61.81" transform="translate(716.58 853.79) rotate(180)" style="fill:#e0e0e0"></rect><polygon points="407.8 314.65 400.91 355.7 394 396.89 275.09 396.98 275.08 390.68 322.79 390.65 339.43 314.7 407.8 314.65" style="fill:#455a64"></polygon><path d="M234.75,408.71l-12.67,16s-20.56-7.49-23.19-4.75l30.22,25.68,20.77-24.18Z" style="fill:#263238"></path><path d="M232.54,431.38a1.61,1.61,0,0,1-.35,2.13,1.54,1.54,0,0,1-2.11-.32,1.7,1.7,0,0,1,.37-2.26,1.62,1.62,0,0,1,2.17.58" style="fill:#e0e0e0"></path><path d="M229.11,445.67l2-2.52-29.71-23.68s-1.84-.56-2.5.52Z" style="fill:#455a64"></path><path d="M221.72,424.17c-.12.16.56.85.89,1.94s.18,2,.36,2.1.69-1,.28-2.3S221.81,424,221.72,424.17Z" style="fill:#fff"></path><path d="M217.44,422.79c-.16.11.27.91.24,2s-.45,1.83-.29,1.95,1-.64,1-1.94S217.56,422.65,217.44,422.79Z" style="fill:#fff"></path><path d="M212.41,425.05c.11.15.94-.41,1.25-1.54s-.11-2-.27-2-.11.86-.38,1.79S212.28,424.91,212.41,425.05Z" style="fill:#fff"></path><path d="M225,420.84c-.06.19.79.56,1.58,1.32s1.21,1.59,1.4,1.52,0-1.11-.94-2S225,420.66,225,420.84Z" style="fill:#fff"></path><path d="M262.29,381.45c0,1.46-6.49,68.24-6.49,68.24l21.94,2.55s5.46-33.68,6.31-39.89S287.74,395,287.74,395l46.8-4.63s-23-32.11-25.19-32.25S262.29,381.45,262.29,381.45Z" style="fill:#263238"></path><path d="M224.37,418.36s39.29-53.26,41.55-56.05,4.89-5.75,13.08-5.75,30.35,1.57,30.35,1.57l11.71-5.33,42.51,6.55s1.57,20.23-1.22,24.93-19.35,5.93-22.84,6.1S282,383.23,282,383.23h0s-10.58,14.69-15.66,20.33c-3.63,4-23,28.83-23,28.83Z" style="fill:#263238"></path><path d="M243.47,432.83l-19.54-14.41.19-.25c.39-.53,39.32-53.29,41.56-56.05s4.77-5.87,13.32-5.87c7.86,0,28.83,1.46,30.3,1.56L321,352.47l.09,0,42.75,6.59,0,.25c.07.83,1.55,20.38-1.26,25.11-3,5.11-21.05,6.16-23.09,6.26-3.4.2-53.32-6.59-57.36-7.14-1.14,1.59-10.82,14.93-15.57,20.21-3.57,4-22.75,28.57-22.94,28.82Zm-18.66-14.54L243.35,432c2-2.58,19.39-24.83,22.78-28.61,5-5.57,15.54-20.16,15.64-20.31l.11-.15.19,0c.54.07,54,7.32,57.43,7.15.8,0,19.67-1,22.58-5.95,2.54-4.29,1.36-22.17,1.19-24.49l-42.16-6.51-11.7,5.33h-.08c-.22,0-22.24-1.58-30.33-1.58-8.25,0-10.79,3.13-12.83,5.64S227.75,414.3,224.81,418.29Z" style="fill:#455a64"></path><path d="M277.69,376.17a30.24,30.24,0,0,1,2.53,3.62,31.67,31.67,0,0,1,2.27,3.8,58.74,58.74,0,0,1-4.8-7.42Z" style="fill:#455a64"></path><path d="M257.57,436.49l1.12,20.41s-20.37,8-20.53,11.78l39.65-.74-.44-31.87Z" style="fill:#263238"></path><path d="M270.92,455a1.62,1.62,0,0,1,1.15,1.83,1.55,1.55,0,0,1-1.8,1.16,1.71,1.71,0,0,1-1.21-1.94,1.62,1.62,0,0,1,2-1" style="fill:#e0e0e0"></path><path d="M277.81,467.94l-.17-3.21-37.95,1.91s-1.75.8-1.53,2Z" style="fill:#455a64"></path><path d="M258,456.71c0,.2,1,.27,1.95.87s1.49,1.41,1.66,1.33-.13-1.19-1.31-1.91S258,456.54,258,456.71Z" style="fill:#fff"></path><path d="M253.92,458.51c0,.19.8.5,1.47,1.31s.88,1.67,1.08,1.66.29-1.11-.56-2.1S253.92,458.33,253.92,458.51Z" style="fill:#fff"></path><path d="M251.65,463.53c.18,0,.43-.93-.09-2s-1.43-1.46-1.51-1.3.49.72.9,1.59S251.46,463.52,251.65,463.53Z" style="fill:#fff"></path><path d="M258.31,452c.08.18,1-.11,2.06,0s1.95.38,2.05.21-.73-.84-2-.89S258.21,451.88,258.31,452Z" style="fill:#fff"></path><path d="M337.7,306.74l1.37,12.73-16,32.07s-9.46,3.15-12.8,6.59l7.65.34a53.07,53.07,0,0,1,30.39,11.14c3.79,2.95,6.83,6.14,7.4,9,1.67,8.55,6.95,9.15,6.95,9.15l6.95-14.39,6.79-13.5,13.63-52.85-13.15-7.22-2.95-4.3-19.46,2.71-3.87,3.83Z" style="fill:#e0e0e0"></path><path d="M305.4,340.9l8.17-3.42,12.84-18s5.95-11.9,11.29-12.74,1.37,12.73,1.37,12.73l-8.23,23.37-13.27,9.29-9.15-.79-5.93-5Z" style="fill:#e0e0e0"></path><path d="M339,311.17a2.61,2.61,0,0,1-.14.42c-.11.3-.27.69-.46,1.18-.42,1.05-1,2.52-1.71,4.32-1.44,3.65-3.36,8.72-5.48,14.32s-4.07,10.67-5.57,14.3c-.74,1.82-1.36,3.28-1.81,4.29l-.51,1.15a1.91,1.91,0,0,1-.2.39,2.61,2.61,0,0,1,.14-.42c.11-.3.27-.69.46-1.17l1.71-4.33c1.44-3.65,3.36-8.72,5.48-14.32s4.07-10.67,5.57-14.3c.74-1.81,1.36-3.28,1.8-4.28.22-.48.39-.86.52-1.16A1.91,1.91,0,0,1,339,311.17Z" style="fill:#263238"></path><path d="M355,310.64a5.32,5.32,0,0,1-.49-.86l-1.23-2.42h.22c-.43.94-.93,2.06-1.59,3.25a14.25,14.25,0,0,1-2.67,3.52l-.3.28,0-.42v-.06c.23-3.24.61-6.17,1-8.27.17-1.05.33-1.89.45-2.48a5.47,5.47,0,0,1,.22-.9,4.68,4.68,0,0,1-.1.92c-.09.65-.2,1.49-.34,2.5-.29,2.1-.63,5-.87,8.25V314l-.28-.14a14,14,0,0,0,2.63-3.42c.66-1.16,1.18-2.27,1.63-3.2l.12-.23.1.23c.46,1,.83,1.82,1.13,2.46A5.38,5.38,0,0,1,355,310.64Z" style="fill:#263238"></path><path d="M375.64,300.83l-.18.26q-.24.27-.57.69c-.5.59-1.24,1.44-2.18,2.46a100.47,100.47,0,0,1-7.8,7.57c-1.45,1.27-2.88,2.44-4.21,3.47l-.24.19v-.3a21.15,21.15,0,0,0-1-6l.16.06-2.39,1.37a5.4,5.4,0,0,1-.88.46,7.69,7.69,0,0,1,.82-.55l2.34-1.46.11-.07.05.13a20.67,20.67,0,0,1,1.08,6.07l-.25-.12c1.32-1,2.74-2.21,4.19-3.48,3.19-2.78,5.92-5.47,7.84-7.47,1-1,1.72-1.83,2.25-2.4l.62-.65C375.55,300.9,375.63,300.82,375.64,300.83Z" style="fill:#263238"></path><path d="M374.46,297.21l1.32-27c.84-8.46-3.38-16-11.86-16.6l-.79,0a15.2,15.2,0,0,0-15.33,13.78c-.69,7.34-1.35,15.45-1.35,19.39,0,8.16,8.13,9.53,8.13,9.53s-.22,5-.35,7.35h0l1.71,6.22Z" style="fill:#ffbf9d"></path><path d="M354.6,296.29a19.7,19.7,0,0,0,10.66-3s-2.64,6.1-10.77,5.26Z" style="fill:#ff9a6c"></path><path d="M351.39,274.8A1.16,1.16,0,0,0,352.5,276a1.11,1.11,0,0,0,1.22-1,1.16,1.16,0,0,0-1.11-1.19A1.12,1.12,0,0,0,351.39,274.8Z" style="fill:#263238"></path><path d="M349.5,270.69c.15.16,1-.48,2.29-.46s2.16.65,2.3.5-.07-.34-.47-.64a3.26,3.26,0,0,0-1.84-.59,3,3,0,0,0-1.82.56C349.57,270.35,349.43,270.63,349.5,270.69Z" style="fill:#263238"></path><path d="M362.92,275.63a1.16,1.16,0,0,0,1.11,1.19,1.11,1.11,0,0,0,1.21-1,1.16,1.16,0,0,0-1.11-1.19A1.11,1.11,0,0,0,362.92,275.63Z" style="fill:#263238"></path><path d="M361.79,271.14c.14.16,1-.48,2.28-.46s2.17.66,2.31.5-.08-.34-.48-.64a3.26,3.26,0,0,0-1.84-.59,3,3,0,0,0-1.82.56C361.85,270.8,361.72,271.08,361.79,271.14Z" style="fill:#263238"></path><path d="M357.17,280.72a8.54,8.54,0,0,0-2-.4c-.32,0-.62-.1-.67-.32a1.67,1.67,0,0,1,.23-.95c.31-.77.63-1.57,1-2.42a40.71,40.71,0,0,0,2.2-6.35,42.29,42.29,0,0,0-2.71,6.16l-.94,2.44a1.86,1.86,0,0,0-.18,1.25.78.78,0,0,0,.52.47,1.9,1.9,0,0,0,.54.09A8.62,8.62,0,0,0,357.17,280.72Z" style="fill:#263238"></path><path d="M361.43,267.22c.17.32,1.39,0,2.87,0s2.71.23,2.87-.1c.06-.15-.18-.45-.7-.71a4.66,4.66,0,0,0-2.19-.46,4.74,4.74,0,0,0-2.18.54C361.59,266.76,361.36,267.07,361.43,267.22Z" style="fill:#263238"></path><path d="M349.49,267c.26.29,1.29,0,2.51,0s2.26.26,2.51,0c.11-.14-.05-.43-.49-.72a3.94,3.94,0,0,0-2-.52,3.86,3.86,0,0,0-2,.52C349.53,266.58,349.38,266.87,349.49,267Z" style="fill:#263238"></path><path d="M375.05,275.94c.14-.06,5.63-1.58,5.38,4s-5.8,4.17-5.8,4S375.05,275.94,375.05,275.94Z" style="fill:#ffbf9d"></path><path d="M376.43,281.91s.09.07.25.15a1,1,0,0,0,.73.05,2.41,2.41,0,0,0,1.2-2.11,3.2,3.2,0,0,0-.2-1.4,1.18,1.18,0,0,0-.7-.78.51.51,0,0,0-.59.24c-.08.16-.05.27-.08.28s-.11-.1-.06-.33a.62.62,0,0,1,.24-.34.75.75,0,0,1,.54-.12,1.39,1.39,0,0,1,1,.91A3.34,3.34,0,0,1,379,280a2.54,2.54,0,0,1-1.52,2.35,1,1,0,0,1-.88-.19C376.43,282,376.41,281.92,376.43,281.91Z" style="fill:#ff9a6c"></path><path d="M337,259.13a1.36,1.36,0,0,1,.65-.75,4.17,4.17,0,0,1,2.1-.24,11.77,11.77,0,0,0,5.16-1.07,5.65,5.65,0,0,1-1.45-1.11,3.49,3.49,0,0,1-.86-3.53.78.78,0,0,1,.46-.51c.37-.1.67.27.91.57a3,3,0,0,0,2.78,1.32,5.06,5.06,0,0,0,2.15-.54l.07-.07c.3-.29.6-.56.89-.83h0a18.52,18.52,0,0,1,5.94-4,18.93,18.93,0,0,1,10.15-.36c2.8.87,5.25,3.28,5.52,6.2a5.91,5.91,0,0,1,5.94-.3l.05,0c2.13.87,3.26,3.2,3.8,5.43,0,.12,0,.24.08.36a8.6,8.6,0,0,0,2.78,3c.21.13.44.29.45.53s-.19.42-.39.56a4.5,4.5,0,0,1-1.78.65,10.45,10.45,0,0,0,.65,1.54c.23.43.5.93.27,1.35a.92.92,0,0,1-1,.38,2.68,2.68,0,0,1-1-.5l.65,1.76a5,5,0,0,1-2.34-.26c-.55,2-1.06,5.84-1.65,7.21a8.61,8.61,0,0,0-2.59,0c-1,.28-.68,2-1.92,1.47-.63-.28-1.51-2.74-1.69-3.4a31.76,31.76,0,0,1-.8-13.54,10.24,10.24,0,0,0-3.06-2.41l.09.09c-2.25-.89-4.79-1.78-7-.8-1.71.76-2.77,2.45-4.09,3.79a11.68,11.68,0,0,1-8.79,3.82c-.42,2.45-.69,6.47-.91,8.76L345.47,269v0a8.63,8.63,0,0,1-.38-.83l0-.09h0c-.19-.45-.36-.89-.59-1.33h0a1.43,1.43,0,0,1-2-2,3.26,3.26,0,0,1,.72-.67,2.27,2.27,0,0,1-2.18.47,1.78,1.78,0,0,1-1.19-1.82,1.5,1.5,0,0,1,1-1.17,5.12,5.12,0,0,1-2.88-.77A1.49,1.49,0,0,1,337,259.13Z" style="fill:#263238"></path><path d="M368.83,255a6.77,6.77,0,0,1,.79.78,5.8,5.8,0,0,1,1.13,2.77,9.21,9.21,0,0,1,.12,2.08c0,.75-.12,1.55-.21,2.4a20.5,20.5,0,0,0-.18,2.67,9.84,9.84,0,0,0,.12,1.42,3,3,0,0,0,.52,1.39,1.25,1.25,0,0,0,1.14.44,1.9,1.9,0,0,0,1.06-.54,4.23,4.23,0,0,0,.87-2H374a6.48,6.48,0,0,0,.92,1.75,2.38,2.38,0,0,0,1.55.93,1.54,1.54,0,0,0,.85-.11,1.38,1.38,0,0,0,.59-.53,1.49,1.49,0,0,0,.21-.72,1.06,1.06,0,0,0-.24-.65l-.09.08a5.44,5.44,0,0,0,1.7,1.39,4.45,4.45,0,0,0,.53.23l.19.06s-.06,0-.18-.09a4.12,4.12,0,0,1-.51-.26,5.32,5.32,0,0,1-1.64-1.4l-.09.07a1,1,0,0,1,0,1.21,1.18,1.18,0,0,1-.53.48,1.42,1.42,0,0,1-.77.09,2.29,2.29,0,0,1-1.44-.88,6.79,6.79,0,0,1-.88-1.72l-.11-.26-.07.28a4.08,4.08,0,0,1-.83,1.95,1.7,1.7,0,0,1-.95.48,1,1,0,0,1-1-.37,2.81,2.81,0,0,1-.48-1.3,9.55,9.55,0,0,1-.12-1.39,20.51,20.51,0,0,1,.16-2.65c.09-.85.18-1.66.2-2.42a10.11,10.11,0,0,0-.14-2.11,5.82,5.82,0,0,0-1.21-2.78A3.29,3.29,0,0,0,368.83,255Z" style="fill:#455a64"></path><path d="M343.25,261.87s0,0,.07.06l.19.16.34.24a5,5,0,0,0,.49.28,7.3,7.3,0,0,0,3.46.78,9.25,9.25,0,0,0,5-1.61,16,16,0,0,0,4.44-4.69c.64-1,1.16-2,1.74-2.87a11,11,0,0,1,1.93-2.41,5.64,5.64,0,0,1,2.41-1.32,3.75,3.75,0,0,1,1.24-.09,4.45,4.45,0,0,1,1.13.27,4.7,4.7,0,0,1,1.66,1.09,4.87,4.87,0,0,1,.87,1.24,5.45,5.45,0,0,1,.37,1.24.62.62,0,0,0,0-.09,1.29,1.29,0,0,0,0-.25,4,4,0,0,0-.27-.93,4.41,4.41,0,0,0-.86-1.28,4.62,4.62,0,0,0-1.68-1.15,4.7,4.7,0,0,0-1.16-.29,4.42,4.42,0,0,0-1.3.08,5.71,5.71,0,0,0-2.49,1.35,11.09,11.09,0,0,0-2,2.44c-.58.92-1.11,1.91-1.74,2.86a15.94,15.94,0,0,1-4.38,4.65,9.13,9.13,0,0,1-4.9,1.62,7.32,7.32,0,0,1-3.43-.71A11,11,0,0,1,343.25,261.87Z" style="fill:#455a64"></path><path d="M342.67,258.26s.09.08.28.21a5.82,5.82,0,0,0,.85.48,8.54,8.54,0,0,0,1.35.51,9.82,9.82,0,0,0,1.74.31,9.3,9.3,0,0,0,1.77,0,7.81,7.81,0,0,0,1.42-.3,7,7,0,0,0,.91-.34l.31-.17s-.48.17-1.26.38a9,9,0,0,1-1.4.26,10.93,10.93,0,0,1-1.73,0,10.31,10.31,0,0,1-1.71-.29,10,10,0,0,1-1.35-.46C343.11,258.51,342.68,258.23,342.67,258.26Z" style="fill:#455a64"></path><path d="M357.08,284.53c.07-.2,1.36.38,2.77-.31s1.89-2.12,2.07-2.05.11.42-.13,1a3.56,3.56,0,0,1-1.66,1.74,3.08,3.08,0,0,1-2.29.18C357.28,284.9,357,284.62,357.08,284.53Z" style="fill:#263238"></path><polygon points="352.22 343.92 341.75 344.7 341.75 354.72 353.58 356.13 352.22 343.92" style="fill:#ffbf9d"></polygon><path d="M385.42,304.68c5.17,2.12,10,6.71,9.65,12.65-.46,8.81-2.53,27.71-3,32.58-.63,6.36-2.78,11.71-12.13,12.06s-23.13-1.92-23.13-1.92-4.95,2.51-6.32-.25c-.36-.73-2.82-15.54-2.82-15.54a7.27,7.27,0,0,1,2.95-2.47,4.13,4.13,0,0,1,5.44,1.68h0l18.24-.6,3.61-17.15" style="fill:#e0e0e0"></path><path d="M377.91,325.72s0,.1-.05.29-.09.5-.16.87l-.69,3.37c-.61,3-1.49,7.25-2.61,12.64l0,.08h-.08l-12.81.45-3.66.12-.94,0-.48,0h-.34l-.13-.07h0l-.06-.1a4.1,4.1,0,0,0-1.31-1.31,4,4,0,0,0-3.68-.29,8.24,8.24,0,0,0-1.71,1.06,8.09,8.09,0,0,0-.76.67c-.12.12-.24.24-.35.37l-.16.2c0,.05-.1.17-.09.14v0c.58,3.44,1.2,7.06,1.87,10.8.18.94.36,1.88.53,2.83.1.48.19,1,.3,1.42a1.47,1.47,0,0,0,.25.63,1.79,1.79,0,0,0,.2.28l.24.23a3.52,3.52,0,0,0,2.73.41,11.18,11.18,0,0,0,2.81-.93l.05,0h0c3.71.59,7.62,1.08,11.61,1.46,2.77.25,5.5.43,8.2.48a26,26,0,0,0,7.87-.74,10.36,10.36,0,0,0,3.37-1.77,8.74,8.74,0,0,0,2.35-2.89,19.43,19.43,0,0,0,1.73-7.08c1-9.58,1.9-18.19,2.52-25.45.16-1.81.29-3.54.4-5.17.05-.82.1-1.61.09-2.38,0-.38-.07-.75-.11-1.12s-.14-.72-.22-1.07a11,11,0,0,0-1.69-3.6,16.1,16.1,0,0,0-2.23-2.52,19.07,19.07,0,0,0-3.84-2.64c-.47-.26-.84-.42-1.09-.54l-.38-.18a3.43,3.43,0,0,1,.39.15,12,12,0,0,1,1.11.51,18.2,18.2,0,0,1,3.89,2.61,15.38,15.38,0,0,1,2.28,2.52,11.39,11.39,0,0,1,1.74,3.64c.08.36.16.72.23,1.09s.1.76.11,1.15c0,.78,0,1.57-.07,2.39-.11,1.64-.23,3.37-.38,5.18-.59,7.26-1.47,15.89-2.45,25.46a19.86,19.86,0,0,1-1.75,7.19,9.25,9.25,0,0,1-2.43,3,10.63,10.63,0,0,1-3.48,1.82,26.13,26.13,0,0,1-8,.77c-2.71-.05-5.46-.23-8.23-.48-4-.38-7.91-.88-11.63-1.47h.1a11.73,11.73,0,0,1-2.9.95,3.78,3.78,0,0,1-3-.47l-.29-.27a1.86,1.86,0,0,1-.23-.32,1.74,1.74,0,0,1-.29-.72c-.11-.48-.2-1-.3-1.44-.17-.95-.35-1.9-.52-2.83-.68-3.75-1.28-7.37-1.86-10.82h0a.79.79,0,0,1,.15-.32l.18-.21c.11-.13.24-.26.36-.39a8.48,8.48,0,0,1,.79-.69,8.27,8.27,0,0,1,1.77-1.09,4.28,4.28,0,0,1,4,.31,4.45,4.45,0,0,1,1.39,1.41l.06.11h0c.11.07-.15-.07-.12-.06h.34l.48,0,.94,0,3.66-.11,12.82-.39-.1.08c1.16-5.39,2.07-9.67,2.71-12.62.32-1.46.56-2.58.73-3.36.09-.37.15-.66.2-.86A2.72,2.72,0,0,1,377.91,325.72Z" style="fill:#263238"></path><path d="M384.32,306.11s-.64.69-1.57,1.89a24.19,24.19,0,0,0-1.48,2.19,24.51,24.51,0,0,0-3.06,8.56c-.25,1.5-.3,2.44-.36,2.43a2.39,2.39,0,0,1,0-.66,16.62,16.62,0,0,1,.14-1.8,22,22,0,0,1,3-8.68,19.72,19.72,0,0,1,1.56-2.19,17.85,17.85,0,0,1,1.24-1.32A2.61,2.61,0,0,1,384.32,306.11Z" style="fill:#263238"></path><path d="M382.16,350.54c-.06,0-.2-.63-.62-1.58a10.34,10.34,0,0,0-5.72-5.43c-1-.38-1.62-.48-1.61-.54a1.35,1.35,0,0,1,.46,0,6.43,6.43,0,0,1,1.22.29,8.76,8.76,0,0,1,1.71.76,9.69,9.69,0,0,1,3.31,3.14,9.71,9.71,0,0,1,.85,1.66,7.8,7.8,0,0,1,.35,1.21A1.44,1.44,0,0,1,382.16,350.54Z" style="fill:#263238"></path><path d="M357,359.53s.2-.9.4-2.37a35,35,0,0,0,.33-5.76c0-1.13-.13-2.2-.25-3.17a20.05,20.05,0,0,0-.54-2.53,21.71,21.71,0,0,0-.84-2.23s.15.18.36.54a4.28,4.28,0,0,1,.34.68,7.13,7.13,0,0,1,.36.94,16.67,16.67,0,0,1,.61,2.56,25.69,25.69,0,0,1,.29,3.2,28.87,28.87,0,0,1-.43,5.81,15.7,15.7,0,0,1-.4,1.72A2.88,2.88,0,0,1,357,359.53Z" style="fill:#263238"></path><path d="M285.85,321.76a3.74,3.74,0,0,1,2.12-2.05s7,1.86,9.06,4.12c0,0,.41-1.6,4.18-4.8a16.82,16.82,0,0,1,10-4l3.73,2.34L300,327.82l-4.45,1.55Z" style="fill:#fafafa"></path><path d="M285.85,321.76l.19.13.52.39,2,1.5,7.08,5.49-.12,0,4.44-1.56h0l14.75-10.36.17-.12v.28l-3.73-2.35.08,0a16.71,16.71,0,0,0-8.59,3,25,25,0,0,0-3.17,2.7,17.5,17.5,0,0,0-1.31,1.45,6.49,6.49,0,0,0-1,1.54l-.07.2-.14-.15a9.67,9.67,0,0,0-2.5-1.71c-.86-.43-1.69-.78-2.48-1.09-1.56-.6-2.92-1-4-1.34h0a3.24,3.24,0,0,0-1.73,1.32,5.48,5.48,0,0,0-.31.5.81.81,0,0,1-.1.17.7.7,0,0,1,.07-.19,3.1,3.1,0,0,1,.28-.51,3.23,3.23,0,0,1,1.76-1.42h0c1.09.29,2.46.7,4.05,1.29a26.52,26.52,0,0,1,2.51,1.07,9.61,9.61,0,0,1,2.58,1.74l-.22.06a6.05,6.05,0,0,1,1-1.64,16.47,16.47,0,0,1,1.32-1.48,24.18,24.18,0,0,1,3.2-2.76,17,17,0,0,1,8.76-3.07h.05l0,0,3.73,2.34.21.13-.2.14-.17.12-14.78,10.32h0l-4.44,1.54-.07,0-.05,0-7.06-5.63-1.9-1.54-.49-.4Z" style="fill:#263238"></path><path d="M283.39,321.47l.42-.85,10.51,5.86s3.46-.21,3.53-2.54c0,0,17.22-7.2,17.64-7s28,23.15,28,23.15l-24.9,5.31L307,340.31Z" style="fill:#1F385D"></path><path d="M315.41,344c-.06.07-4.83-3.8-10.65-8.63s-10.49-8.82-10.44-8.89,4.83,3.79,10.65,8.63S315.47,343.93,315.41,344Z" style="fill:#263238"></path><path d="M322.1,344.54c-.05.07-5.48-4.46-12.12-10.11s-12-10.3-11.91-10.37,5.49,4.46,12.12,10.12S322.16,344.47,322.1,344.54Z" style="fill:#263238"></path><path d="M298,331.18c-.08,0-2.42-.23-3,.79a2.4,2.4,0,0,0-.39,2.19,10.5,10.5,0,0,0,1.35,1.9l.38.71a4.49,4.49,0,0,0-.38,2.77,4.17,4.17,0,0,0,1.53,2s.18,3.06,2,3.08a2.32,2.32,0,0,0,2.19,1.69c1.71,0,2.56.4,4.46-.58s4.1-2,4.58-2.94-1.2-1.09-1.2-1.09.92-2.52-2-2.19c0,0,.33-2.6-1.57-2.92a36.54,36.54,0,0,0-5.75-.08l-1.53-1.84s1.11-.31,1.17-1.29A2.33,2.33,0,0,0,298,331.18Z" style="fill:#ffbf9d"></path><path d="M336.7,341.13a9.83,9.83,0,0,1-4,.89c-1.52-.19-13.3-6.65-15-7.16s-4.62,0-2.53,2.22,8.55,5.83,8.68,6a7.93,7.93,0,0,1,.38,1.22l-6.59-2.49s-4.81-2.41-5.57-.95.38,2.28,1.58,2.66,2.53.78,2.53.78a13.46,13.46,0,0,0,2.79,3.59c1.4,1,7.73,5.07,8.81,5.52s14.06,1.45,14.32,1.26,0-9.69,0-9.69l-4.57-4.12Z" style="fill:#ffbf9d"></path><path d="M352.09,393.83c-3.41-1.75.65-15.72.69-15.86,4.13-13.18,16.88-34.5,55.81-29.25l-.53,4c-19.3-2.6-33.84,1.35-43.22,11.75s-10.54,24.74-10,26.85a1.73,1.73,0,0,0-.89-1Z" style="fill:#455a64"></path><path d="M374.07,440l-6.18-22.43-.87,4.82c.15,3.31,1.36,6.47,2.49,9.58s2.2,6.35,2.07,9.66-1.73,6.77-4.7,8.22a13.51,13.51,0,0,0-3.14,1.55c-.89.76-1.26,2.33-.33,3.05s2,.2,2.89-.24c3.57-1.7,7.54-3.87,8.44-7.72C375.24,444.37,374.65,442.14,374.07,440Z" style="fill:#1F385D"></path><g style="opacity:0.30000000000000004"><path d="M374.07,440l-6.18-22.43-.87,4.82c.15,3.31,1.36,6.47,2.49,9.58s2.2,6.35,2.07,9.66-1.73,6.77-4.7,8.22a13.51,13.51,0,0,0-3.14,1.55c-.89.76-1.26,2.33-.33,3.05s2,.2,2.89-.24c3.57-1.7,7.54-3.87,8.44-7.72C375.24,444.37,374.65,442.14,374.07,440Z"></path></g><path d="M361.18,457.35A6.06,6.06,0,0,0,366.6,452c1.16-9.78,2.06-19.59,2.64-29.41.55-9.25-1.57-10.8-4.65-11.6a39.39,39.39,0,0,0-10.62-.8c-6.19.51-10.45.73-11.91,4.69-1.19,3.21-3.11,10.31-4.12,13.41a3,3,0,0,1-1.71,1.85c-1.64.69-4.39,1.94-5.19,3-2.54,3.24-2.85,6.54-3.64,10.57a47,47,0,0,0-1.23,9.49,4.2,4.2,0,0,0,3.44,4.18l.31,0c1.75.1,28.61.2,31.18,0Z" style="fill:#1F385D"></path><path d="M364.07,410.91a2.68,2.68,0,0,1,0,.48q0,.53,0,1.38c0,1.19-.11,2.91-.24,5-.27,4.25-.82,10.12-1.77,16.55s-2.1,12.22-3,16.38c-.46,2.08-.85,3.76-1.13,4.92-.14.54-.25,1-.34,1.33a2.19,2.19,0,0,1-.14.45,2.4,2.4,0,0,1,.07-.47l.27-1.34c.25-1.21.6-2.89,1-4.94.85-4.18,2-9.95,2.91-16.38s1.54-12.28,1.87-16.52c.17-2.12.29-3.84.36-5,0-.57.07-1,.09-1.37A3.23,3.23,0,0,1,364.07,410.91Z" style="fill:#263238"></path><path d="M351.63,457.27a2.13,2.13,0,0,1,0-.45c0-.34.1-.76.17-1.29.14-1.11.36-2.72.59-4.72s.49-4.37.73-7c.12-1.32.23-2.71.33-4.15a8.64,8.64,0,0,0-.5-4.3,4.54,4.54,0,0,0-3.4-2.38,24,24,0,0,0-4.12-.2c-2.65.06-5.05.09-7.06.08s-3.63,0-4.75.08l-1.3,0h-.45a2.16,2.16,0,0,1,.45-.07l1.29-.11c1.12-.09,2.75-.17,4.76-.2s4.39-.08,7-.16a25.22,25.22,0,0,1,4.2.19,5.9,5.9,0,0,1,2.1.82,4.05,4.05,0,0,1,1.55,1.75,9,9,0,0,1,.54,4.48c-.11,1.45-.23,2.84-.36,4.16-.25,2.65-.53,5-.8,7s-.52,3.6-.71,4.7l-.24,1.28A1.68,1.68,0,0,1,351.63,457.27Z" style="fill:#263238"></path><path d="M342.89,413.23l.16-.05.46-.12c.41-.1,1-.22,1.81-.35a67.47,67.47,0,0,1,6.73-.65c1.43-.08,3-.13,4.67-.15a7.67,7.67,0,0,1,2.62.28,3.24,3.24,0,0,1,2,2,8,8,0,0,1,.41,2.92c0,1-.06,2-.16,3-.18,2.05-.51,4.16-.84,6.31-1.35,8.61-2.89,16.34-3.89,22-.49,2.78-.89,5.05-1.18,6.65-.13.76-.24,1.37-.31,1.81l-.09.47c0,.11,0,.16-.05.16s0-.06,0-.17l0-.47c.07-.45.15-1.06.25-1.82.23-1.58.59-3.86,1.07-6.68.93-5.63,2.43-13.37,3.78-22,.33-2.15.66-4.25.85-6.28.09-1,.15-2,.16-3a7.82,7.82,0,0,0-.37-2.8,2.93,2.93,0,0,0-1.77-1.8,7.43,7.43,0,0,0-2.52-.28c-1.67,0-3.23.05-4.66.11-2.85.11-5.14.33-6.72.53-.79.11-1.4.21-1.82.28l-.47.09Z" style="fill:#263238"></path><path d="M353.6,439.87c0,.1-5.67.18-12.68.18s-12.68-.08-12.68-.18,5.68-.18,12.68-.18S353.6,439.77,353.6,439.87Z" style="fill:#fff"></path><path d="M349.05,440.09a2.13,2.13,0,0,1,.57,1.06,4.16,4.16,0,0,1,.18,1.3,2.15,2.15,0,0,1-.14.8.92.92,0,0,1-.75.59.61.61,0,0,1-.51-.18.82.82,0,0,1-.23-.44,3.1,3.1,0,0,1,0-.81,7.12,7.12,0,0,1,.28-1.27,2.71,2.71,0,0,1,.53-1.07,8.34,8.34,0,0,1-.28,1.14,7.74,7.74,0,0,0-.19,1.24,2.73,2.73,0,0,0,0,.7c0,.22.17.35.36.33.44,0,.58-.59.59-1a5.15,5.15,0,0,0-.1-1.23C349.22,440.52,349,440.12,349.05,440.09Z" style="fill:#263238"></path><polygon points="353.2 420.37 345.17 420.37 345.78 418.22 354.05 418.22 353.2 420.37" style="fill:#fff"></polygon><path d="M347,448.89a1.8,1.8,0,0,1-.35.14,9.07,9.07,0,0,1-1.05.31,6.17,6.17,0,0,1-1.72.17,3,3,0,0,1-2.1-.95,1.61,1.61,0,0,1-.38-1.34,1.22,1.22,0,0,1,1.23-.88.84.84,0,0,1,.73.48,1.12,1.12,0,0,1,0,.88,2.94,2.94,0,0,1-1.11,1.28,3.85,3.85,0,0,1-1.63.7,2.69,2.69,0,0,1-1.83-.37,2,2,0,0,1-1-1.66,1.65,1.65,0,0,1,1.06-1.68.91.91,0,0,1,1.06.3,1.3,1.3,0,0,1,.14,1.06,3,3,0,0,1-1.16,1.56,2.75,2.75,0,0,1-1.8.49,2.58,2.58,0,0,1-1.61-.77,2.26,2.26,0,0,1,0-3.09,1.41,1.41,0,0,1,1.47-.37.87.87,0,0,1,.51.57,1.22,1.22,0,0,1,0,.71,2.65,2.65,0,0,1-.61,1.08,6.22,6.22,0,0,1-.77.77,6.42,6.42,0,0,1-1.47.92,5.28,5.28,0,0,1-1,.34,1.29,1.29,0,0,1-.37,0,13.52,13.52,0,0,0,1.35-.52,7.12,7.12,0,0,0,1.4-.94,6.6,6.6,0,0,0,.72-.76,2.5,2.5,0,0,0,.54-1,.76.76,0,0,0-.36-1,1.11,1.11,0,0,0-1.14.32,2,2,0,0,0,.06,2.65,2.29,2.29,0,0,0,1.41.65,2.35,2.35,0,0,0,1.56-.44,2.5,2.5,0,0,0,1-1.35.93.93,0,0,0-.07-.76.58.58,0,0,0-.66-.17,1.31,1.31,0,0,0-.81,1.33A1.67,1.67,0,0,0,339,449a2.38,2.38,0,0,0,1.6.32,3.42,3.42,0,0,0,1.48-.62,2.69,2.69,0,0,0,1-1.12.63.63,0,0,0-.45-.95.92.92,0,0,0-.93.64,1.34,1.34,0,0,0,.3,1.12,2.82,2.82,0,0,0,1.91.91,6.17,6.17,0,0,0,1.68-.11C346.5,449,347,448.86,347,448.89Z" style="fill:#fff"></path><rect x="428.22" y="396.16" width="10.2" height="61.81" transform="translate(866.65 854.13) rotate(180)" style="fill:#e0e0e0"></rect><rect x="499.33" y="396.16" width="10.2" height="61.81" transform="translate(1008.86 854.13) rotate(180)" style="fill:#e0e0e0"></rect><polygon points="553.94 314.82 547.05 355.87 540.14 397.06 421.23 397.15 421.23 390.85 468.93 390.82 482.83 314.82 553.94 314.82" style="fill:#455a64"></polygon><path d="M497.71,388.71a29.63,29.63,0,0,1,.19-4.36A53.14,53.14,0,0,1,500.7,372c9.68-27,33.95-27.53,47.56-25.42l-.33,2.1-.28,1.86c-15.3-2.38-27.16.79-35.24,9.42-10.65,11.37-10.95,27.83-10.63,29.24" style="fill:#455a64"></path><path d="M501.78,389.21a2.07,2.07,0,0,1-.07-.35c0-.24,0-.59,0-1.05a35,35,0,0,1,.24-4,48.48,48.48,0,0,1,1.15-6.29,44.51,44.51,0,0,1,2.81-8,37.19,37.19,0,0,1,5.57-8.7,31.22,31.22,0,0,1,4.15-4,32.73,32.73,0,0,1,5.17-3.34,35.65,35.65,0,0,1,12.69-3.61,56.22,56.22,0,0,1,14.25.5l-.3.22c.19-1.25.4-2.6.61-4l.22.3-1.16-.16c-10.2-1.45-20.41-.28-28.35,3.87a35.8,35.8,0,0,0-5.48,3.5l-2.35,2.06a9.08,9.08,0,0,0-1.06,1.09l-1,1.12-1,1.09c-.32.37-.57.79-.85,1.17-.56.78-1.1,1.55-1.63,2.3s-.9,1.59-1.34,2.36-.87,1.52-1.24,2.28a53,53,0,0,0-4.58,15.31c-.26,1.88-.38,3.35-.43,4.35,0,.5,0,.88,0,1.13a2.29,2.29,0,0,1,0,.39,2.33,2.33,0,0,1,0-.39c0-.25,0-.63,0-1.13a40.86,40.86,0,0,1,.33-4.37,51.68,51.68,0,0,1,4.45-15.44c.36-.77.81-1.53,1.23-2.32s.83-1.6,1.34-2.38,1.08-1.54,1.63-2.34c.29-.39.54-.81.86-1.18l1-1.12,1-1.13a10.19,10.19,0,0,1,1.07-1.11l2.37-2.1a37.63,37.63,0,0,1,5.55-3.57c8-4.23,18.36-5.42,28.64-3.95l1.17.16.26,0,0,.26c-.21,1.36-.42,2.71-.62,4l0,.25-.25,0a56.17,56.17,0,0,0-14.12-.51A35.14,35.14,0,0,0,521,353.82a32.29,32.29,0,0,0-5.11,3.27,30.33,30.33,0,0,0-4.1,4,37.66,37.66,0,0,0-5.57,8.57,44.61,44.61,0,0,0-2.86,7.94,51,51,0,0,0-1.23,6.24A29.9,29.9,0,0,0,501.78,389.21Z" style="fill:#263238"></path><polygon points="482.83 314.82 475.94 355.87 469.03 397.06 350.12 397.15 350.12 390.85 397.83 390.82 414.47 314.88 482.83 314.82" style="fill:#455a64"></polygon><path d="M406.85,411.1l.1-3.79s-11.22.52-11.15.64,1.25,5.78,1.25,5.78l6.11,2Z" style="fill:#e0e0e0"></path><path d="M408.1,416.74c-.1.88-10,9.72-12.81,12.08a1.92,1.92,0,0,1-1.6.41h0a1.64,1.64,0,0,1-1.31-2.1l4.32-13.63a3.21,3.21,0,0,0-.24-1.83c1.61.49,6.86-.07,10.44-1.61l.33,2.16,1,3.22a5.61,5.61,0,0,1-.15,1.3" style="fill:#455a64"></path><path d="M398.11,420.43a12.9,12.9,0,0,0-1.48-1,15.29,15.29,0,0,0-1.7-.52,2.33,2.33,0,0,1,1.85.22C397.75,419.59,398.19,420.39,398.11,420.43Z" style="fill:#263238"></path><path d="M398.74,418.64a15.46,15.46,0,0,0-1.48-1,15.09,15.09,0,0,0-1.71-.52,2.91,2.91,0,0,1,3.19,1.52Z" style="fill:#263238"></path><path d="M393.28,429.1a1.83,1.83,0,0,0,2.06-.28c7.71-6.59,12.29-10.62,13.36-12.29l-.59-1.52Z" style="fill:#e0e0e0"></path><path d="M399.42,416.84a12.9,12.9,0,0,0-1.48-1,15.29,15.29,0,0,0-1.7-.52,2.36,2.36,0,0,1,1.85.23C399.06,416,399.5,416.81,399.42,416.84Z" style="fill:#263238"></path><path d="M388.58,411.1l.1-3.79s-11.22.52-11.15.64,1.25,5.78,1.25,5.78l6.11,2Z" style="fill:#e0e0e0"></path><path d="M389.83,416.74c-.1.88-10,9.72-12.81,12.08a1.91,1.91,0,0,1-1.6.41h0a1.64,1.64,0,0,1-1.31-2.1l4.33-13.63a3.37,3.37,0,0,0-.25-1.83c1.61.49,6.86-.07,10.44-1.61l.33,2.16,1,3.22a5.61,5.61,0,0,1-.15,1.3" style="fill:#455a64"></path><path d="M379.84,420.43a13.3,13.3,0,0,0-1.47-1,15.09,15.09,0,0,0-1.71-.52,2.33,2.33,0,0,1,1.85.22C379.48,419.59,379.92,420.39,379.84,420.43Z" style="fill:#263238"></path><path d="M380.47,418.64a15.46,15.46,0,0,0-1.48-1,15.09,15.09,0,0,0-1.71-.52,2.91,2.91,0,0,1,3.19,1.52Z" style="fill:#263238"></path><path d="M375,429.1a1.85,1.85,0,0,0,2.07-.28c7.7-6.59,12.28-10.62,13.35-12.29l-.58-1.52Z" style="fill:#e0e0e0"></path><path d="M381.15,416.84a13.3,13.3,0,0,0-1.47-1,15.09,15.09,0,0,0-1.71-.52,2.36,2.36,0,0,1,1.85.23C380.79,416,381.23,416.81,381.15,416.84Z" style="fill:#263238"></path><path d="M422.33,325.61c-.11-3.07-.23-6.14-.34-9.21-.18-4.65-.35-11-2.09-15.21-2.55-6.26-11-9.51-17.48-8.86-5.92.6-9.1,2.18-11.86,7.79s-3.32,15.35-3.28,21.6a4.41,4.41,0,0,0,.54,2.56,4,4,0,0,0,2.29,1.3l12.43,3.75,7.56-1.16a18.23,18.23,0,0,0,9.85.64,3,3,0,0,0,2-1.12A3.56,3.56,0,0,0,422.33,325.61Z" style="fill:#263238"></path><path d="M392,303.08c1-4.55,6.59-8.33,11-7.09l8.57,3.23a7,7,0,0,1,4.32,7.88l-2.29,5-3.6,21.74.69.39s-2.85,9.68-10.87,7.74c-7.2-1.74-4-10.33-4-10.34l1-5.7a9.49,9.49,0,0,1-7.1-9.5C389.68,312.53,390.83,308.14,392,303.08Z" style="fill:#ffbf9d"></path><path d="M392.32,310.12a1,1,0,0,0,.76,1.15.93.93,0,0,0,1.13-.72,1,1,0,0,0-.76-1.15A.93.93,0,0,0,392.32,310.12Z" style="fill:#263238"></path><path d="M392.57,307.56c.1.13.8-.28,1.72-.14s1.54.71,1.65.61,0-.27-.29-.54a2.37,2.37,0,0,0-1.3-.63,2.15,2.15,0,0,0-1.39.26C392.65,307.3,392.53,307.5,392.57,307.56Z" style="fill:#263238"></path><path d="M400.89,311.68a1,1,0,0,0,.77,1.15.94.94,0,0,0,1.13-.72A1,1,0,0,0,402,311,.94.94,0,0,0,400.89,311.68Z" style="fill:#263238"></path><path d="M402,308.89c.1.14.81-.27,1.72-.14s1.54.72,1.65.61,0-.27-.29-.54a2.37,2.37,0,0,0-1.3-.63,2.15,2.15,0,0,0-1.39.26C402.11,308.64,402,308.83,402,308.89Z" style="fill:#263238"></path><path d="M397.86,315.64a9.6,9.6,0,0,0-1.63-.54c-.26-.06-.5-.15-.52-.3s.1-.37.26-.59l1-1.45c.37-.52,2.29-3.53,2.36-3.84a23.57,23.57,0,0,0-2.76,3.65l-1,1.46a1,1,0,0,0-.26.8.71.71,0,0,0,.38.38,2.58,2.58,0,0,0,.44.13A8.08,8.08,0,0,0,397.86,315.64Z" style="fill:#263238"></path><path d="M396.7,326a18.71,18.71,0,0,0,10.43-1.06s-3.39,5.05-10.74,3.07Z" style="fill:#ff9a6c"></path><path d="M402.19,306.22c.07.35,1,.26,2.06.51s1.89.73,2.06.43c.07-.14-.05-.47-.38-.83a3,3,0,0,0-1.49-.85,2.56,2.56,0,0,0-1.64.14C402.39,305.81,402.17,306.06,402.19,306.22Z" style="fill:#263238"></path><path d="M392.81,304.22c.12.32.92.21,1.81.42s1.58.59,1.83.34.05-.43-.21-.78a2.38,2.38,0,0,0-1.36-.82,2.33,2.33,0,0,0-1.57.2C392.93,303.8,392.76,304.06,392.81,304.22Z" style="fill:#263238"></path><path d="M415.94,310.05a15.57,15.57,0,0,0,.49-4.4,9.5,9.5,0,0,0-2.1-5.47,12.68,12.68,0,0,0-3.82-3.27,13.08,13.08,0,0,0-7.46-1.61c-1.83,0-2.06-.29-3.81.24L398,296c.53,3.4,9.67,12.19,13.07,14a27.94,27.94,0,0,0,0,3.3,2.39,2.39,0,0,0,.54,1.45,1.69,1.69,0,0,0,1.8.33c.61-.23.82-.61,1.18-1.16A10.79,10.79,0,0,0,415.94,310.05Z" style="fill:#263238"></path><path d="M413.61,312.53s4.73-1,3.8,3.65-5.29,2.73-5.27,2.6S413.61,312.53,413.61,312.53Z" style="fill:#ffbf9d"></path><path d="M413.88,317.31s.06.07.18.16a.8.8,0,0,0,.59.14c.52-.08,1.07-.78,1.27-1.61a2.91,2.91,0,0,0,0-1.21,1,1,0,0,0-.47-.75.41.41,0,0,0-.51.13c-.09.12-.08.21-.1.22s-.08-.1,0-.29a.63.63,0,0,1,.24-.25.6.6,0,0,1,.46,0,1.18,1.18,0,0,1,.68.9,2.92,2.92,0,0,1,0,1.35c-.22.93-.86,1.71-1.55,1.77a.84.84,0,0,1-.7-.28C413.86,317.42,413.86,317.31,413.88,317.31Z" style="fill:#ff9a6c"></path><path d="M398.07,318s.18.17.56.24a2.26,2.26,0,0,0,2.45-1.4c.13-.36.11-.6.07-.61s-.11.21-.29.51a2.59,2.59,0,0,1-.93.94,2.68,2.68,0,0,1-1.28.32C398.31,318,398.09,318,398.07,318Z" style="fill:#263238"></path><path d="M409.4,307.58a31.46,31.46,0,0,1-2.35,20.61,9.75,9.75,0,0,1,2.41.08,2.88,2.88,0,0,0,2.26-.63,3.44,3.44,0,0,0,.72-1.95,109,109,0,0,0,1-16.84" style="fill:#263238"></path><path d="M409.46,328.27a2.36,2.36,0,0,1,.1-.39l.33-1.08c.31-1,.74-2.32,1.26-4a35.75,35.75,0,0,0,1-6.09c.22-2.32.37-4.87.48-7.56l0-.86.08.13a26.69,26.69,0,0,1-6-4.2,39.07,39.07,0,0,1-4-4.34c-1.06-1.31-1.86-2.41-2.4-3.18l-.61-.88a2.21,2.21,0,0,1-.2-.32s.09.09.24.28.38.51.66.86c.56.75,1.38,1.82,2.45,3.11a44,44,0,0,0,4.05,4.29,26.62,26.62,0,0,0,5.93,4.13l.08,0v.09c0,.27,0,.57,0,.86-.11,2.69-.28,5.25-.51,7.57a35,35,0,0,1-1,6.13L410,326.83c-.16.45-.28.8-.38,1.07A2.57,2.57,0,0,1,409.46,328.27Z" style="fill:#455a64"></path><path d="M415.11,308.36a.89.89,0,0,0-.59-.51,3,3,0,0,0-.79-.07,11.79,11.79,0,0,0-3.7.46.71.71,0,0,0,0,1.39,2.31,2.31,0,0,0,.64.05l2.82-.1a2.67,2.67,0,0,0,1.16-.23A.88.88,0,0,0,415.11,308.36Z" style="fill:#1F385D"></path><g style="opacity:0.30000000000000004"><path d="M404.5,314.77a1.54,1.54,0,0,0-.82-.56,3.5,3.5,0,0,0-.79,0,1.14,1.14,0,0,0-.7.32.68.68,0,0,0-.13.73,1,1,0,0,0,.48.39,2.87,2.87,0,0,0,1,.24,1.09,1.09,0,0,0,.88-.25A.66.66,0,0,0,404.5,314.77Z" style="fill:#ff9a6c"></path></g><path d="M410.52,330.2c.74,0,8.72,2.9,10.49,5.38s1.29,33.57,1.29,33.57L387.25,368l1-19.47-2.65-10.63a17.37,17.37,0,0,1,10.46-6.77s1.32,2.07,5.89,1.11S410.52,330.2,410.52,330.2Z" style="fill:#fff"></path><polygon points="375.42 370.49 372.24 384.68 382.01 383.96 386.84 368.82 375.42 370.49" style="fill:#ffbf9d"></polygon><path d="M385.63,337.94c-3.67,8.4-7.42,20.64-11.19,33.69l6.48,2.51,7.36-7.07,1.77-21.81Z" style="fill:#fff"></path><path d="M364.51,387.13s-.35-.61.6-1.21,1.72-1,1.72-1-.35-2.15,1-2.23,6.1,0,6.1,0l7.14,1.22s.25,1.72-2.15,2.82c-5.41,2.47-5.44,1-5.44,1l.8-1.21s-1.47,1.38-2.41,1.29a2.61,2.61,0,0,1-1.63-1s-.09,1.39-1.29,1a2.24,2.24,0,0,1-1.46-1.64S367,387.81,364.51,387.13Z" style="fill:#ffbf9d"></path><path d="M424,369.17c-.14-1.39,1.63,9.73-1.47,13.78s-6.33,5.18-13.84,5.18l.13,21.88-14.15.43s-2.62-18.65-3.36-24.52-2.8-8,5.74-12.18l2.36-.78.29-5.18Z" style="fill:#1F385D"></path><path d="M406.43,367.36c-.14-1.39,1.63,9.73-1.47,13.78s-6.33,5.18-13.84,5.18L391,409.08l-15.61,1c-1.5-14.9-.91-18.11-1.72-24.58-.74-5.88-1.27-11.26,5.77-13.57l7.77-3.12.13-3.58Z" style="fill:#1F385D"></path><path d="M423.68,369.68c-.56,0-10-2.79-10.75-5.06s-2.73-16.72-2.73-16.72l-21.8-.68-1.24,21.35,7.59,5Z" style="fill:#1F385D"></path><path d="M418.06,333.24s-5.58,4.48-7.47,8.45a21.12,21.12,0,0,0-1.89,8.1h-4.87s1.34-13.49,11.16-18.05Z" style="fill:#1F385D"></path><path d="M394.36,331.15a38,38,0,0,0-.86,18.24h-3.81c-1.2-2.7.22-15.22,1-16.5A24.87,24.87,0,0,1,394.36,331.15Z" style="fill:#1F385D"></path><path d="M403.51,372.25a3.59,3.59,0,0,0-.92,0c-.6.05-1.45.13-2.51.3a16.33,16.33,0,0,0-3.62,1,9.46,9.46,0,0,0-3.75,2.69,8.39,8.39,0,0,0-1.74,4.27,17.76,17.76,0,0,0,0,3.76c.11,1.06.24,1.91.33,2.5a5,5,0,0,0,.19.9,3.77,3.77,0,0,0-.05-.92c-.05-.59-.14-1.45-.21-2.5a18.35,18.35,0,0,1,0-3.7A8.2,8.2,0,0,1,393,376.5a9.32,9.32,0,0,1,3.6-2.61,16.23,16.23,0,0,1,3.54-1.05c1-.21,1.89-.33,2.47-.42A5.27,5.27,0,0,0,403.51,372.25Z" style="fill:#263238"></path><path d="M389.81,370.88A17.78,17.78,0,0,1,393,372a18.12,18.12,0,0,1,2.76,2,6.94,6.94,0,0,0-6-3Z" style="fill:#263238"></path><path d="M389.71,368.87a3.53,3.53,0,0,0,.84.18c.54.09,1.34.19,2.32.29a52.37,52.37,0,0,0,15.33-.81c1-.2,1.74-.39,2.27-.54a3.49,3.49,0,0,0,.82-.26,4,4,0,0,0-.85.13c-.54.1-1.32.25-2.29.41a63,63,0,0,1-15.26.81c-1-.06-1.78-.12-2.32-.17A4.29,4.29,0,0,0,389.71,368.87Z" style="fill:#263238"></path><path d="M405.75,349.17a.86.86,0,1,0,.86-.81A.83.83,0,0,0,405.75,349.17Z" style="fill:#263238"></path><path d="M390.72,348.54a.86.86,0,1,0,.86-.8A.83.83,0,0,0,390.72,348.54Z" style="fill:#263238"></path><path d="M418.8,387.93s-.35-.6.6-1.21,1.72-1,1.72-1-.35-2.15,1-2.23,6.1,0,6.1,0l7.14,1.22s.25,1.72-2.15,2.82c-5.41,2.47-5.44,1-5.44,1l.8-1.2s-1.47,1.37-2.41,1.28a2.61,2.61,0,0,1-1.63-1s-.09,1.39-1.29,1a2.24,2.24,0,0,1-1.46-1.64S421.29,388.61,418.8,387.93Z" style="fill:#ffbf9d"></path><polygon points="432.2 370.49 435.39 384.68 425.61 383.96 420.79 368.82 432.2 370.49" style="fill:#ffbf9d"></polygon><path d="M434.3,371.59s-3.71-12.92-6-20.55c-4.41-14.55-7.82-16.07-7.82-16.07s-7,7.5-7.26,12.33,5.55,22.1,8.55,26.85Z" style="fill:#fff"></path><path d="M412.82,349a6.28,6.28,0,0,0,.26,1c.21.72.48,1.64.82,2.76l2.81,9c.53,1.77,1,3.47,1.48,5a34.74,34.74,0,0,0,1.52,4,21.2,21.2,0,0,0,1.39,2.53,5,5,0,0,0,.64.84,6.88,6.88,0,0,0-.52-.92,23.91,23.91,0,0,1-1.27-2.55,39.56,39.56,0,0,1-1.44-4c-.47-1.52-.92-3.23-1.45-5-1.09-3.54-2.16-6.71-2.92-9-.37-1.1-.69-2-.93-2.72A5.24,5.24,0,0,0,412.82,349Z" style="fill:#263238"></path><path d="M412.43,343.57c.07,0,.25-.65.75-1.64a12.22,12.22,0,0,1,1-1.64,14,14,0,0,1,1.58-1.75,12.84,12.84,0,0,1,3.6-2.31c1-.44,1.69-.6,1.67-.67a1.46,1.46,0,0,0-.48.06,7.92,7.92,0,0,0-1.28.37,11.44,11.44,0,0,0-3.75,2.28,12.59,12.59,0,0,0-1.61,1.82,10.1,10.1,0,0,0-1,1.73,7.13,7.13,0,0,0-.44,1.26A1.59,1.59,0,0,0,412.43,343.57Z" style="fill:#263238"></path><path d="M426.58,388.8a25.4,25.4,0,0,1,.21-4.07,52.79,52.79,0,0,1,2.8-12.35c9.68-27,33.82-27.6,47.42-25.49l-.44,2.09-.39,1.89c-15.3-2.38-26.8.85-34.89,9.48-10.65,11.36-11,27-10.69,28.45" style="fill:#455a64"></path><path d="M430.6,388.8a1.55,1.55,0,0,1-.07-.34c0-.23,0-.58,0-1a30.81,30.81,0,0,1,.26-4,46.09,46.09,0,0,1,4.11-14,38.08,38.08,0,0,1,5.62-8.48,31.15,31.15,0,0,1,9.19-7.27,35.09,35.09,0,0,1,12.5-3.59,55.57,55.57,0,0,1,14.05.5l-.3.2c.27-1.26.55-2.61.84-4l.21.32-1.46-.2c-10.11-1.39-20.23-.17-28.06,4a35.36,35.36,0,0,0-5.41,3.5l-2.32,2.05a10.79,10.79,0,0,0-1.06,1.08l-1,1.11-1,1.09c-.32.37-.57.78-.85,1.16-.55.78-1.09,1.54-1.61,2.29-.95,1.56-1.76,3.12-2.56,4.59A53.12,53.12,0,0,0,427.1,383c-.27,1.86-.4,3.32-.47,4.31,0,.49,0,.87,0,1.12a2.21,2.21,0,0,1,0,.38,1.25,1.25,0,0,1,0-.38,9.82,9.82,0,0,1,0-1.13c0-1,.13-2.45.36-4.32a52.24,52.24,0,0,1,4.46-15.3c.79-1.49,1.6-3.07,2.55-4.65l1.61-2.32c.29-.38.54-.8.85-1.17l1-1.11,1-1.13a9.16,9.16,0,0,1,1.06-1.1l2.34-2.09a36.29,36.29,0,0,1,5.47-3.57c7.94-4.25,18.17-5.5,28.36-4.1l1.47.2.27,0-.05.27c-.29,1.37-.57,2.72-.84,4l-.05.24-.24,0a55.53,55.53,0,0,0-13.92-.51,34.83,34.83,0,0,0-12.34,3.5,31.13,31.13,0,0,0-9.09,7.13,37.94,37.94,0,0,0-5.61,8.37A46.86,46.86,0,0,0,431,383.5,27.3,27.3,0,0,0,430.6,388.8Z" style="fill:#263238"></path><path d="M540.63,388.8c0,.15-29.53.27-65.94.27s-66-.12-66-.27,29.52-.26,66-.26S540.63,388.66,540.63,388.8Z" style="fill:#263238"></path><line x1="483.7" y1="314.98" x2="468.23" y2="388.8" style="fill:#455a64"></line><path d="M468.23,388.8c-.14,0,3.21-16.58,7.48-37s7.84-36.89,8-36.86-3.21,16.58-7.48,37S468.37,388.83,468.23,388.8Z" style="fill:#263238"></path></g><g id="freepik--character-1--inject-20"><path d="M89,188.59A4.46,4.46,0,0,0,85.4,187a2.5,2.5,0,0,1-1.61-.17,3.66,3.66,0,0,1-.7-.94,2.24,2.24,0,0,0-3.21-.33,2.57,2.57,0,0,1-.67.57c-1.11.48-2.14-1.61-3.24-1.12a2.52,2.52,0,0,1,1.11,1,1.13,1.13,0,0,1-.23,1.39c-1.07.81-2.56-1.28-3.72-.63-.63.34-.79,1.35-1.5,1.47a2.53,2.53,0,0,1-.81-.12,1.84,1.84,0,0,0-2.07,1.43c-.14.78.18,1.78-.45,2.26a1.73,1.73,0,0,1-1.43.1,4.86,4.86,0,0,0,.36,2.13,2.88,2.88,0,0,0-1.25,3.8,6.14,6.14,0,0,0-1.79,1.57,2.16,2.16,0,0,0-.18,2.26,2.2,2.2,0,0,1,.27.47,1.05,1.05,0,0,1,0,.58,10.59,10.59,0,0,0-.62,2.18c0,.76.47,1.63,1.22,1.62.18,0,.38,0,.52.06a.5.5,0,0,1,.16.36,5.28,5.28,0,0,1-.24,1.61,2.18,2.18,0,0,0,.13,1.59.94.94,0,0,0,1.39.27L66,212.91a1.55,1.55,0,0,0,0,1.48c.44.51,1.33.2,1.74-.35s.55-1.24,1-1.78a3.94,3.94,0,0,0,.51-.65c.1-.2.14-.44.32-.56.36-.26.85.25.77.69a2.41,2.41,0,0,1-.75,1.06,1.13,1.13,0,0,0-.37,1.18c.1.19.28.32.37.52.31.66-.67,1.22-.84,1.93a1.78,1.78,0,0,0,.59,1.46c.43.5,1.31.94,1.65.37a5,5,0,0,0,.19-.66,1.7,1.7,0,0,1,.57-.56,3.39,3.39,0,0,0,1.14-1.62c-.6.65-1.26,1.52-.92,2.34a3.54,3.54,0,0,0,.67.88c.46.56.72,1.27,1.18,1.84a1.71,1.71,0,0,0,1.91.68A1.64,1.64,0,0,0,78.28,223a1.51,1.51,0,0,1,.48-.36,1.18,1.18,0,0,1,.64.06,3.54,3.54,0,0,0,3.52-1.11l-.63-.28a8.3,8.3,0,0,0,3.74-.8,2.83,2.83,0,0,0,1.45-3.25c-.2-.52-.62-1.07-.37-1.57a1.36,1.36,0,0,1,1-.58l4.67-1.26a4.3,4.3,0,0,0,2.09-1,1.47,1.47,0,0,0,0-2.09,4.23,4.23,0,0,1,1.71-1.59c.79-.39,1.68-.53,2.49-.89a2.39,2.39,0,0,0,1.58-2c0-.89-1.15-1.66-1.8-1.06.22-1.32,2.59-1.22,2.89-2.52.24-1.06-1.08-1.72-1.73-2.59.18-.36.57-.57.76-.93.38-.74-.36-1.57-1.09-2s-1.62-.85-1.74-1.68.66-1.73.27-2.5a1,1,0,0,0-1.22-.4c-.49-1.57-3.45-.64-4.19-2.12a.72.72,0,0,1-.07-.38.73.73,0,0,1,.17-.28,7,7,0,0,1,1.34-.88,1.29,1.29,0,0,0,.69-1.33c-.15-.51-1.1-.57-1.13,0a1.18,1.18,0,0,0-1.83.31,1.28,1.28,0,0,0-1.58-.26,3.74,3.74,0,0,0-1.23,1.21" style="fill:#263238"></path><path d="M80.48,204.93A9.65,9.65,0,0,1,84.87,200a5.82,5.82,0,0,1,2.62-1,2.43,2.43,0,0,1,2.36,1.24l-.28,1.55c0,2.51-2.18,4.41-3.33,6.65-.49,1-.94,2.15-2,2.48a2.37,2.37,0,0,1-1.67-.18C80.55,209.79,79.79,207.07,80.48,204.93Z" style="fill:#1F385D"></path><path d="M79.11,216.42a5,5,0,0,1,1.18-6.35,3.36,3.36,0,0,1,.8-4,9.77,9.77,0,0,1,3.92-2,6.78,6.78,0,0,1,8.4-4c2-2.36,5.79-2.34,8.66-1.13a8,8,0,0,0,2.15.73,13.26,13.26,0,0,0,1.67,0c3.07-.06,5.83,2.41,6.69,5.36a6,6,0,0,0,.49,1.38,7.61,7.61,0,0,0,1.36,1.36,4.87,4.87,0,0,1,1.44,3.78c-.08,1.18-.6,2.39-.22,3.51.18.56.58,1,.71,1.62.38,1.68-1.6,3.13-1.46,4.84,0,.35.15.68.2,1a3,3,0,0,1-.41,2.06,4.2,4.2,0,0,0-.83,1.42,5.24,5.24,0,0,0,.1,1.25c.1,1-2.5,4.64-3.43,5.08l-25.84-2.71A4.88,4.88,0,0,1,81.43,225a1.67,1.67,0,0,0-.13-1,2,2,0,0,0-.65-.54c-1.56-1.08-1.5-3.39-1.11-5.25a2.33,2.33,0,0,0,.07-.79A2.82,2.82,0,0,0,79.11,216.42Z" style="fill:#263238"></path><path d="M86.5,217.35a13.93,13.93,0,0,1,8.7-11.22,17.15,17.15,0,0,1,6.78-.84,10.52,10.52,0,0,1,5.94,2c1.39.5,6.06,5.86,5.74,11.08-.36,5.79-1,12.84-2.24,17-2.44,8.45-9.18,8.72-9.18,8.72l-.32,4.53,4.31,1.61L91.71,272.13,76,250.24,83.65,248Z" style="fill:#ae7461"></path><path d="M99.35,232.45a1.65,1.65,0,0,1,.66-1,1.73,1.73,0,0,1,2.11,0,1.92,1.92,0,0,1,.46,2.07h0c-.39.46-.69.93-1.3.94a1.31,1.31,0,0,1-.28,0,1.91,1.91,0,0,1-1.25-.59A1.68,1.68,0,0,1,99.35,232.45Z" style="fill:#6f4439"></path><path d="M109.75,225.17a1.1,1.1,0,0,1-1.2,1,1.07,1.07,0,0,1-1-1.13,1.13,1.13,0,0,1,1.21-1A1.07,1.07,0,0,1,109.75,225.17Z" style="fill:#263238"></path><path d="M111.27,221.34c-.16.13-.92-.59-2.11-.74s-2.13.34-2.24.18.11-.31.53-.54a3.09,3.09,0,0,1,1.82-.33,2.9,2.9,0,0,1,1.65.78C111.25,221,111.34,221.29,111.27,221.34Z" style="fill:#263238"></path><path d="M103.14,229.87a7.51,7.51,0,0,1,2-.11c.31,0,.61,0,.68-.22a1.48,1.48,0,0,0-.09-.92c-.19-.77-.39-1.58-.61-2.43a40.74,40.74,0,0,1-1.26-6.3,40.5,40.5,0,0,1,1.77,6.19q.3,1.26.57,2.43a1.79,1.79,0,0,1,0,1.21.77.77,0,0,1-.56.38,1.84,1.84,0,0,1-.52,0A7.9,7.9,0,0,1,103.14,229.87Z" style="fill:#263238"></path><path d="M102.24,244.05A22.19,22.19,0,0,1,91,239.53s2.32,6.45,11,6.72Z" style="fill:#6f4439"></path><path d="M111.68,217.82c-.24.27-1.12,0-2.2-.09s-2,.13-2.19-.16c-.09-.14.06-.41.47-.66a3.3,3.3,0,0,1,1.8-.39,3.13,3.13,0,0,1,1.73.6C111.67,217.41,111.78,217.69,111.68,217.82Z" style="fill:#263238"></path><path d="M97.44,223.87a1.13,1.13,0,0,0,1,1.22,1.07,1.07,0,0,0,1.23-.9,1.13,1.13,0,0,0-1-1.22A1.08,1.08,0,0,0,97.44,223.87Z" style="fill:#263238"></path><path d="M94.94,219.78c.12.16,1-.39,2.21-.29s2,.79,2.16.65,0-.33-.41-.64a3,3,0,0,0-1.71-.7,3,3,0,0,0-1.78.41C95,219.46,94.88,219.71,94.94,219.78Z" style="fill:#263238"></path><path d="M95.16,216.3c.22.28,1.16.06,2.27.12s2,.31,2.27,0,0-.41-.42-.7a3.46,3.46,0,0,0-1.81-.56,3.42,3.42,0,0,0-1.85.43C95.21,215.88,95.07,216.16,95.16,216.3Z" style="fill:#263238"></path><path d="M86.87,225.64c.08-.65-.47-2.25-1.09-2.43-1.66-.47-4.73-.72-5.29,3.58-.78,5.87,5.28,5.43,5.31,5.26S86.6,227.85,86.87,225.64Z" style="fill:#ae7461"></path><path d="M84.46,229.7s-.11.05-.29.11a1,1,0,0,1-.77-.08,2.57,2.57,0,0,1-.87-2.43,3.28,3.28,0,0,1,.48-1.43,1.18,1.18,0,0,1,.87-.68.54.54,0,0,1,.57.36c0,.17,0,.29,0,.3s.14-.08.12-.33a.68.68,0,0,0-.18-.4.74.74,0,0,0-.54-.22,1.44,1.44,0,0,0-1.19.77,3.41,3.41,0,0,0-.57,1.59A2.67,2.67,0,0,0,83.28,230a1.12,1.12,0,0,0,1,0C84.43,229.84,84.48,229.71,84.46,229.7Z" style="fill:#6f4439"></path><path d="M115,218.53a3.47,3.47,0,0,1-1.48-3.38c-.81.13-1.49-1-1.86-1.72s-.9-1.15-.76-2a.87.87,0,0,0,0-.48c-.09-.24-.36-.35-.59-.46a4,4,0,0,1-2.26-3.05,8.41,8.41,0,0,1-4.11.16,3.2,3.2,0,0,1-5.35-.9,2.88,2.88,0,0,1-2.09,1.17,8.8,8.8,0,0,1-2.45-.17,3.39,3.39,0,0,1-2.69,3.54c-.22,0-.47.07-.59.26a.8.8,0,0,0,0,.66,2.68,2.68,0,0,1-2.2,3.16,2,2,0,0,1-.56,3.08c-.23.1-.53.22-.53.47a.68.68,0,0,0,.1.27,3.87,3.87,0,0,1,.69,2.05,1.43,1.43,0,0,1-1.36,1.43,1.93,1.93,0,0,1,.59,1.38c-.06.51-.64,1-1.09.73a32.94,32.94,0,0,1-3.16-1.24c-1.38-2.46,1-4.69,1.53-7.47a18.39,18.39,0,0,1,3.53-7.63,13.77,13.77,0,0,1,2.43-2.57,18.25,18.25,0,0,1,3.53-2,16.3,16.3,0,0,1,5-1.66c3.27-.35,6.42,1.21,9.21,2.94a14,14,0,0,1,3,2.28,12.49,12.49,0,0,1,2.25,3.85,15.55,15.55,0,0,1,1.38,6.28" style="fill:#263238"></path><path d="M116.36,216.61a2.3,2.3,0,0,0-.24-.67c-.1-.21-.25-.46-.38-.77a2.81,2.81,0,0,1-.19-1.14,9.28,9.28,0,0,1,.2-1.45,6.05,6.05,0,0,0,.17-1.75,4.93,4.93,0,0,0-.54-1.94,5.12,5.12,0,0,0-.62-.92,7.25,7.25,0,0,0-.85-.81,4,4,0,0,1-.8-.88,5.41,5.41,0,0,1-.42-1.17,7.48,7.48,0,0,0-1.14-2.45,7.7,7.7,0,0,0-2.07-2,6.93,6.93,0,0,0-1.35-.71,5.92,5.92,0,0,0-1.52-.36,7,7,0,0,0-.8,0l-.8,0a3.82,3.82,0,0,1-1.57-.19c-.51-.17-1-.42-1.53-.63a10.81,10.81,0,0,0-3.35-.72,8.77,8.77,0,0,0-1.77.1,5.91,5.91,0,0,0-3.19,1.59l-.26.27.1,0A6.85,6.85,0,0,0,84.93,204l0-.06a19.08,19.08,0,0,0-2.19.84,6.15,6.15,0,0,0-1.87,1.3,4.05,4.05,0,0,0-1,1.93,2.82,2.82,0,0,0,.31,2.06l0-.1a4.93,4.93,0,0,0-1.72,2.85,5,5,0,0,0,.25,3,6.19,6.19,0,0,0,.32.63c.12.2.25.38.34.57a1.21,1.21,0,0,1,.14.61,3.11,3.11,0,0,1-.09.6,9.54,9.54,0,0,0-.21,2.24,4.63,4.63,0,0,0,.37,1.77,2.83,2.83,0,0,0,.8,1.07c.27.23.53.34.67.47a.88.88,0,0,1,.19.21.73.73,0,0,0-.18-.23c-.13-.13-.39-.25-.66-.49a2.81,2.81,0,0,1-.76-1.06,4.67,4.67,0,0,1-.35-1.74,9.47,9.47,0,0,1,.23-2.22,3.83,3.83,0,0,0,.1-.62,1.35,1.35,0,0,0-.15-.65,4.3,4.3,0,0,0-.34-.59,4.48,4.48,0,0,1-.31-.62,4.94,4.94,0,0,1-.23-2.92,4.78,4.78,0,0,1,1.68-2.76l0,0,0-.06a2.62,2.62,0,0,1-.29-1.95,3.88,3.88,0,0,1,1-1.85A5.87,5.87,0,0,1,82.86,205a16.49,16.49,0,0,1,2.17-.82l0,0,0,0a6.39,6.39,0,0,1,3.24-3.57,6.46,6.46,0,0,1,5-.39l.05,0,0-.05.24-.25a5.65,5.65,0,0,1,3.1-1.54,9.2,9.2,0,0,1,1.73-.11,10.57,10.57,0,0,1,1.69.23,9.54,9.54,0,0,1,1.6.48c.52.2,1,.46,1.55.63a3.66,3.66,0,0,0,.81.18,4.52,4.52,0,0,0,.82,0l.8-.05a6.52,6.52,0,0,1,.77,0,6.22,6.22,0,0,1,1.49.35,6.64,6.64,0,0,1,1.32.69,7.47,7.47,0,0,1,2,2,7.64,7.64,0,0,1,1.14,2.4,5,5,0,0,0,.44,1.21,3.82,3.82,0,0,0,.83.91,7.83,7.83,0,0,1,.84.78,5.28,5.28,0,0,1,.61.9,4.71,4.71,0,0,1,.54,1.9,6.42,6.42,0,0,1-.15,1.73,8.13,8.13,0,0,0-.19,1.46,2.7,2.7,0,0,0,.22,1.16c.13.32.29.56.39.77a2.68,2.68,0,0,1,.21.48Z" style="fill:#455a64"></path><path d="M96.33,199.09l.47-.18a3.89,3.89,0,0,1,1.32-.21,3.75,3.75,0,0,1,1.9.51,3.88,3.88,0,0,1,1.56,1.81,3.15,3.15,0,0,1,.22.7.8.8,0,0,1-.12.62l-.17.18.25,0a2.46,2.46,0,0,1,1.79.44,2.36,2.36,0,0,1,.86,1.21,2.53,2.53,0,0,1,.11,1c0,.24,0,.37,0,.37s0,0,0-.09a1.91,1.91,0,0,0,.06-.27,2.37,2.37,0,0,0-.06-1,2.47,2.47,0,0,0-.88-1.3,2.56,2.56,0,0,0-1.91-.49l.08.14a.88.88,0,0,0,.16-.75,3.38,3.38,0,0,0-.22-.75,4,4,0,0,0-1.65-1.88,3.85,3.85,0,0,0-2-.5,3.55,3.55,0,0,0-1.35.28,2.12,2.12,0,0,0-.34.17C96.36,199.06,96.32,199.08,96.33,199.09Z" style="fill:#455a64"></path><path d="M86,204.67s0,.1.18.24a3.41,3.41,0,0,0,.6.54,3,3,0,0,0,1.13.5,2.16,2.16,0,0,0,1.52-.27l-.13,0,.14.26.18.26a3.47,3.47,0,0,0,1.35,1.09,3.39,3.39,0,0,0,2.33.25,1.31,1.31,0,0,0,.33-.13,5.3,5.3,0,0,1-1.27.1,3.68,3.68,0,0,1-1.32-.37,3.6,3.6,0,0,1-1.28-1.05l-.16-.24-.14-.25-.05-.09-.08.06a2,2,0,0,1-1.39.25,2.86,2.86,0,0,1-1.09-.43A10.59,10.59,0,0,1,86,204.67Z" style="fill:#455a64"></path><path d="M82.2,209.75s0,0,0,.11a1,1,0,0,0,.09.3,1.57,1.57,0,0,0,.87.74,3,3,0,0,0,1.7,0,7.94,7.94,0,0,0,1-.26,1.61,1.61,0,0,0,.9-.64l.05-.09-.15,0a7.18,7.18,0,0,0,1.62,1.26,3.11,3.11,0,0,0,1.63.37,2.17,2.17,0,0,0,1.07-.34,1.42,1.42,0,0,0,.24-.19l.07-.08s-.12.09-.34.21a2.25,2.25,0,0,1-1.05.27,2.91,2.91,0,0,1-1.54-.39,6.78,6.78,0,0,1-1.57-1.24l-.09-.08-.05.11,0,.07a1.45,1.45,0,0,1-.8.57,9.58,9.58,0,0,1-1,.25,2.88,2.88,0,0,1-1.62,0,1.54,1.54,0,0,1-.86-.66A1.65,1.65,0,0,1,82.2,209.75Z" style="fill:#455a64"></path><path d="M78.46,188l.28.08a1.34,1.34,0,0,1,.6.51,1.82,1.82,0,0,1,.3,1.17,5.43,5.43,0,0,1-.41,1.58l0,.09h.1a3.34,3.34,0,0,1,2,.87,2.59,2.59,0,0,1,.86,2.19A2.41,2.41,0,0,1,81,196.35l-.22.13.25,0a3,3,0,0,1,2.11,1.25,2.9,2.9,0,0,1,.53,1.9,3.18,3.18,0,0,1-.35,1.27c-.15.28-.26.41-.25.42l.09-.09a2.81,2.81,0,0,0,.21-.3,3.09,3.09,0,0,0-.11-3.29,3.17,3.17,0,0,0-2.21-1.33l0,.16a2.6,2.6,0,0,0,1.18-2,2.64,2.64,0,0,0-.19-1.31,3.06,3.06,0,0,0-.73-1,3.57,3.57,0,0,0-2.06-.89l.06.1a5.48,5.48,0,0,0,.4-1.62,1.9,1.9,0,0,0-.36-1.23,1.37,1.37,0,0,0-.66-.5.68.68,0,0,0-.21,0A.17.17,0,0,0,78.46,188Z" style="fill:#455a64"></path><path d="M66.42,199.44s0,0,.09.07a2.21,2.21,0,0,0,.27.17,4.19,4.19,0,0,0,1.15.42,4.73,4.73,0,0,0,1.88,0,4.52,4.52,0,0,0,2.14-1l-.13,0a3.75,3.75,0,0,0,2.42,2.14,2.88,2.88,0,0,0,3.12-1.2l-.15,0a2.3,2.3,0,0,0,.58,1.09,3.11,3.11,0,0,0,.9.66,4.53,4.53,0,0,0,1.76.41,9.07,9.07,0,0,0,1.18-.05,2.52,2.52,0,0,0,.42-.06h-.42a11.17,11.17,0,0,1-1.17,0,4.47,4.47,0,0,1-1.71-.43,2.58,2.58,0,0,1-1.38-1.66l-.05-.21-.1.18A2.71,2.71,0,0,1,74.28,201,3.6,3.6,0,0,1,72,199l0-.1-.08.07a4.39,4.39,0,0,1-2.06,1,4.67,4.67,0,0,1-3.36-.52Z" style="fill:#455a64"></path><path d="M71.53,208.8s0,0,0,.11a.6.6,0,0,0,.32.19,2.65,2.65,0,0,0,1.32-.06A3.14,3.14,0,0,0,74.87,208a3.24,3.24,0,0,0,.72-2.29v0l-.14.09a3.88,3.88,0,0,0,2.32.61,4.39,4.39,0,0,0,1.88-.55,4.93,4.93,0,0,0,1-.8,1.46,1.46,0,0,0,.31-.37,6.5,6.5,0,0,1-1.42,1.06,4.24,4.24,0,0,1-1.83.49,3.73,3.73,0,0,1-2.21-.59l-.15-.1v.2a3.11,3.11,0,0,1-.67,2.16,3,3,0,0,1-1.55,1,2.7,2.7,0,0,1-1.27.11A.64.64,0,0,1,71.53,208.8Z" style="fill:#455a64"></path><path d="M91.28,189.77a4.76,4.76,0,0,1,0,1.84,4,4,0,0,1-2.78,3.15,3.94,3.94,0,0,1-1.39.18h-.11l0,.1a5.14,5.14,0,0,1-.53,3.38,3.31,3.31,0,0,1-.31.5.44.44,0,0,1-.34.2.32.32,0,0,1-.22-.1c0-.05,0-.09,0-.09a.16.16,0,0,0,0,.1.34.34,0,0,0,.25.15.51.51,0,0,0,.41-.21,2.9,2.9,0,0,0,.34-.5A5.19,5.19,0,0,0,87.2,197a5.25,5.25,0,0,0,0-2l-.09.11a4.23,4.23,0,0,0,3.5-1.61,4.07,4.07,0,0,0,.79-1.88,3.77,3.77,0,0,0,0-1.37,2.5,2.5,0,0,0-.09-.37Q91.3,189.77,91.28,189.77Z" style="fill:#455a64"></path><path d="M99.55,230.8c.17,0,.26,1.12,1.3,1.85s2.24.51,2.26.67-.25.24-.76.29a2.79,2.79,0,0,1-1.88-.49,2.48,2.48,0,0,1-1-1.55C99.37,231.09,99.47,230.8,99.55,230.8Z" style="fill:#263238"></path><path d="M95.53,444.14l1.21,15.07s15.39,5.24,15.46,8.13H82l-.34-24.27Z" style="fill:#455a64"></path><g style="opacity:0.6000000000000001"><path d="M87.47,457.56a1.22,1.22,0,0,0-.9,1.37,1.19,1.19,0,0,0,1.35.91,1.3,1.3,0,0,0,1-1.46,1.23,1.23,0,0,0-1.51-.79" style="fill:#fff"></path></g><g style="opacity:0.6000000000000001"><path d="M82,467.33l.08-2.44,29.12,1a2.06,2.06,0,0,1,1.11,1.64Z" style="fill:#fff"></path></g><path d="M97.23,459.08c0,.15-.75.19-1.49.63s-1.15,1.05-1.28,1,.12-.91,1-1.43S97.27,459,97.23,459.08Z" style="fill:#263238"></path><path d="M100.34,460.51c0,.14-.62.37-1.14,1s-.69,1.26-.84,1.24-.21-.84.46-1.58S100.34,460.36,100.34,460.51Z" style="fill:#263238"></path><path d="M102,464.36c-.13,0-.31-.72.1-1.51s1.11-1.09,1.17-1-.39.54-.71,1.19S102.14,464.35,102,464.36Z" style="fill:#263238"></path><path d="M97.1,455.52c-.07.13-.73-.1-1.57-.07s-1.49.26-1.56.13.57-.63,1.55-.65S97.18,455.41,97.1,455.52Z" style="fill:#263238"></path><g style="opacity:0.30000000000000004"><polygon points="96.99 452.49 96.89 455.07 81.87 455.14 81.85 452.06 96.99 452.49"></polygon></g><path d="M69.84,305.72S58.6,326.13,58.2,339.66s11.72,43.66,11,54c-1.18,16,10.53,64,10.53,64l17.49-1.4-6.56-61.43-.79-48.3,4.49-39.13Z" style="fill:#263238"></path><path d="M89.85,436.19,77.68,446.32s6.57,15.6,4.5,17.7L61.75,440.75l18.35-16.6Z" style="fill:#455a64"></path><g style="opacity:0.6000000000000001"><path d="M72.62,438a1.2,1.2,0,0,0-1.63.28,1.29,1.29,0,0,0,.25,1.69,1.27,1.27,0,0,0,1.72-.31,1.32,1.32,0,0,0-.45-1.72" style="fill:#fff"></path></g><g style="opacity:0.6000000000000001"><path d="M61.75,440.75l1.85-1.67,19,23.19a2.26,2.26,0,0,1-.46,2Z" style="fill:#fff"></path></g><path d="M78.11,446.6c-.12.1-.64-.44-1.48-.7s-1.55-.14-1.59-.29.75-.55,1.75-.22S78.23,446.54,78.11,446.6Z" style="fill:#263238"></path><path d="M79.17,450c-.09.12-.69-.22-1.49-.19s-1.39.36-1.48.24.48-.77,1.47-.78S79.27,449.92,79.17,450Z" style="fill:#263238"></path><path d="M77.46,454c-.12-.09.31-.75,1.17-1s1.55.08,1.5.22-.66.08-1.36.3S77.56,454.14,77.46,454Z" style="fill:#263238"></path><path d="M80.64,444c-.14,0-.43-.63-1-1.26s-1.2-1-1.16-1.11.85,0,1.53.74S80.77,444,80.64,444Z" style="fill:#263238"></path><path d="M83.06,441.88s-.49-.36-1-1.21a7.27,7.27,0,0,1-.65-1.59,9.22,9.22,0,0,1-.22-1,2,2,0,0,1,0-.61.66.66,0,0,1,.55-.59.82.82,0,0,1,.68.29,1.79,1.79,0,0,1,.3.5,5.82,5.82,0,0,1,.37,1,6.3,6.3,0,0,1,.21,1.73,2.71,2.71,0,0,1-.36,1.55c-.08,0,0-.61,0-1.54a6,6,0,0,0-.65-2.46c-.15-.32-.32-.54-.48-.5s-.08,0-.11.14a1.72,1.72,0,0,0,0,.44,8.92,8.92,0,0,0,.17.95,9.14,9.14,0,0,0,.53,1.54A13.54,13.54,0,0,1,83.06,441.88Z" style="fill:#263238"></path><path d="M82.77,441.87a2.57,2.57,0,0,1,.85-1.31,5.13,5.13,0,0,1,1.4-1,5.19,5.19,0,0,1,.94-.32,1.22,1.22,0,0,1,1.21.25.79.79,0,0,1,.09.79,2.15,2.15,0,0,1-.32.5,3.34,3.34,0,0,1-.78.69,3.23,3.23,0,0,1-1.6.55,1.91,1.91,0,0,1-1.48-.35,10.64,10.64,0,0,0,1.44,0,3.31,3.31,0,0,0,1.39-.58,3.12,3.12,0,0,0,.64-.62c.21-.25.33-.52.23-.6a.82.82,0,0,0-.72-.08,4.54,4.54,0,0,0-.86.26,5.45,5.45,0,0,0-1.34.79C83.16,441.42,82.84,441.92,82.77,441.87Z" style="fill:#263238"></path><path d="M108.9,308.39l.92,8.26c6.29,14.8,13.58,53.15,15.05,64.08,1.54,11.47.82,22.79-2.74,27s-38.36,36.51-38.36,36.51L72.65,429.9l29.11-32.07S99,383.17,95.35,374.61s-8-29-8-29l1-38.57Z" style="fill:#263238"></path><path d="M112.59,417.47s0,.06-.12.15l-.41.4-1.59,1.54-6,5.65L83.93,444.39l-.19.18-.17-.24c-2-2.82-4.36-5.77-6.66-8.79-1.53-2-3-3.91-4.44-5.75l-.13-.16.14-.14,20.79-22.62,6.2-6.66,1.68-1.78.45-.46c.1-.1.15-.15.16-.14l-.13.17-.41.49-1.63,1.83c-1.45,1.62-3.52,3.91-6.09,6.76L72.82,429.8l0-.3c1.42,1.85,2.92,3.78,4.44,5.75,2.32,3,4.6,5.93,6.69,8.86l-.36-.06L104.27,425l6.09-5.55L112,418l.43-.37Z" style="fill:#455a64"></path><path d="M126.87,313.73c.43.53,8.84,13.68,9.26,13.49s6.79-5.14,6.79-5.14L136,306.31Z" style="fill:#ae7461"></path><rect x="156.9" y="337.92" width="2.6" height="60.14" style="fill:#263238"></rect><rect x="135.27" y="340.1" width="2.6" height="60.14" style="fill:#263238"></rect><path d="M160.16,343.31h-3.91v-5.83a.33.33,0,0,0-.31-.34h-17.1a.33.33,0,0,0-.31.34v4.85h-3.91v-4.85a4.25,4.25,0,0,1,4.22-4.25h17.1a4.25,4.25,0,0,1,4.22,4.25Z" style="fill:#455a64"></path><path d="M157.93,376.74c-.28.15-1-1.06-2.7-2.43a11.61,11.61,0,0,0-15.09-.21c-1.7,1.33-2.49,2.51-2.77,2.36s.11-1.62,1.77-3.44a11.75,11.75,0,0,1,8.61-3.68,11.79,11.79,0,0,1,5.14,1.3,11.3,11.3,0,0,1,3.37,2.62C157.87,375.12,158.16,376.65,157.93,376.74Z" style="fill:#263238"></path><rect x="117.24" y="376.32" width="57.15" height="83.36" rx="8.19" style="fill:#455a64"></rect><path d="M166.2,459.68a9.09,9.09,0,0,0,2.65-.49,8,8,0,0,0,2.79-1.66,8.1,8.1,0,0,0,2.33-3.72c.51-1.61.28-3.51.33-5.56s0-4.29,0-6.69c0-4.8,0-10.26,0-16.3s0-12.65,0-19.75c0-3.55,0-7.23,0-11v-8.69a15,15,0,0,0-.17-2.93,8,8,0,0,0-3.16-4.84,7.93,7.93,0,0,0-2.71-1.27,11.33,11.33,0,0,0-3-.25H125.44a8,8,0,0,0-7.59,5.49,9.22,9.22,0,0,0-.4,3.27v13.26c0,8.69,0,17.07,0,25.06s0,15.57,0,22.67v5.23a8,8,0,0,0,5.19,7.5,7.56,7.56,0,0,0,2.23.49c.75.06,1.53,0,2.28,0l28.61.06,7.77,0,2,0,.69,0-.69,0-2,0-7.77,0-28.61.07c-.76,0-1.51,0-2.3,0a7.85,7.85,0,0,1-2.32-.51,8.29,8.29,0,0,1-3.86-3,8.39,8.39,0,0,1-1.55-4.82c0-1.71,0-3.45,0-5.23,0-7.1,0-14.69,0-22.67s0-16.37,0-25.06q0-6.53,0-13.26a9.7,9.7,0,0,1,.43-3.4,8.44,8.44,0,0,1,8-5.78h39.69a11.88,11.88,0,0,1,3.14.27,8.39,8.39,0,0,1,6.14,6.42,13.88,13.88,0,0,1,.17,3v8.69c0,3.78,0,7.46,0,11,0,7.1,0,13.71,0,19.75s0,11.5,0,16.3q0,3.6,0,6.69v2.94a9.22,9.22,0,0,1-.36,2.67,8.23,8.23,0,0,1-2.41,3.76,7.88,7.88,0,0,1-2.84,1.65,8,8,0,0,1-2,.4C166.44,459.69,166.2,459.68,166.2,459.68Z" style="fill:#263238"></path><circle cx="128.86" cy="464.13" r="3.61" style="fill:#455a64"></circle><path d="M117.24,402.72h-.17a4.2,4.2,0,0,1-4.21-4.21h0a4.2,4.2,0,0,1,4.21-4.21h.17Z" style="fill:#263238"></path><path d="M117.24,441.43h-.17a4.21,4.21,0,0,1-4.21-4.22h0a4.21,4.21,0,0,1,4.21-4.21h.17Z" style="fill:#263238"></path><polygon points="126.55 459.68 127.56 464.98 130.07 464.98 131.17 459.68 126.55 459.68" style="fill:#263238"></polygon><path d="M130.7,464.13a1.84,1.84,0,1,1-1.84-1.84A1.84,1.84,0,0,1,130.7,464.13Z" style="fill:#263238"></path><path d="M168.73,464.13a3.61,3.61,0,1,1-3.61-3.61A3.61,3.61,0,0,1,168.73,464.13Z" style="fill:#455a64"></path><polygon points="162.81 459.68 163.82 464.98 166.33 464.98 167.43 459.68 162.81 459.68" style="fill:#263238"></polygon><path d="M167,464.13a1.84,1.84,0,1,1-1.84-1.84A1.84,1.84,0,0,1,167,464.13Z" style="fill:#263238"></path><path d="M174.4,394c0,.11-12.8.2-28.58.2s-28.58-.09-28.58-.2,12.79-.21,28.58-.21S174.4,393.84,174.4,394Z" style="fill:#263238"></path><path d="M174.4,391.78c0,.12-12.8.21-28.58.21s-28.58-.09-28.58-.21,12.79-.21,28.58-.21S174.4,391.67,174.4,391.78Z" style="fill:#263238"></path><path d="M174.4,410.4c0,.12-12.8.21-28.58.21s-28.58-.09-28.58-.21,12.79-.21,28.58-.21S174.4,410.29,174.4,410.4Z" style="fill:#263238"></path><path d="M174.4,408.23c0,.11-12.8.21-28.58.21s-28.58-.1-28.58-.21S130,408,145.82,408,174.4,408.11,174.4,408.23Z" style="fill:#263238"></path><path d="M174.4,426.85c0,.11-12.8.2-28.58.2s-28.58-.09-28.58-.2,12.79-.21,28.58-.21S174.4,426.73,174.4,426.85Z" style="fill:#263238"></path><path d="M174.4,424.67c0,.12-12.8.21-28.58.21s-28.58-.09-28.58-.21,12.79-.21,28.58-.21S174.4,424.56,174.4,424.67Z" style="fill:#263238"></path><path d="M174.4,443.29c0,.12-12.8.21-28.58.21s-28.58-.09-28.58-.21,12.79-.21,28.58-.21S174.4,443.18,174.4,443.29Z" style="fill:#263238"></path><path d="M174.4,441.12c0,.11-12.8.21-28.58.21s-28.58-.1-28.58-.21,12.79-.21,28.58-.21S174.4,441,174.4,441.12Z" style="fill:#263238"></path><rect x="139.06" y="398.52" width="11.75" height="2.97" style="fill:#fff"></rect><path d="M150.84,401.51H139v-3h11.8Zm-11.76,0H150.8v-2.93H139.08Z" style="fill:#263238"></path><g style="opacity:0.2"><rect x="117.24" y="391.78" width="57.15" height="1.36"></rect></g><g style="opacity:0.2"><rect x="117.24" y="408.16" width="57.15" height="1.36"></rect></g><g style="opacity:0.2"><rect x="117.24" y="424.51" width="57.15" height="1.36"></rect></g><g style="opacity:0.2"><rect x="117.24" y="440.87" width="57.15" height="1.36"></rect></g><path d="M144.5,324.7c.22.28,7.41,1.34,8.23,2.85s1.77,5.52,1.43,6.77-4.1,4.7-4.1,4.7l-2.81.43s.59,2.36-.9,1.77a23.15,23.15,0,0,1-2.72-1.29l-2.86-2.79h3.28a2.14,2.14,0,0,0,1.64-.77l0,0a2.07,2.07,0,0,0,.1-2.55l0,0c-1-1.26-3.12-.52-3.12-.52l-4.19.08-1.18-4.19L135.87,327l7-4.92Z" style="fill:#ae7461"></path><path d="M115.05,252s5.32.42,8,7.17,9,38.5,9.52,38.84,7.83,18.27,7.83,18.27l-9.29,5.79s-9.55-11.31-11.28-17.38-5.28-18.45-5.28-18.45l-1.14-9.31Z" style="fill:#1F385D"></path><path d="M117.68,266.2a6.82,6.82,0,0,1-.05,1.24c-.06.79-.17,1.94-.34,3.35-.33,2.83-.9,6.72-1.72,11s-1.76,8.09-2.5,10.84c-.38,1.37-.7,2.48-.94,3.24a6.77,6.77,0,0,1-.42,1.17,6.75,6.75,0,0,1,.24-1.22c.21-.86.47-2,.79-3.27.66-2.77,1.54-6.59,2.36-10.85s1.44-8.13,1.86-10.94c.19-1.34.36-2.46.49-3.34A6.58,6.58,0,0,1,117.68,266.2Z" style="fill:#263238"></path><path d="M65.59,275.68c0,.73,1.57,18.93,1.57,18.93l-1.49,7.55,4.07,3.74,39.16,2.41,1.51-4.44c1.16-5.75,4.73-21.12,5.4-27.82s0-23.9,0-23.9l-13.31-3.31L91.62,268l-8.94-19.77L68.21,250Z" style="fill:#1F385D"></path><path d="M60.78,318.1l7.43,1.66A26.3,26.3,0,0,1,71.05,329c.44,5-2.4,40.87-2.4,40.87l-23.83-.79-.73-1.66a5.31,5.31,0,0,1-.42-2.63c.6-5.9,1.66-26.39,7.45-38.31C53.88,320.83,60.78,318.1,60.78,318.1Z" style="fill:#455a64"></path><path d="M65.48,250.12l-5.39,72.71,8.79,1c.07,0,7.32-75.74,7.32-75.74S68.37,246.53,65.48,250.12Z" style="fill:#455a64"></path><path d="M69.6,316.39a7.38,7.38,0,0,1-.12,1.34c-.12.95-.29,2.17-.48,3.64-.11.78-.23,1.62-.36,2.51a24,24,0,0,1-.51,2.88,6.36,6.36,0,0,1-1.49,2.93,3.94,3.94,0,0,1-3.36,1.1,4.52,4.52,0,0,1-3-1.87,6.15,6.15,0,0,1-1-3.15,12.53,12.53,0,0,1,.26-2.94c.16-.89.3-1.72.43-2.49.27-1.46.49-2.67.66-3.61a6.5,6.5,0,0,1,.31-1.31,8.23,8.23,0,0,1-.13,1.34c-.13.94-.3,2.16-.51,3.63-.11.78-.24,1.62-.37,2.51a12.46,12.46,0,0,0-.21,2.84,5.64,5.64,0,0,0,.92,2.91,4.05,4.05,0,0,0,2.69,1.67,3.45,3.45,0,0,0,3-1,6.08,6.08,0,0,0,1.4-2.71,24.31,24.31,0,0,0,.54-2.84l.42-2.49c.25-1.46.47-2.68.63-3.61A6.42,6.42,0,0,1,69.6,316.39Z" style="fill:#263238"></path><circle cx="63.55" cy="325.45" r="1.59" style="fill:#263238"></circle><path d="M60.09,321.82a3.25,3.25,0,0,1-.11.49l-.4,1.38-1.48,5.06C56.87,333,55.31,339,53.9,345.62s-2.36,12.73-3,17.14c-.28,2.16-.52,3.92-.69,5.23-.07.57-.14,1-.19,1.42a1.87,1.87,0,0,1-.1.49,2.7,2.7,0,0,1,0-.5c0-.38.06-.85.1-1.43.09-1.25.27-3,.54-5.25.52-4.43,1.44-10.53,2.84-17.19s3-12.61,4.34-16.87c.65-2.14,1.21-3.85,1.62-5,.2-.54.36-1,.49-1.35A1.59,1.59,0,0,1,60.09,321.82Z" style="fill:#263238"></path><path d="M65.59,250.24s-3.87-.28-9.86,10c-3,5.21-8.9,24.5-9.33,25.71L59.67,294l3.65-9.91Q64.73,266.71,65.59,250.24Z" style="fill:#1F385D"></path><path d="M68.14,301.49l.15-5.82-8.8-3,1.65-5.51-9.25-17.64s-7.35,19.91-8.25,24.14c-1,5,.35,12.46,5.39,12.95,3.29.32,11.06-1.41,16.18-2.3A3.54,3.54,0,0,0,68.14,301.49Z" style="fill:#1F385D"></path><path d="M63.77,294.14a2.27,2.27,0,0,1-.57-.13c-.37-.1-.89-.26-1.53-.46s-1.39-.51-2.24-.73a15.43,15.43,0,0,0-2.81-.52,12.74,12.74,0,0,0-5.14.56c-1.26.44-2,.89-2,.84a2,2,0,0,1,.48-.34,10,10,0,0,1,1.45-.7,11.83,11.83,0,0,1,5.23-.66,18,18,0,0,1,5.1,1.34l1.49.56A2.19,2.19,0,0,1,63.77,294.14Z" style="fill:#263238"></path><path d="M55.08,287.88a2.92,2.92,0,0,1,1,.32,7.4,7.4,0,0,1,2.15,1.5,7.06,7.06,0,0,1,1.49,2.16,2.64,2.64,0,0,1,.32,1,12.43,12.43,0,0,0-2-3A12.51,12.51,0,0,0,55.08,287.88Z" style="fill:#263238"></path><g style="opacity:0.30000000000000004"><path d="M54.32,290.89A9.23,9.23,0,0,0,48.73,293a.68.68,0,0,0-.28.43.46.46,0,0,0,.48.42,1.48,1.48,0,0,0,.66-.22,13.38,13.38,0,0,1,10.25-.81l.18-.17A9.23,9.23,0,0,0,54.32,290.89Z"></path></g><path d="M70.12,304.52l7.6.28c.76,0,1.47-.67,1.79-1.76l5.95-20.84a2,2,0,0,0-1.72-2.69l-10-.63c-1.61,0-2.48.69-2.76,1.91L67,297.29C66.18,300.8,67.75,304.43,70.12,304.52Z" style="fill:#263238"></path><path d="M63.62,294.68l2-4.28L69,289.29l-1,4.09c1.31.63,3.26.95,4.39.33s5.54-5,6.37-4.59,1.57,1.43.81,2.39-4.89,3.95-4,4.83,5.62-3,7-2.69,2.25,1.1,1.47,1.69a14.15,14.15,0,0,0-3,3.36c.09,1.05.59,2.54.13,2.8a17.36,17.36,0,0,1-3.51,1.22,39,39,0,0,0-3.66,1.36,8.14,8.14,0,0,1-5.75.13l-.95-.33a3.68,3.68,0,0,1-2.46-3.5l0-3.16Z" style="fill:#ae7461"></path><path d="M68.72,293.69a7.08,7.08,0,0,0,.32-1c.19-.71.45-1.65.75-2.78l1.07-4.13c.2-.78.41-1.6.62-2.44a6,6,0,0,1,.91-2.42,3,3,0,0,1,2.41-.62l2.51.19,4.25.3,2.87.18a7.75,7.75,0,0,0,1.06,0,5.09,5.09,0,0,0-1-.15l-2.87-.29-4.25-.38L74.81,280a5.79,5.79,0,0,0-1.37.06,2.35,2.35,0,0,0-1.3.66,3.08,3.08,0,0,0-.66,1.28c-.12.44-.22.87-.33,1.3-.2.84-.41,1.66-.6,2.44l-1,4.15c-.26,1.14-.48,2.09-.64,2.81A5.74,5.74,0,0,0,68.72,293.69Z" style="fill:#455a64"></path><path d="M77.85,283.61a.74.74,0,0,0,.74.74.75.75,0,0,0,.75-.74.76.76,0,0,0-.75-.75A.75.75,0,0,0,77.85,283.61Z" style="fill:#fff"></path></g></svg>
