<svg xmlns="http://www.w3.org/2000/svg" viewBox="0 0 500 500"><g id="freepik--Device--inject-29"><rect x="110.44" y="396.68" width="2.97" height="64.06" transform="translate(-97.28 38.13) rotate(-13.54)" style="fill:#263238;stroke:#263238;stroke-linecap:round;stroke-linejoin:round"></rect><rect x="119.03" y="459.41" width="74.63" height="4.95" style="fill:#263238;stroke:#263238;stroke-linecap:round;stroke-linejoin:round"></rect></g><g id="freepik--Screen--inject-29"><rect x="84" y="51" width="347" height="248" style="fill:#263238;stroke:#263238;stroke-miterlimit:10"></rect><rect x="79.57" y="43.5" width="347" height="248" style="fill:#fff;stroke:#263238;stroke-miterlimit:10"></rect><rect x="79.57" y="43.5" width="347" height="32" style="fill:#adadad;stroke:#263238;stroke-miterlimit:10"></rect><rect x="79.57" y="43.5" width="34.95" height="32" style="fill:#1F385D;stroke:#263238;stroke-miterlimit:10"></rect><path d="M405.73,61.58a3.36,3.36,0,1,0-3.36,3.36A3.37,3.37,0,0,0,405.73,61.58Z" style="fill:#263238"></path><circle cx="381.39" cy="61.58" r="3.36" style="fill:#263238"></circle><circle cx="360.41" cy="61.58" r="3.36" style="fill:#263238"></circle><rect x="134.66" y="91.02" width="272.74" height="27.69" style="fill:none;stroke:#263238;stroke-miterlimit:10"></rect><rect x="134.66" y="127.11" width="272.74" height="27.69" style="fill:none;stroke:#263238;stroke-miterlimit:10"></rect><path d="M93.25,109.14V101.6H91.7v-.86h4v.86H94.19v7.54Z" style="fill:#263238"></path><path d="M96.31,102.77c0-1.28.64-2.11,1.92-2.11s1.93.83,1.93,2.11v4.34c0,1.27-.63,2.11-1.93,2.11s-1.92-.84-1.92-2.11Zm.92,4.39c0,.77.33,1.21,1,1.21s1-.44,1-1.21v-4.44c0-.75-.32-1.21-1-1.21s-1,.46-1,1.21Z" style="fill:#263238"></path><path d="M95.66,140.09v.23h-.89V140c0-.75-.28-1.2-1-1.2s-1,.45-1,1.19c0,1.88,2.82,2.06,2.82,4.43,0,1.27-.61,2.1-1.89,2.1s-1.88-.83-1.88-2.1V144h.87v.53c0,.75.31,1.2,1,1.2s1-.45,1-1.2c0-1.88-2.81-2-2.81-4.42,0-1.29.6-2.1,1.86-2.1S95.66,138.82,95.66,140.09Z" style="fill:#263238"></path><path d="M97.38,144.49c0,.76.3,1.22,1,1.22s1-.46,1-1.22v-6.41h.88v6.37c0,1.27-.59,2.12-1.88,2.12s-1.87-.85-1.87-2.12v-6.37h.92Z" style="fill:#263238"></path><path d="M103,138.08c1.31,0,1.82.62,1.82,1.86v.39c0,.89-.25,1.44-1,1.67.81.23,1.12.88,1.12,1.8v.71a1.72,1.72,0,0,1-1.91,2h-1.94v-8.39Zm-.23,3.56c.74,0,1.13-.24,1.13-1.12V140c0-.74-.25-1.1-.93-1.1h-.92v2.71Zm.28,4c.68,0,1-.36,1-1.14v-.74c0-.94-.37-1.25-1.17-1.25h-.82v3.13Z" style="fill:#263238"></path><path d="M105.6,145.62h.47c.61,0,1-.32,1-1.17v-6.38H108v6.32c0,1.57-.78,2.06-1.78,2.08a3.83,3.83,0,0,1-.59,0Z" style="fill:#263238"></path><path d="M111.89,141.79v.84h-2.06v3h2.52v.85H108.9v-8.39h3.45v.85h-2.52v2.86Z" style="fill:#263238"></path><path d="M116.92,140.1v.76H116v-.8c0-.76-.3-1.22-1-1.22s-1,.46-1,1.22v4.43c0,.76.31,1.22,1,1.22s1-.46,1-1.22V143.4h.88v1c0,1.27-.6,2.11-1.89,2.11s-1.88-.84-1.88-2.11V140.1c0-1.27.6-2.11,1.88-2.11S116.92,138.83,116.92,140.1Z" style="fill:#263238"></path><path d="M119,146.47v-7.54h-1.55v-.85h4v.85h-1.55v7.54Z" style="fill:#263238"></path><path d="M93.91,216.74c1.31,0,1.82.63,1.82,1.86v.4c0,.89-.25,1.44-1,1.67.81.22,1.13.87,1.13,1.79v.71a1.73,1.73,0,0,1-1.92,2H92v-8.4Zm-.23,3.57c.75,0,1.13-.24,1.13-1.12v-.49c0-.74-.25-1.1-.92-1.1H93v2.71Zm.28,4c.68,0,1-.36,1-1.14v-.75c0-.93-.37-1.24-1.17-1.24H93v3.13Z" style="fill:#263238"></path><path d="M96.66,218.77c0-1.28.63-2.11,1.92-2.11s1.93.83,1.93,2.11v4.34a1.85,1.85,0,0,1-1.93,2.11c-1.29,0-1.92-.84-1.92-2.11Zm.92,4.39c0,.77.33,1.21,1,1.21s1-.44,1-1.21v-4.44c0-.75-.31-1.21-1-1.21s-1,.46-1,1.21Z" style="fill:#263238"></path><path d="M103.37,216.74c1.3,0,1.9.8,1.9,2.09v4.23c0,1.29-.6,2.08-1.9,2.08h-2v-8.4Zm0,7.55c.68,0,1-.42,1-1.19v-4.32c0-.76-.32-1.18-1-1.18h-1v6.69Z" style="fill:#263238"></path><path d="M107.46,222.13l-1.78-5.39h1l1.31,4.13,1.32-4.13h.89l-1.79,5.39v3h-.92Z" style="fill:#263238"></path><rect x="134.66" y="165.71" width="272.74" height="112.45" style="fill:none;stroke:#263238;stroke-miterlimit:10"></rect><line x1="139.7" y1="184.17" x2="399.85" y2="184.17" style="fill:none;stroke:#263238;stroke-miterlimit:10"></line><path d="M145.56,174.65v.86h-1.93v3.63h-.94v-8.4H146v.86h-2.4v3.05Z" style="fill:#263238"></path><path d="M146.7,172.77c0-1.28.64-2.11,1.92-2.11s1.93.83,1.93,2.11v4.34c0,1.27-.63,2.11-1.93,2.11s-1.92-.84-1.92-2.11Zm.93,4.39c0,.77.32,1.21,1,1.21s1-.44,1-1.21v-4.44c0-.75-.32-1.21-1-1.21s-1,.46-1,1.21Z" style="fill:#263238"></path><path d="M152.27,179.14h-.84v-8.4h1.19l1.94,6.07v-6.07h.83v8.4h-1l-2.15-6.79Z" style="fill:#263238"></path><path d="M157.56,179.14V171.6H156v-.86h4v.86h-1.55v7.54Z" style="fill:#263238"></path><path d="M203.08,172.27a2.64,2.64,0,0,1-1.17.36v-.77a1.44,1.44,0,0,0,1.44-1.12H204v8.4h-.92Z" style="fill:#263238"></path><path d="M209.19,172.78c0,2.53-2.84,3.45-2.85,5.38v.13h2.76v.85h-3.68v-.72c0-2.71,2.84-3.24,2.84-5.6,0-.86-.29-1.32-1-1.32s-1,.49-1,1.23v.75h-.87v-.69c0-1.28.58-2.13,1.88-2.13S209.19,171.5,209.19,172.78Z" style="fill:#263238"></path><path d="M256.6,178.69l-.09.26H251.8l.11-.26a3.19,3.19,0,0,0,.94-.11,1.11,1.11,0,0,0,.55-.34A3.79,3.79,0,0,0,254,177l2-5.9a3.72,3.72,0,0,0,.25-1.11.48.48,0,0,0-.11-.32.66.66,0,0,0-.33-.2,3.37,3.37,0,0,0-.88-.07l.1-.27h4.43l-.1.27a2.36,2.36,0,0,0-.8.1,1.41,1.41,0,0,0-.58.41,5.49,5.49,0,0,0-.51,1.19l-2,5.9a4.76,4.76,0,0,0-.27,1,.49.49,0,0,0,.11.31.66.66,0,0,0,.33.19A5,5,0,0,0,256.6,178.69Z" style="fill:#263238"></path><path d="M279,171.11v5.07a2.73,2.73,0,0,1-1,2.14,3.53,3.53,0,0,1-2.41.87,3.91,3.91,0,0,1-1.68-.35,3.38,3.38,0,0,1-1.25-1.08,2.64,2.64,0,0,1-.51-1.58v-5.07h-.6a.56.56,0,0,1-.36-.08.25.25,0,0,1-.11-.22.3.3,0,0,1,.11-.23.65.65,0,0,1,.36-.07h2.62a.56.56,0,0,1,.36.08.27.27,0,0,1,0,.44.56.56,0,0,1-.36.08h-1.31v5.07a2.17,2.17,0,0,0,.8,1.7,2.79,2.79,0,0,0,1.9.7,3,3,0,0,0,1.28-.27,2.76,2.76,0,0,0,1-.84,2.08,2.08,0,0,0,.44-1.29v-5.07h-1.31a.56.56,0,0,1-.36-.08.27.27,0,0,1,0-.44.56.56,0,0,1,.36-.08h2.62a.56.56,0,0,1,.36.08.28.28,0,0,1,0,.44.56.56,0,0,1-.36.08Z" style="fill:#263238"></path><path d="M246.3,170.74v8.4h-.94v-8.4Z" style="fill:#263238"></path><path d="M267,170.74v8.4H266v-8.4Z" style="fill:#263238"></path><path d="M287,170.74v8.4H286v-8.4Z" style="fill:#263238"></path><polygon points="188.86 177.55 192.62 173.64 185.11 173.64 188.86 177.55" style="fill:#263238"></polygon><polygon points="221.53 177.55 225.28 173.64 217.77 173.64 221.53 177.55" style="fill:#263238"></polygon><path d="M239.93,175.51a1.8,1.8,0,0,0-.33-.59,2,2,0,0,0-.51-.46,3.36,3.36,0,0,0-.66-.32v0a2.27,2.27,0,0,0,.93-.88,2.36,2.36,0,0,0,.28-1.15,2.5,2.5,0,0,0-.11-.71,2.34,2.34,0,0,0-.35-.66,2.77,2.77,0,0,0-.6-.58,2.92,2.92,0,0,0-.85-.41,5.54,5.54,0,0,0-1.74-.22h-4.1v1.33h.74v7h-.74v1.33h4.27l.58,0,.47-.06.4-.08a3.78,3.78,0,0,0,1.18-.51,2.87,2.87,0,0,0,.76-.7,2.2,2.2,0,0,0,.39-.78,2.68,2.68,0,0,0,.11-.76A2.19,2.19,0,0,0,239.93,175.51ZM234.4,171h1.46a5.72,5.72,0,0,1,.64,0l.46.08a1.18,1.18,0,0,1,.66.45,1.23,1.23,0,0,1,.2.68,1.36,1.36,0,0,1-.17.67,1.28,1.28,0,0,1-.57.46,3.24,3.24,0,0,1-1.08.14h-1.6Zm3.76,5.72a1.22,1.22,0,0,1-.22.38,1.44,1.44,0,0,1-.4.3,2.17,2.17,0,0,1-.61.21,3.74,3.74,0,0,1-.58.09c-.22,0-.48,0-.79,0H234.4V175h1.68a7,7,0,0,1,.72,0,2.21,2.21,0,0,1,.5.1,1.38,1.38,0,0,1,.7.45,1.17,1.17,0,0,1,.22.71A1.56,1.56,0,0,1,238.16,176.71Z" style="fill:#263238"></path><path d="M293.86,170.67a1,1,0,0,0-1.95,0,1,1,0,1,0,1.95,0Z" style="fill:none;stroke:#263238;stroke-miterlimit:10"></path><line x1="296.2" y1="171.06" x2="310.85" y2="171.06" style="fill:none;stroke:#263238;stroke-miterlimit:10"></line><path d="M293.86,175a1,1,0,1,0-1,1A1,1,0,0,0,293.86,175Z" style="fill:none;stroke:#263238;stroke-miterlimit:10"></path><line x1="296.2" y1="175.36" x2="310.85" y2="175.36" style="fill:none;stroke:#263238;stroke-miterlimit:10"></line><path d="M293.86,179.26a1,1,0,0,0-1.95,0,1,1,0,1,0,1.95,0Z" style="fill:none;stroke:#263238;stroke-miterlimit:10"></path><line x1="296.2" y1="179.65" x2="310.85" y2="179.65" style="fill:none;stroke:#263238;stroke-miterlimit:10"></line><path d="M318.53,170.67a1,1,0,1,0-1,1A1,1,0,0,0,318.53,170.67Z" style="fill:none;stroke:#263238;stroke-miterlimit:10"></path><line x1="320.87" y1="171.06" x2="335.51" y2="171.06" style="fill:none;stroke:#263238;stroke-miterlimit:10"></line><path d="M318.53,175a1,1,0,1,0-1.95,0,1,1,0,0,0,1.95,0Z" style="fill:none;stroke:#263238;stroke-miterlimit:10"></path><line x1="320.87" y1="175.36" x2="335.51" y2="175.36" style="fill:none;stroke:#263238;stroke-miterlimit:10"></line><path d="M318.53,179.26a1,1,0,1,0-1,1A1,1,0,0,0,318.53,179.26Z" style="fill:none;stroke:#263238;stroke-miterlimit:10"></path><line x1="320.87" y1="179.65" x2="335.51" y2="179.65" style="fill:none;stroke:#263238;stroke-miterlimit:10"></line><path d="M346.14,179.37c-1.22,1.31-2.95,1.68-3.87.82s-.67-2.61.55-3.92,3-1.68,3.87-.82S347.37,178.06,346.14,179.37Z" style="fill:none;stroke:#263238;stroke-miterlimit:10"></path><ellipse cx="348.92" cy="172.78" rx="3.24" ry="2.27" transform="translate(-15.36 310.24) rotate(-47.02)" style="fill:none;stroke:#263238;stroke-miterlimit:10"></ellipse><line x1="344.76" y1="177.39" x2="348.91" y2="173.1" style="fill:none;stroke:#263238;stroke-miterlimit:10"></line><line x1="370" y1="204.67" x2="397.33" y2="204.67" style="fill:none;stroke:#263238;stroke-miterlimit:10"></line><line x1="289.33" y1="204.67" x2="361.33" y2="204.67" style="fill:none;stroke:#263238;stroke-miterlimit:10"></line><line x1="220" y1="204.67" x2="280.67" y2="204.67" style="fill:none;stroke:#263238;stroke-miterlimit:10"></line><line x1="182.67" y1="204.67" x2="214.67" y2="204.67" style="fill:none;stroke:#263238;stroke-miterlimit:10"></line><line x1="142.67" y1="204.67" x2="176.67" y2="204.67" style="fill:none;stroke:#263238;stroke-miterlimit:10"></line><line x1="358" y1="220" x2="397.33" y2="220" style="fill:none;stroke:#263238;stroke-miterlimit:10"></line><line x1="258.67" y1="220" x2="351.33" y2="220" style="fill:none;stroke:#263238;stroke-miterlimit:10"></line><line x1="182" y1="220" x2="250" y2="220" style="fill:none;stroke:#263238;stroke-miterlimit:10"></line><line x1="142.67" y1="220" x2="176.67" y2="220" style="fill:none;stroke:#263238;stroke-miterlimit:10"></line><line x1="370.67" y1="235.33" x2="397.33" y2="235.33" style="fill:none;stroke:#263238;stroke-miterlimit:10"></line><line x1="291.33" y1="235.33" x2="364" y2="235.33" style="fill:none;stroke:#263238;stroke-miterlimit:10"></line><line x1="238" y1="235.33" x2="282.67" y2="235.33" style="fill:none;stroke:#263238;stroke-miterlimit:10"></line><line x1="179.33" y1="235.33" x2="230.67" y2="235.33" style="fill:none;stroke:#263238;stroke-miterlimit:10"></line><line x1="142.67" y1="235.33" x2="173.33" y2="235.33" style="fill:none;stroke:#263238;stroke-miterlimit:10"></line><line x1="388.67" y1="260.67" x2="397.33" y2="260.67" style="fill:none;stroke:#263238;stroke-miterlimit:10"></line><line x1="326.67" y1="260.67" x2="380.67" y2="260.67" style="fill:none;stroke:#263238;stroke-miterlimit:10"></line><line x1="246.67" y1="260.67" x2="319.33" y2="260.67" style="fill:none;stroke:#263238;stroke-miterlimit:10"></line><line x1="224" y1="260.67" x2="240.67" y2="260.67" style="fill:none;stroke:#263238;stroke-miterlimit:10"></line><line x1="161.33" y1="260.67" x2="217.33" y2="260.67" style="fill:none;stroke:#263238;stroke-miterlimit:10"></line><line x1="142.67" y1="260.67" x2="155.33" y2="260.67" style="fill:none;stroke:#263238;stroke-miterlimit:10"></line><rect x="165.33" y="222.67" width="68.67" height="76.67" style="fill:#263238;stroke:#263238;stroke-miterlimit:10"></rect><rect x="162.67" y="219.33" width="68.67" height="76.67" style="fill:#fff;stroke:#263238;stroke-miterlimit:10"></rect><line x1="168.67" y1="236" x2="224.67" y2="236" style="fill:none;stroke:#263238;stroke-miterlimit:10"></line><line x1="168.67" y1="251.33" x2="224.67" y2="251.33" style="fill:none;stroke:#263238;stroke-miterlimit:10"></line><line x1="168.67" y1="266.67" x2="224.67" y2="266.67" style="fill:none;stroke:#263238;stroke-miterlimit:10"></line><rect x="188" y="280" width="15.33" height="10" style="fill:#b5b5b5;stroke:#263238;stroke-miterlimit:10"></rect><rect x="206" y="280" width="15.33" height="10" style="fill:none;stroke:#263238;stroke-miterlimit:10"></rect></g><g id="freepik--Character--inject-29"><path d="M283.54,247.62a36.4,36.4,0,0,0-5.66,22.05c1.05,12.52,8.41,23,9.5,28.52s-4.32,14.91-2.78,16.91S294,317,294,317s12.86,14,17.74,14.74,12.89-6.61,12.89-6.61l9.07,10.26,26.77-20.64s-7-11.37-7.34-13.95,9.24-17.68,5.76-39.51S335,228.85,315.34,229,283.54,247.62,283.54,247.62Z" style="fill:#fff;stroke:#263238;stroke-linecap:round;stroke-linejoin:round"></path><path d="M340.84,278.12s-1.61-4.43-5.76-2.84-3.63,8.3-3.63,8.3,4.6-2.45,4.79-.84-2.59,3.29-2.59,3.29" style="fill:none;stroke:#263238;stroke-linecap:round;stroke-linejoin:round"></path><polygon points="324.62 325.16 334.75 317.89 328.91 329.41 324.62 325.16" style="fill:#263238;stroke:#263238;stroke-linecap:round;stroke-linejoin:round"></polygon><path d="M358.88,261.32C355.41,239.49,335,228.85,315.34,229s-31.8,18.62-31.8,18.62a36.58,36.58,0,0,0-5.4,14.41c.36-.33.78-.74,1.29-1.27,4.27-4.43,7.84-12.34,17.61-10.89s3.37,14.93,5.76,20.32,14.05,4.43,15.87,5.08,4.72,10.34,8.24,6.87,2.74-9.92,6.89-11.72,12.07,2.48,12.89,9.36-8.8,17.63-8.8,17.63,7.95,4.29,15.68,4.85a6,6,0,0,1-.45-1.43C352.81,298.25,362.36,283.15,358.88,261.32Z" style="fill:#263238;stroke:#263238;stroke-linecap:round;stroke-linejoin:round"></path><path d="M353.73,251s1.85-13.74,14.32-15.23,22.88,20,19.6,29.07S373,280.58,366,280.54,354.86,260.49,353.73,251Z" style="fill:#263238;stroke:#263238;stroke-linecap:round;stroke-linejoin:round"></path><path d="M299.58,316.37s7.36-.44,9.78-9.45" style="fill:none;stroke:#263238;stroke-linecap:round;stroke-linejoin:round"></path><path d="M294.47,293.22c.89,1.57,1.08,3.15.43,3.51s-1.89-.62-2.77-2.2-1.08-3.14-.43-3.51S293.59,291.64,294.47,293.22Z" style="fill:#263238"></path><path d="M300.92,289.53c2.33,5.51,1.54,11.1-1.76,12.5s-7.87-1.93-10.2-7.44-1.54-11.1,1.76-12.5S298.59,284,300.92,289.53Z" style="fill:none;stroke:#263238;stroke-linecap:round;stroke-linejoin:round"></path><line x1="288.96" y1="294.59" x2="284.22" y2="297.26" style="fill:none;stroke:#263238;stroke-linecap:round;stroke-linejoin:round"></line><line x1="300.12" y1="287.95" x2="329.63" y2="275.71" style="fill:none;stroke:#263238;stroke-linecap:round;stroke-linejoin:round"></line><path d="M286,284.92s.78-5,5.8-5.59" style="fill:none;stroke:#263238;stroke-linecap:round;stroke-linejoin:round;stroke-width:2px"></path><path d="M305.13,418.12,294,436.81l-91.85,8.74-27.44-6.36a31.23,31.23,0,0,1-5.56.4c-3.58,0-23.86,13.52-23.46,14.71s1.59,2.79,4.77,0,5.17-3.18,5.17-3.18-8.35,7.56-5.17,7.56,8.75-4,8.75-4-4.38,4.77-2,4.77S168,454.3,168,454.3s8,.8,15.51,2,17.89.4,17.89.4,85.1,7.68,89.47,7.55,28.63-27.43,28.63-27.43Z" style="fill:#263238;stroke:#263238;stroke-linecap:round;stroke-linejoin:round"></path><path d="M331.45,344.47s-6.49-9.1-3.89-12.56,29.45-20.36,35.08-19.49,8.66,17.32,8.66,17.32,17.32,12.56,18.62,35.51-8.23,65.84-9.53,75.8-1.3,34.21-1.3,34.21H317.16s-1.73-35.51-1.73-39S299.84,423.72,301.14,412s30.75-64.53,30.75-64.53Z" style="fill:#263238;stroke:#263238;stroke-linecap:round;stroke-linejoin:round"></path><path d="M364.37,349.23a26.85,26.85,0,0,0-20.36,9.1c-9.09,10-42.87,77.95-42.87,77.95s-85.76,12.56-93.55,10.83-19.49-4.76-20.79-5.2-15.48,1.76-20.25,3.06-16.35,9.83-15.44,10.93,5.66-.92,5.66-.92-3.1,2-1.1,2.38,6.4-1.46,6.4-1.46-2.93,2.74-.37,2.74,8.58-2.74,8.58-2.74-3.28,3.1-1.46,3.28,10.78-5.47,11.51-5.84,5.48,1.83,12.23,3.11a75.78,75.78,0,0,0,15.53.73s79.07,6.94,87.1,6.94,11.87,0,12.6-.55,63.55-71.59,67.57-76.7,4.57-5.85,4.57-5.85" style="fill:#fff;stroke:#263238;stroke-linecap:round;stroke-linejoin:round"></path><path d="M364.37,349.23a28.89,28.89,0,0,0-20.36,9.1c-3.24,3.54-9.61,14.46-16.47,27,6.73,1.32,19.89,5.69,31.64,20.16,8.5-9.69,15-17.13,16.18-18.66,4-5.11,5.53-7,5.53-7" style="fill:#263238;stroke:#263238;stroke-linecap:round;stroke-linejoin:round"></path><line x1="170.28" y1="455.9" x2="180.79" y2="448.77" style="fill:none;stroke:#263238;stroke-linecap:round;stroke-linejoin:round"></line><path d="M162.07,455.9s13-8.46,13.78-9" style="fill:none;stroke:#263238;stroke-linecap:round;stroke-linejoin:round"></path><path d="M156.77,455s8.45-6.78,14.15-8.87" style="fill:none;stroke:#263238;stroke-linecap:round;stroke-linejoin:round"></path><path d="M408.05,401.84h0a7.25,7.25,0,0,0-7,5.24l-19.85,68.18h15.13L415,411.13A7.27,7.27,0,0,0,408.05,401.84Z" style="fill:#1F385D;stroke:#263238;stroke-linecap:round;stroke-linejoin:round"></path></g><g id="freepik--Table--inject-29"><rect x="53.46" y="464.58" width="239.23" height="10.68" style="fill:#1F385D;stroke:#263238;stroke-linecap:round;stroke-linejoin:round"></rect><line x1="46.18" y1="475.26" x2="447.83" y2="475.26" style="fill:none;stroke:#263238;stroke-linecap:round;stroke-linejoin:round"></line></g></svg>