<svg xmlns="http://www.w3.org/2000/svg" viewBox="0 0 500 500"><g id="freepik--Pictures--inject-63"><g id="freepik--Picture--inject-63"><g id="freepik--Frame--inject-63"><polygon points="54.88 103.56 56.58 104.58 91.42 84.46 89.72 83.45 54.88 103.56" style="fill:#fafafa"></polygon><polygon points="89.72 83.45 56.58 102.58 56.58 67.87 89.72 48.75 89.72 83.45" style="fill:#fff"></polygon><path d="M94.62,42.21,53.37,66v44.11L94.62,86.31Zm-3.2,42.25L56.58,104.58V67.87L91.42,47.75Z" style="fill:#f0f0f0"></path><polygon points="91.42 84.46 89.72 83.45 89.72 48.75 91.42 47.76 91.42 84.46" style="fill:#e0e0e0"></polygon><polygon points="94.62 42.2 92.9 41.22 51.65 65.03 53.37 66.02 94.62 42.2" style="fill:#fafafa"></polygon><polygon points="51.65 65.03 53.37 66.02 53.37 110.13 51.65 109.14 51.65 65.03" style="fill:#e0e0e0"></polygon></g><g id="freepik--Land--inject-63"><polygon points="88.43 82.41 57.87 100.05 57.87 91.23 65.51 73.59 70.27 78 68.56 85.39 79.11 62.83 88.43 73.59 88.43 82.41" style="fill:#f0f0f0"></polygon><path d="M70,65.07A5,5,0,0,0,67.72,69c0,1.45,1,2,2.26,1.31a5,5,0,0,0,2.26-3.91C72.24,64.93,71.23,64.35,70,65.07Z" style="fill:#f0f0f0"></path></g></g><g id="freepik--picture--inject-63"><g id="freepik--frame--inject-63"><polygon points="54.88 169.53 56.58 170.55 91.42 150.43 89.72 149.42 54.88 169.53" style="fill:#fafafa"></polygon><polygon points="89.72 149.42 56.58 168.55 56.58 133.84 89.72 114.72 89.72 149.42" style="fill:#fff"></polygon><path d="M94.62,108.18,53.37,132V176.1l41.25-23.82Zm-3.2,42.25L56.58,170.55V133.84l34.84-20.11Z" style="fill:#f0f0f0"></path><polygon points="91.42 150.43 89.72 149.42 89.72 114.72 91.42 113.73 91.42 150.43" style="fill:#e0e0e0"></polygon><polygon points="94.62 108.18 92.9 107.19 51.65 131 53.37 131.99 94.62 108.18" style="fill:#fafafa"></polygon><polygon points="51.65 131 53.37 131.99 53.37 176.1 51.65 175.11 51.65 131" style="fill:#e0e0e0"></polygon></g><g id="freepik--land--inject-63"><polygon points="88.43 148.38 57.87 166.02 57.87 157.2 65.51 139.56 70.27 143.97 68.56 151.36 79.11 128.8 88.43 139.56 88.43 148.38" style="fill:#f0f0f0"></polygon><path d="M70,131A5,5,0,0,0,67.72,135c0,1.44,1,2,2.26,1.3a5,5,0,0,0,2.26-3.91C72.24,130.91,71.23,130.32,70,131Z" style="fill:#f0f0f0"></path></g></g></g><g id="freepik--side-table--inject-63"><g id="freepik--side-table--inject-63"><g id="freepik--side-table--inject-63"><polygon points="147.54 342.12 137.05 336.06 147.54 333.03 147.54 342.12" style="fill:#1F385D"></polygon><polygon points="147.54 342.12 137.05 336.06 147.54 333.03 147.54 342.12" style="fill:#fff;opacity:0.6000000000000001"></polygon><polygon points="147.54 342.12 137.05 336.06 147.54 333.03 147.54 342.12" style="opacity:0.05"></polygon><polygon points="147.54 342.12 152.79 339.09 152.79 330 147.54 333.03 147.54 342.12" style="fill:#1F385D"></polygon><polygon points="147.54 342.12 152.79 339.09 152.79 330 147.54 333.03 147.54 342.12" style="fill:#fff;opacity:0.75"></polygon><polygon points="94.98 363.38 94.98 373.04 31.01 336.22 31.01 326.56 94.98 363.38" style="fill:#1F385D"></polygon><polygon points="94.98 363.38 94.98 373.04 31.01 336.22 31.01 326.56 94.98 363.38" style="fill:#fff;opacity:0.6000000000000001"></polygon><polygon points="94.98 363.38 94.98 373.04 31.01 336.22 31.01 326.56 94.98 363.38" style="opacity:0.1"></polygon><polygon points="94.98 373.04 100.23 370.01 100.23 360.35 94.98 363.38 94.98 373.04" style="fill:#1F385D"></polygon><polygon points="94.98 373.04 100.23 370.01 100.23 360.35 94.98 363.38 94.98 373.04" style="fill:#fff;opacity:0.75"></polygon><polygon points="25.76 250.83 89.73 287.65 89.73 366.41 25.76 329.59 25.76 250.83" style="fill:#1F385D"></polygon><polygon points="25.76 250.83 89.73 287.65 89.73 366.41 25.76 329.59 25.76 250.83" style="fill:#fff;opacity:0.6000000000000001"></polygon><polygon points="89.73 287.65 158.03 248.21 158.03 326.98 89.73 366.41 89.73 287.65" style="fill:#1F385D"></polygon><polygon points="89.73 287.65 158.03 248.21 158.03 326.98 89.73 366.41 89.73 287.65" style="fill:#fff;opacity:0.75"></polygon><polygon points="158.03 248.21 94.06 211.39 25.76 250.83 89.73 287.65 158.03 248.21" style="fill:#1F385D"></polygon><polygon points="158.03 248.21 94.06 211.39 25.76 250.83 89.73 287.65 158.03 248.21" style="fill:#fff;opacity:0.85"></polygon><polygon points="94.98 314.91 152.79 281.54 152.79 323.95 94.98 357.32 94.98 314.91" style="fill:#1F385D"></polygon><polygon points="94.98 314.91 152.79 281.54 152.79 323.95 94.98 357.32 94.98 314.91" style="fill:#fff;opacity:0.7000000000000001"></polygon><polygon points="152.79 323.95 116.31 302.6 94.98 314.91 94.98 357.32 152.79 323.95" style="opacity:0.1"></polygon><polygon points="152.79 323.95 116.31 302.6 152.79 281.54 152.79 323.95" style="opacity:0.05"></polygon><polygon points="94.98 290.68 152.79 257.3 152.79 275.48 94.98 308.86 94.98 290.68" style="fill:#1F385D"></polygon><polygon points="94.98 290.68 152.79 257.3 152.79 275.48 94.98 308.86 94.98 290.68" style="fill:#fff;opacity:0.85"></polygon><path d="M112.89,284.16c0,.84,2.51.07,5.6-1.71l9.8-5.66c3.09-1.78,5.59-3.91,5.59-4.74v-1.52l-21,12.12Z" style="fill:#455a64"></path></g><path id="freepik--shadow--inject-63" d="M98.74,277.07c16.85-7.87,31.77-16.26,44.15-25.32,2.23-1.63,2.06-4.13-.33-5.51L94.41,218.38a9.57,9.57,0,0,0-8.66,0L41.66,243.75c-2.39,1.37-2.4,3.61,0,5l48.22,27.91A10.78,10.78,0,0,0,98.74,277.07Z" style="opacity:0.2"></path><g id="freepik--Typewriter--inject-63"><polygon points="43.73 229.91 90.98 202.65 90.98 229.85 55.09 250.56 45.05 243.38 43.73 229.91" style="fill:#e0e0e0"></polygon><polygon points="43.73 229.91 90.98 202.65 90.98 229.85 55.09 250.56 45.05 243.38 43.73 229.91" style="opacity:0.1"></polygon><path d="M94.47,200.6a6.44,6.44,0,0,0,2.79,5.11,2,2,0,0,0,2,.25l4.29-2.34a2,2,0,0,0,.88-1.84,6.39,6.39,0,0,0-2.79-5.11,2,2,0,0,0-2.05-.24l-4.28,2.33A2,2,0,0,0,94.47,200.6Z" style="fill:#e0e0e0"></path><path d="M94.19,196.34h0a3.36,3.36,0,0,1,3.47.38,10.69,10.69,0,0,1,4.63,8.49,3.34,3.34,0,0,1-1.54,3.12h0L54.64,233.48l-6.72-11.9Z" style="fill:#455a64"></path><path d="M56,230.46A10.72,10.72,0,0,0,51.4,222c-2.64-1.61-4.83-.41-4.91,2.67a10.7,10.7,0,0,0,4.64,8.5C53.76,234.74,56,233.54,56,230.46Z" style="fill:#37474f"></path><path d="M47.74,227a5.44,5.44,0,0,0,2.36,4.32,1.69,1.69,0,0,0,1.72.21l1.12-.61a1.72,1.72,0,0,0,.74-1.55,5.46,5.46,0,0,0-2.36-4.33,1.7,1.7,0,0,0-1.73-.2l-1.11.6A1.74,1.74,0,0,0,47.74,227Z" style="fill:#e0e0e0"></path><ellipse cx="50.17" cy="228.49" rx="2.01" ry="3.48" transform="translate(-103.3 51.93) rotate(-28.61)" style="fill:#fafafa"></ellipse><path d="M91.58,197.77,52.52,219.08c-2.39-3.13-4.76-5.9-7-8.31l38.32-22.12A112.75,112.75,0,0,1,91.58,197.77Z" style="fill:#fafafa"></path><path d="M91.58,197.77a3.37,3.37,0,0,1,3.41.42,10.65,10.65,0,0,1,4.63,8.49,3.47,3.47,0,0,1-1.37,3L59.19,231a3.48,3.48,0,0,0,1.37-3,10.66,10.66,0,0,0-4.63-8.49,3.4,3.4,0,0,0-3.41-.43Z" style="fill:#f5f5f5"></path><path d="M99.22,204a8.51,8.51,0,0,1,.4,2.68,3.47,3.47,0,0,1-1.37,3L59.19,231a3.48,3.48,0,0,0,1.37-3,8.53,8.53,0,0,0-.41-2.68Z" style="fill:#e6e6e6"></path><polygon points="93.88 196.51 93.9 195.57 47.95 220.64 47.92 221.58 93.88 196.51" style="fill:#e0e0e0"></polygon><path d="M96.87,222.1a315.29,315.29,0,0,0,44.56,27.15.81.81,0,0,0,1.28-.76l.06-2.44a3.78,3.78,0,0,0-1-2.39l-11.31-11.43a6.67,6.67,0,0,1-1.41-2.32l-3.37-10.53a4.26,4.26,0,0,0-1.61-2.06L106.39,206.5c-.66-.4-1.21-.1-1.23.67l-.18,7.68c0,.77-.57,1.07-1.23.67l-6.55-4c-.66-.4-1.21-.1-1.23.67l-.18,7.67A3,3,0,0,0,96.87,222.1Z" style="fill:#e0e0e0"></path><polygon points="98.3 209.66 59.24 230.97 70.41 237.79 109.47 216.48 98.3 209.66" style="fill:#e0e0e0"></polygon><polygon points="98.3 209.66 59.24 230.97 70.41 237.79 109.47 216.48 98.3 209.66" style="opacity:0.1"></polygon><path d="M91.41,213.42c-.15,6.12-4.62,13.45-10,16.38s-9.6.34-9.46-5.77Z" style="fill:#e0e0e0"></path><path d="M87.25,215.69a12.16,12.16,0,0,1-5.72,9.36c-3.07,1.67-5.49.2-5.4-3.3Z" style="fill:#ebebeb"></path><path d="M47.72,238.63l-.19,7.68a3,3,0,0,0,1.08,2.23A315.08,315.08,0,0,0,93.18,275.7l.17.08a3.22,3.22,0,0,0,2.33,0c17.83-8.54,32-16.13,45.82-25a3,3,0,0,0,1.21-2.16l.06-2.44a3.84,3.84,0,0,0-.85-2.28l-.1-.1L130.5,232.35a6.76,6.76,0,0,1-1.4-2.31l-3.37-10.54a4,4,0,0,0-.68-1.19,4.49,4.49,0,0,0-.73-.72,1.86,1.86,0,0,0-.2-.14l-17.73-10.82a2.68,2.68,0,0,0-2.42-.06L88,215.26a.74.74,0,0,0,0,1.4l2.09,1.27a2.68,2.68,0,0,0,2.42.06l6.74-3.68a2.66,2.66,0,0,1,2.41.06l2.09,1.27a.74.74,0,0,1,0,1.4L76.29,232a2.69,2.69,0,0,1-2.41-.06l-2.09-1.28c-.66-.4-.64-1,0-1.39l6.74-3.68a.73.73,0,0,0,0-1.39l-2.09-1.28a2.66,2.66,0,0,0-2.41,0l-15.93,8.69a.71.71,0,0,0-.22.15,2.74,2.74,0,0,0-1,1.71c0,.07,0,.13,0,.2l-.19,7.68c0,.77-.57,1.06-1.22.66l-6.56-4C48.28,237.56,47.73,237.86,47.72,238.63ZM139,245.25A335,335,0,0,1,96.2,268.53a2.18,2.18,0,0,1-2.26-.42L83.72,257.79a6.84,6.84,0,0,1-1.4-2.33l-1-3.2a1.74,1.74,0,0,1,.8-2l42.81-23.36a1.11,1.11,0,0,1,1.65.66l1.06,3.36a7.09,7.09,0,0,0,1.41,2.32l10.15,10.25A1.08,1.08,0,0,1,139,245.25Z" style="fill:#ebebeb"></path><path d="M43.38,230.67c0-.77.56-1.07,1.22-.66l2.09,1.27a2.68,2.68,0,0,1,1.15,2.12l-.06,2.44A2.72,2.72,0,0,0,48.94,238l6.56,4c.65.4,1.2.1,1.22-.66l.19-7.68c0-.77.57-1.07,1.22-.67l17.73,10.82a4.36,4.36,0,0,1,1.62,2l3.36,10.54a7.09,7.09,0,0,0,1.41,2.32l11.32,11.43a3.74,3.74,0,0,1,.94,2.38l-.06,2.45a.81.81,0,0,1-1.28.76c-16.7-8.55-35.9-20.15-49-29.89a3,3,0,0,1-1.09-2.23l.22-9.07Z" style="fill:#e0e0e0"></path><path d="M58.14,233l17.72,10.82a4.27,4.27,0,0,1,1.62,2l3.37,10.54a6.9,6.9,0,0,0,1.4,2.32l11.31,11.43a2.18,2.18,0,0,0,2.26.42,335.09,335.09,0,0,0,45.81-25,1.09,1.09,0,0,0,.29-1.65l-.1-.1L130.5,232.35a6.76,6.76,0,0,1-1.4-2.31l-3.37-10.54a4,4,0,0,0-.68-1.19,4.49,4.49,0,0,0-.73-.72,1.86,1.86,0,0,0-.2-.14l-17.73-10.82a2.68,2.68,0,0,0-2.42-.06L88,215.26a.74.74,0,0,0,0,1.4l2.09,1.27a2.68,2.68,0,0,0,2.42.06l6.74-3.68a2.66,2.66,0,0,1,2.41.06l2.09,1.27a.74.74,0,0,1,0,1.4L76.29,232a2.69,2.69,0,0,1-2.41-.06l-2.09-1.28c-.66-.4-.64-1,0-1.39l6.74-3.68a.73.73,0,0,0,0-1.39l-2.09-1.28a2.66,2.66,0,0,0-2.41,0l-15.93,8.69a.71.71,0,0,0-.22.15C57.5,232.08,57.56,232.6,58.14,233Zm24,17.32,42.81-23.36a1.11,1.11,0,0,1,1.65.66l1.06,3.36a7.09,7.09,0,0,0,1.41,2.32l10.15,10.25a1.08,1.08,0,0,1-.19,1.75A335,335,0,0,1,96.2,268.53a2.18,2.18,0,0,1-2.26-.42L83.72,257.79a6.84,6.84,0,0,1-1.4-2.33l-1-3.2A1.74,1.74,0,0,1,82.1,250.27Z" style="fill:#f0f0f0"></path><path d="M58.17,231.56l15.93-8.69a2.68,2.68,0,0,1,2.42,0l2.08,1.28a.73.73,0,0,1,0,1.39l-6.74,3.68a.73.73,0,0,0,0,1.39l2.09,1.28a2.71,2.71,0,0,0,2.42.06l27.42-15a.74.74,0,0,0,0-1.4l-2.09-1.27a2.66,2.66,0,0,0-2.41-.06L92.51,218a2.68,2.68,0,0,1-2.42-.06L88,216.66a.74.74,0,0,1,0-1.4L104,206.57a2.68,2.68,0,0,1,2.42.06l17.72,10.81a4,4,0,0,1,.94.87L76.8,244.63a3.93,3.93,0,0,0-.94-.86L58.13,233A.73.73,0,0,1,58.17,231.56Z" style="fill:#fafafa"></path><g id="freepik--Keys--inject-63"><path d="M131.86,243.88s0-.06.08-.09l3.14-1.71a.3.3,0,0,1,.29,0l1.9,1.16s0,0,0,.07,0,1.28,0,1.31a.12.12,0,0,1-.07.09l-3.15,1.72a.37.37,0,0,1-.29,0l-1.9-1.16a.1.1,0,0,1,0-.08S131.86,243.91,131.86,243.88Z" style="fill:#37474f"></path><path d="M131.94,243.79l2.07-1.13-.09,3.8a.32.32,0,0,1-.14,0l-1.9-1.16a.1.1,0,0,1,0-.08s0-1.28,0-1.31S131.89,243.82,131.94,243.79Z" style="fill:#263238"></path><path d="M133.81,245.12a.32.32,0,0,0,.3,0l3.14-1.72c.09,0,.09-.12,0-.16l-1.9-1.16a.3.3,0,0,0-.29,0l-3.14,1.71c-.09.05-.1.13,0,.17Z" style="fill:#455a64"></path><path d="M128.41,245.77a.1.1,0,0,1,.07-.09l2.51-1.37a.35.35,0,0,1,.3,0l1.89,1.16a.09.09,0,0,1,.06.08s0,1.28,0,1.31,0,.06-.07.09l-2.51,1.37a.3.3,0,0,1-.29,0l-1.9-1.16s-.05,0-.05-.07S128.41,245.8,128.41,245.77Z" style="fill:#37474f"></path><path d="M128.48,245.68l2.07-1.13-.09,3.8c-.05,0-.1,0-.13,0l-1.9-1.16s-.05,0-.05-.07,0-1.28,0-1.31A.1.1,0,0,1,128.48,245.68Z" style="fill:#263238"></path><path d="M130.36,247a.33.33,0,0,0,.29,0l2.51-1.37c.09,0,.1-.12,0-.17l-1.9-1.16a.35.35,0,0,0-.3,0l-2.51,1.37c-.09,0-.1.12,0,.17Z" style="fill:#455a64"></path><path d="M125,247.65s0-.06.07-.09l2.52-1.37a.3.3,0,0,1,.29,0l1.9,1.16a.1.1,0,0,1,.05.08s0,1.28,0,1.31,0,.06-.07.08l-2.52,1.38a.37.37,0,0,1-.29,0L125,249a.1.1,0,0,1,0-.08S125,247.68,125,247.65Z" style="fill:#37474f"></path><path d="M125,247.56l2.08-1.13-.1,3.8a.28.28,0,0,1-.13,0L125,249a.1.1,0,0,1,0-.08s0-1.28,0-1.31S125,247.59,125,247.56Z" style="fill:#263238"></path><path d="M126.9,248.89a.32.32,0,0,0,.3,0l2.51-1.37c.08-.05.09-.13,0-.17l-1.9-1.16a.33.33,0,0,0-.29,0L125,247.56c-.08.05-.09.13,0,.17Z" style="fill:#455a64"></path><path d="M107.2,257.34a.11.11,0,0,1,.07-.09l16.81-9.17a.33.33,0,0,1,.29,0l1.9,1.16s.06.05,0,.08,0,1.28,0,1.31a.1.1,0,0,1-.07.09l-16.81,9.17a.3.3,0,0,1-.29,0l-1.9-1.16a.1.1,0,0,1,0-.07S107.2,257.37,107.2,257.34Z" style="fill:#37474f"></path><path d="M107.27,257.25l2.08-1.13-.1,3.79a.28.28,0,0,1-.13,0l-1.9-1.16a.1.1,0,0,1,0-.07s0-1.28,0-1.31A.11.11,0,0,1,107.27,257.25Z" style="fill:#263238"></path><path d="M109.15,258.57a.32.32,0,0,0,.3,0l16.8-9.17c.09-.05.1-.12,0-.17l-1.9-1.16a.33.33,0,0,0-.29,0l-16.81,9.17c-.08,0-.09.12,0,.16Z" style="fill:#455a64"></path><path d="M103.75,259.22s0-.06.07-.09l2.51-1.37a.3.3,0,0,1,.29,0l1.9,1.16s.06.05,0,.07,0,1.28,0,1.31a.09.09,0,0,1-.07.09L106,261.76a.33.33,0,0,1-.29,0l-1.9-1.16s-.06-.05,0-.08S103.75,259.25,103.75,259.22Z" style="fill:#37474f"></path><path d="M103.82,259.13l2.07-1.13-.09,3.8a.25.25,0,0,1-.13,0l-1.9-1.16s-.06-.05,0-.08,0-1.28,0-1.31S103.77,259.16,103.82,259.13Z" style="fill:#263238"></path><path d="M105.7,260.46a.36.36,0,0,0,.29,0l2.51-1.37c.09,0,.1-.13,0-.17l-1.89-1.16a.32.32,0,0,0-.3,0l-2.51,1.37c-.09.05-.1.12,0,.17Z" style="fill:#455a64"></path><path d="M100.29,261.11a.11.11,0,0,1,.07-.09l2.52-1.37a.33.33,0,0,1,.29,0l1.9,1.16a.1.1,0,0,1,.05.08s0,1.28,0,1.31,0,.06-.07.09l-2.52,1.37a.3.3,0,0,1-.29,0l-1.9-1.16a.1.1,0,0,1,0-.07S100.29,261.14,100.29,261.11Z" style="fill:#37474f"></path><path d="M100.36,261l2.08-1.13-.1,3.79a.28.28,0,0,1-.13,0l-1.9-1.16a.1.1,0,0,1,0-.07s0-1.28,0-1.31A.11.11,0,0,1,100.36,261Z" style="fill:#263238"></path><path d="M102.24,262.34a.32.32,0,0,0,.3,0l2.51-1.37c.08-.05.09-.12,0-.17l-1.9-1.16a.33.33,0,0,0-.29,0L100.36,261a.09.09,0,0,0,0,.17Z" style="fill:#455a64"></path><path d="M96.84,263s0-.06.07-.09l2.51-1.37a.3.3,0,0,1,.29,0l1.9,1.16s.06.05,0,.07,0,1.29,0,1.31a.09.09,0,0,1-.07.09l-2.51,1.37a.33.33,0,0,1-.29,0l-1.9-1.16s-.06-.05,0-.08S96.84,263,96.84,263Z" style="fill:#37474f"></path><path d="M96.91,262.9,99,261.77l-.09,3.8a.25.25,0,0,1-.13,0l-1.9-1.16s-.06-.05,0-.08,0-1.28,0-1.31S96.86,262.93,96.91,262.9Z" style="fill:#263238"></path><path d="M98.79,264.23a.33.33,0,0,0,.29,0l2.51-1.37c.09-.05.1-.13,0-.17l-1.89-1.16a.32.32,0,0,0-.3,0l-2.51,1.37c-.09.05-.1.12,0,.17Z" style="fill:#455a64"></path><path d="M92.75,265.22a.12.12,0,0,1,.07-.09L96,263.42a.33.33,0,0,1,.29,0l1.9,1.16a.1.1,0,0,1,0,.08s0,1.28,0,1.31,0,.06-.07.09L95,267.76a.33.33,0,0,1-.29,0l-1.9-1.16a.1.1,0,0,1,0-.08S92.75,265.25,92.75,265.22Z" style="fill:#37474f"></path><path d="M92.82,265.13,94.89,264l-.09,3.8a.25.25,0,0,1-.13,0l-1.9-1.16a.1.1,0,0,1,0-.08s0-1.28,0-1.31A.12.12,0,0,1,92.82,265.13Z" style="fill:#263238"></path><path d="M94.7,266.46a.33.33,0,0,0,.29,0l3.15-1.71c.08-.05.09-.12,0-.17l-1.9-1.16a.33.33,0,0,0-.29,0l-3.15,1.71c-.08.05-.09.12,0,.17Z" style="fill:#455a64"></path><path d="M129.82,240.21s0-.06.07-.09l2.51-1.37a.32.32,0,0,1,.3,0l1.9,1.16a.1.1,0,0,1,.05.07s0,1.28,0,1.31a.1.1,0,0,1-.07.09L132,242.75a.33.33,0,0,1-.29,0l-1.9-1.16a.08.08,0,0,1-.05-.08S129.82,240.24,129.82,240.21Z" style="fill:#37474f"></path><path d="M129.89,240.12,132,239l-.09,3.8a.25.25,0,0,1-.13,0l-1.9-1.16a.08.08,0,0,1-.05-.08s0-1.28,0-1.31S129.84,240.15,129.89,240.12Z" style="fill:#263238"></path><path d="M131.77,241.45a.37.37,0,0,0,.29,0l2.52-1.38c.08,0,.09-.12,0-.16l-1.9-1.16a.32.32,0,0,0-.3,0l-2.51,1.37c-.09,0-.1.12,0,.17Z" style="fill:#455a64"></path><path d="M126.83,241.84a.14.14,0,0,1,.08-.09l2-1.12a.37.37,0,0,1,.29,0l1.9,1.16a.08.08,0,0,1,.05.08s0,1.28,0,1.31,0,.06-.07.09l-2,1.11a.32.32,0,0,1-.3,0l-1.9-1.15s0,0,0-.08S126.83,241.87,126.83,241.84Z" style="fill:#37474f"></path><path d="M126.91,241.75l2,1.27,0,1.4a.33.33,0,0,1-.14,0l-1.9-1.15s0,0,0-.08,0-1.28,0-1.31A.14.14,0,0,1,126.91,241.75Z" style="fill:#263238"></path><path d="M128.79,243.08a.33.33,0,0,0,.29,0l2-1.11c.09-.05.1-.12,0-.17l-1.9-1.16a.36.36,0,0,0-.29,0l-2,1.12c-.09.05-.1.12,0,.17Z" style="fill:#455a64"></path><path d="M123.85,243.47a.12.12,0,0,1,.07-.09l2-1.12a.35.35,0,0,1,.3,0l1.9,1.16a.1.1,0,0,1,.05.08s0,1.28,0,1.31,0,.06-.07.09l-2,1.11a.3.3,0,0,1-.29,0l-1.9-1.16s-.05,0-.05-.07S123.85,243.5,123.85,243.47Z" style="fill:#37474f"></path><path d="M123.92,243.38l2,1.27,0,1.39a.25.25,0,0,1-.13,0l-1.9-1.16s-.05,0-.05-.07,0-1.28,0-1.31A.12.12,0,0,1,123.92,243.38Z" style="fill:#263238"></path><path d="M125.8,244.7a.3.3,0,0,0,.29,0l2-1.11c.09-.05.1-.13,0-.17l-1.9-1.16a.35.35,0,0,0-.3,0l-2,1.12a.09.09,0,0,0,0,.17Z" style="fill:#455a64"></path><path d="M120.87,245.1a.09.09,0,0,1,.07-.09l2-1.12a.3.3,0,0,1,.29,0l1.9,1.16a.08.08,0,0,1,0,.08s0,1.28,0,1.3a.11.11,0,0,1-.07.09l-2,1.12a.32.32,0,0,1-.3,0l-1.9-1.16a.1.1,0,0,1,0-.07S120.86,245.12,120.87,245.1Z" style="fill:#37474f"></path><path d="M120.94,245l2,1.27,0,1.39a.32.32,0,0,1-.14,0l-1.9-1.16a.1.1,0,0,1,0-.07s0-1.29,0-1.31A.09.09,0,0,1,120.94,245Z" style="fill:#263238"></path><path d="M122.82,246.33a.3.3,0,0,0,.29,0l2-1.11c.09-.05.1-.13,0-.17l-1.9-1.16a.3.3,0,0,0-.29,0l-2,1.12c-.09,0-.1.12,0,.16Z" style="fill:#455a64"></path><path d="M117.88,246.72s0-.06.07-.09l2-1.11a.32.32,0,0,1,.3,0l1.9,1.16a.1.1,0,0,1,0,.07s0,1.28,0,1.31a.14.14,0,0,1-.08.09l-2,1.12a.37.37,0,0,1-.29,0l-1.9-1.16a.1.1,0,0,1-.05-.08S117.88,246.75,117.88,246.72Z" style="fill:#37474f"></path><path d="M118,246.63l2,1.28,0,1.39a.25.25,0,0,1-.13,0l-1.9-1.16a.08.08,0,0,1-.05-.08s0-1.28,0-1.31S117.91,246.66,118,246.63Z" style="fill:#263238"></path><path d="M119.83,248a.3.3,0,0,0,.29,0l2-1.12c.08,0,.09-.12,0-.16l-1.9-1.16a.3.3,0,0,0-.29,0l-2,1.11c-.08.05-.09.13,0,.17Z" style="fill:#455a64"></path><path d="M114.9,248.35s0-.06.07-.09l2-1.11a.33.33,0,0,1,.29,0l1.9,1.16s0,0,0,.08,0,1.28,0,1.31a.12.12,0,0,1-.07.09l-2,1.11a.35.35,0,0,1-.3,0l-1.89-1.16a.09.09,0,0,1-.06-.08S114.9,248.38,114.9,248.35Z" style="fill:#37474f"></path><path d="M115,248.26l2,1.28,0,1.39a.32.32,0,0,1-.14,0l-1.89-1.16a.09.09,0,0,1-.06-.08s0-1.28,0-1.31S114.92,248.29,115,248.26Z" style="fill:#263238"></path><path d="M116.85,249.59a.33.33,0,0,0,.29,0l2-1.12c.09,0,.1-.12,0-.17l-1.9-1.16a.33.33,0,0,0-.29,0l-2,1.11c-.09.05-.1.12,0,.17Z" style="fill:#455a64"></path><path d="M111.91,250s0-.06.07-.09l2-1.11a.33.33,0,0,1,.29,0l1.9,1.16a.1.1,0,0,1,0,.08s0,1.28,0,1.31a.16.16,0,0,1-.08.09l-2,1.11a.33.33,0,0,1-.29,0l-1.9-1.16a.1.1,0,0,1-.05-.08S111.91,250,111.91,250Z" style="fill:#37474f"></path><path d="M112,249.89l2,1.28,0,1.39a.28.28,0,0,1-.13,0l-1.9-1.16a.1.1,0,0,1-.05-.08s0-1.28,0-1.31S111.94,249.92,112,249.89Z" style="fill:#263238"></path><path d="M113.86,251.22a.35.35,0,0,0,.3,0l2-1.11c.08,0,.09-.12,0-.17l-1.9-1.16a.33.33,0,0,0-.29,0l-2,1.11c-.08.05-.09.12,0,.17Z" style="fill:#455a64"></path><path d="M108.93,251.61a.1.1,0,0,1,.07-.09l2-1.12a.36.36,0,0,1,.29,0l1.9,1.16a.08.08,0,0,1,0,.08s0,1.28,0,1.31,0,.06-.07.09l-2,1.11a.3.3,0,0,1-.29,0L109,253s0,0,0-.07S108.93,251.64,108.93,251.61Z" style="fill:#37474f"></path><path d="M109,251.52l2,1.27,0,1.4s-.1,0-.13,0L109,253s0,0,0-.07,0-1.28,0-1.31A.1.1,0,0,1,109,251.52Z" style="fill:#263238"></path><path d="M110.88,252.85a.33.33,0,0,0,.29,0l2-1.11c.09,0,.1-.12,0-.17l-1.9-1.16a.36.36,0,0,0-.29,0l-2,1.12c-.09,0-.1.12,0,.17Z" style="fill:#455a64"></path><path d="M105.94,253.24a.11.11,0,0,1,.07-.09l2-1.12a.33.33,0,0,1,.29,0l1.9,1.16a.1.1,0,0,1,0,.08s0,1.28,0,1.31,0,.06-.07.09l-2,1.11a.3.3,0,0,1-.29,0l-1.9-1.16a.1.1,0,0,1,0-.07S105.94,253.27,105.94,253.24Z" style="fill:#37474f"></path><path d="M106,253.15l2,1.27,0,1.39a.31.31,0,0,1-.13,0l-1.9-1.16a.1.1,0,0,1,0-.07s0-1.28,0-1.31A.11.11,0,0,1,106,253.15Z" style="fill:#263238"></path><path d="M107.89,254.47a.32.32,0,0,0,.3,0l2-1.11c.08-.05.09-.13,0-.17l-1.9-1.16a.33.33,0,0,0-.29,0l-2,1.12c-.09,0-.1.12,0,.17Z" style="fill:#455a64"></path><path d="M103,254.87s0-.07.07-.1l2-1.11a.32.32,0,0,1,.3,0l1.89,1.16s.06.05,0,.08,0,1.28,0,1.3a.09.09,0,0,1-.07.09l-2,1.12a.3.3,0,0,1-.29,0l-1.9-1.16a.08.08,0,0,1,0-.07S103,254.89,103,254.87Z" style="fill:#37474f"></path><path d="M103,254.77l2,1.28,0,1.39a.25.25,0,0,1-.13,0l-1.9-1.16a.08.08,0,0,1,0-.07s0-1.29,0-1.31S103,254.8,103,254.77Z" style="fill:#263238"></path><path d="M104.91,256.1a.3.3,0,0,0,.29,0l2-1.11c.09-.05.1-.13,0-.17l-1.9-1.16a.32.32,0,0,0-.3,0l-2,1.12c-.09,0-.1.12,0,.16Z" style="fill:#455a64"></path><path d="M100,256.49a.16.16,0,0,1,.08-.09l2-1.11a.3.3,0,0,1,.29,0l1.9,1.16s0,0,0,.07,0,1.28,0,1.31a.12.12,0,0,1-.07.09l-2,1.12a.39.39,0,0,1-.3,0l-1.9-1.16a.1.1,0,0,1,0-.08S100,256.52,100,256.49Z" style="fill:#37474f"></path><path d="M100.05,256.4l2,1.28,0,1.39a.32.32,0,0,1-.14,0l-1.9-1.16a.1.1,0,0,1,0-.08s0-1.28,0-1.31A.16.16,0,0,1,100.05,256.4Z" style="fill:#263238"></path><path d="M101.93,257.73a.3.3,0,0,0,.29,0l2-1.12c.09,0,.1-.12,0-.16l-1.9-1.16a.3.3,0,0,0-.29,0l-2,1.11c-.09.05-.1.13,0,.17Z" style="fill:#455a64"></path><path d="M97,258.12s0-.06.07-.09l2-1.11a.35.35,0,0,1,.3,0l1.9,1.16s0,.05,0,.08,0,1.28,0,1.31a.1.1,0,0,1-.07.09l-2,1.11a.33.33,0,0,1-.29,0L97,259.51a.08.08,0,0,1-.05-.08S97,258.15,97,258.12Z" style="fill:#37474f"></path><path d="M97.06,258l2,1.28,0,1.39a.25.25,0,0,1-.13,0L97,259.51a.08.08,0,0,1-.05-.08s0-1.28,0-1.31S97,258.06,97.06,258Z" style="fill:#263238"></path><path d="M98.94,259.36a.37.37,0,0,0,.29,0l2-1.12c.09,0,.1-.12,0-.17l-1.9-1.16a.35.35,0,0,0-.3,0l-2,1.11c-.08.05-.09.12,0,.17Z" style="fill:#455a64"></path><path d="M90.08,261.89s0-.06.07-.09l6-3.25a.33.33,0,0,1,.29,0l1.9,1.16a.08.08,0,0,1,0,.08s0,1.28,0,1.31,0,.06-.07.09l-6,3.25a.33.33,0,0,1-.29,0l-1.9-1.16s-.06,0,0-.08S90.08,261.92,90.08,261.89Z" style="fill:#37474f"></path><path d="M90.15,261.8l2,1.28,0,1.39a.25.25,0,0,1-.13,0l-1.9-1.16s-.06,0,0-.08,0-1.28,0-1.31S90.1,261.83,90.15,261.8Z" style="fill:#263238"></path><path d="M92,263.13a.33.33,0,0,0,.29,0l6-3.25c.09-.05.1-.12,0-.17l-1.9-1.16a.33.33,0,0,0-.29,0l-6,3.25c-.09.05-.1.12,0,.17Z" style="fill:#455a64"></path><path d="M125.73,237.65s0-.06.07-.09l3.93-2.14a.3.3,0,0,1,.29,0l1.9,1.16a.08.08,0,0,1,.05.07s0,1.28,0,1.31a.11.11,0,0,1-.07.09l-3.93,2.15a.37.37,0,0,1-.29,0l-1.9-1.16a.1.1,0,0,1,0-.08S125.73,237.68,125.73,237.65Z" style="fill:#37474f"></path><path d="M125.8,237.56l2.08-1.13-.1,3.8a.28.28,0,0,1-.13,0l-1.9-1.16a.1.1,0,0,1,0-.08s0-1.28,0-1.31S125.76,237.59,125.8,237.56Z" style="fill:#263238"></path><path d="M127.68,238.89a.35.35,0,0,0,.3,0l3.92-2.15c.09,0,.1-.12,0-.16l-1.9-1.16a.3.3,0,0,0-.29,0l-3.93,2.14c-.08.05-.09.13,0,.17Z" style="fill:#455a64"></path><path d="M122.75,239.28s0-.06.07-.09l2-1.11a.33.33,0,0,1,.29,0l1.9,1.16a.08.08,0,0,1,0,.08s0,1.28,0,1.31,0,.06-.07.09l-2,1.11a.33.33,0,0,1-.29,0l-1.9-1.16a.09.09,0,0,1-.06-.08S122.75,239.31,122.75,239.28Z" style="fill:#37474f"></path><path d="M122.82,239.19l2,1.28,0,1.39a.25.25,0,0,1-.13,0l-1.9-1.16s-.06,0,0-.08,0-1.28,0-1.31S122.77,239.22,122.82,239.19Z" style="fill:#263238"></path><path d="M124.7,240.52a.36.36,0,0,0,.29,0l2-1.12c.09-.05.1-.12,0-.17l-1.9-1.16a.33.33,0,0,0-.29,0l-2,1.11c-.09.05-.1.12,0,.17Z" style="fill:#455a64"></path><path d="M119.76,240.91a.12.12,0,0,1,.07-.09l2-1.12a.37.37,0,0,1,.29,0l1.9,1.16a.1.1,0,0,1,.05.08s0,1.28,0,1.31a.18.18,0,0,1-.07.09l-2,1.11a.3.3,0,0,1-.29,0l-1.9-1.15s0-.05,0-.08S119.76,240.94,119.76,240.91Z" style="fill:#37474f"></path><path d="M119.83,240.82l2,1.27,0,1.4a.28.28,0,0,1-.13,0l-1.9-1.15s0-.05,0-.08,0-1.28,0-1.31A.12.12,0,0,1,119.83,240.82Z" style="fill:#263238"></path><path d="M121.71,242.15a.35.35,0,0,0,.3,0l2-1.11c.08-.05.09-.12,0-.17l-1.9-1.16a.37.37,0,0,0-.29,0l-2,1.12c-.08.05-.09.12,0,.17Z" style="fill:#455a64"></path><path d="M116.78,242.54a.1.1,0,0,1,.07-.09l2-1.12a.33.33,0,0,1,.29,0l1.9,1.16s.06,0,0,.08,0,1.28,0,1.31,0,.06-.07.09l-2,1.11a.3.3,0,0,1-.29,0l-1.9-1.16s0,0,0-.07S116.78,242.57,116.78,242.54Z" style="fill:#37474f"></path><path d="M116.85,242.45l2,1.27,0,1.39a.25.25,0,0,1-.13,0l-1.9-1.16s0,0,0-.07,0-1.28,0-1.31A.1.1,0,0,1,116.85,242.45Z" style="fill:#263238"></path><path d="M118.73,243.77a.3.3,0,0,0,.29,0l2-1.11c.09,0,.1-.13,0-.17l-1.89-1.16a.35.35,0,0,0-.3,0l-2,1.12c-.09,0-.1.12,0,.17Z" style="fill:#455a64"></path><path d="M113.79,244.17a.15.15,0,0,1,.08-.1l2-1.11a.3.3,0,0,1,.29,0l1.9,1.16a.1.1,0,0,1,.05.07s0,1.29,0,1.31a.11.11,0,0,1-.07.09l-2,1.12a.32.32,0,0,1-.3,0l-1.9-1.16a.1.1,0,0,1,0-.07S113.79,244.19,113.79,244.17Z" style="fill:#37474f"></path><path d="M113.87,244.07l2,1.28,0,1.39a.32.32,0,0,1-.14,0l-1.9-1.16a.1.1,0,0,1,0-.07s0-1.29,0-1.31A.15.15,0,0,1,113.87,244.07Z" style="fill:#263238"></path><path d="M115.74,245.4a.32.32,0,0,0,.3,0l2-1.11c.09,0,.1-.13,0-.17L116.2,243a.3.3,0,0,0-.29,0l-2,1.12c-.09,0-.1.12,0,.16Z" style="fill:#455a64"></path><path d="M110.81,245.79s0-.06.07-.09l2-1.11a.32.32,0,0,1,.3,0l1.9,1.16s0,0,0,.07,0,1.28,0,1.31a.1.1,0,0,1-.07.09l-2,1.12a.36.36,0,0,1-.29,0l-1.9-1.16a.08.08,0,0,1,0-.08S110.81,245.82,110.81,245.79Z" style="fill:#37474f"></path><path d="M110.88,245.7l2,1.28,0,1.39a.25.25,0,0,1-.13,0l-1.9-1.16a.08.08,0,0,1,0-.08s0-1.28,0-1.31S110.84,245.73,110.88,245.7Z" style="fill:#263238"></path><path d="M112.76,247a.3.3,0,0,0,.29,0l2-1.12c.09,0,.1-.12,0-.16l-1.9-1.16a.32.32,0,0,0-.3,0l-2,1.11c-.08.05-.09.13,0,.17Z" style="fill:#455a64"></path><path d="M107.83,247.42s0-.06.07-.09l2-1.11a.33.33,0,0,1,.29,0l1.9,1.16a.08.08,0,0,1,.05.08s0,1.28,0,1.31a.12.12,0,0,1-.07.09L110,250a.35.35,0,0,1-.3,0l-1.9-1.16a.1.1,0,0,1,0-.08S107.82,247.45,107.83,247.42Z" style="fill:#37474f"></path><path d="M107.9,247.33l2,1.28,0,1.39a.32.32,0,0,1-.14,0l-1.9-1.16a.1.1,0,0,1,0-.08s0-1.28,0-1.31S107.85,247.36,107.9,247.33Z" style="fill:#263238"></path><path d="M109.78,248.66a.36.36,0,0,0,.29,0l2-1.12c.09,0,.1-.12,0-.17l-1.9-1.16a.33.33,0,0,0-.29,0l-2,1.11c-.09,0-.1.12,0,.17Z" style="fill:#455a64"></path><path d="M104.84,249.05a.12.12,0,0,1,.07-.09l2-1.11a.35.35,0,0,1,.3,0l1.9,1.16a.1.1,0,0,1,0,.08s0,1.28,0,1.31a.16.16,0,0,1-.08.09l-2,1.11a.3.3,0,0,1-.29,0l-1.9-1.15s0-.05,0-.08S104.84,249.08,104.84,249.05Z" style="fill:#37474f"></path><path d="M104.91,249l2,1.27,0,1.4a.18.18,0,0,1-.13,0l-1.9-1.15s0-.05,0-.08,0-1.28,0-1.31A.12.12,0,0,1,104.91,249Z" style="fill:#263238"></path><path d="M106.79,250.29a.33.33,0,0,0,.29,0l2-1.11c.08,0,.09-.12,0-.17l-1.9-1.16a.33.33,0,0,0-.29,0l-2,1.11c-.08,0-.09.12,0,.17Z" style="fill:#455a64"></path><path d="M101.86,250.68a.1.1,0,0,1,.07-.09l2-1.12a.33.33,0,0,1,.29,0l1.9,1.16a.08.08,0,0,1,0,.08s0,1.28,0,1.31,0,.06-.07.09l-2,1.11a.3.3,0,0,1-.29,0l-1.9-1.16s-.06,0-.06-.07S101.86,250.71,101.86,250.68Z" style="fill:#37474f"></path><path d="M101.93,250.59l2,1.27,0,1.39a.25.25,0,0,1-.13,0l-1.9-1.16s-.06,0-.06-.07,0-1.28,0-1.31A.1.1,0,0,1,101.93,250.59Z" style="fill:#263238"></path><path d="M103.81,251.91a.3.3,0,0,0,.29,0l2-1.11c.09-.05.1-.12,0-.17l-1.9-1.16a.36.36,0,0,0-.29,0l-2,1.12c-.09,0-.1.12,0,.17Z" style="fill:#455a64"></path><path d="M98.87,252.31a.11.11,0,0,1,.07-.09l2-1.12a.3.3,0,0,1,.29,0l1.9,1.16a.1.1,0,0,1,0,.08s0,1.28,0,1.3a.13.13,0,0,1-.07.09l-2,1.12a.3.3,0,0,1-.29,0l-1.9-1.16a.1.1,0,0,1,0-.07S98.87,252.33,98.87,252.31Z" style="fill:#37474f"></path><path d="M98.94,252.22l2,1.27,0,1.39a.28.28,0,0,1-.13,0l-1.9-1.16a.1.1,0,0,1,0-.07s0-1.29,0-1.31A.11.11,0,0,1,98.94,252.22Z" style="fill:#263238"></path><path d="M100.82,253.54a.32.32,0,0,0,.3,0l2-1.11c.08-.05.09-.13,0-.17l-1.9-1.16a.3.3,0,0,0-.29,0l-2,1.12c-.08,0-.09.12,0,.16Z" style="fill:#455a64"></path><path d="M95.89,253.93s0-.06.07-.09l2-1.11a.3.3,0,0,1,.29,0l1.9,1.16s.06.05,0,.07,0,1.28,0,1.31a.1.1,0,0,1-.07.09l-2,1.12a.36.36,0,0,1-.29,0l-1.9-1.16a.08.08,0,0,1,0-.08S95.89,254,95.89,253.93Z" style="fill:#37474f"></path><path d="M96,253.84l2,1.28,0,1.39a.25.25,0,0,1-.13,0l-1.9-1.16a.08.08,0,0,1,0-.08s0-1.28,0-1.31S95.91,253.87,96,253.84Z" style="fill:#263238"></path><path d="M97.84,255.17a.3.3,0,0,0,.29,0l2-1.12c.09,0,.1-.12,0-.16l-1.89-1.16a.32.32,0,0,0-.3,0l-2,1.11c-.09,0-.1.13,0,.17Z" style="fill:#455a64"></path><path d="M92.9,255.56a.16.16,0,0,1,.08-.09l2-1.11a.33.33,0,0,1,.29,0l1.9,1.16s.05.05.05.08,0,1.28,0,1.31a.12.12,0,0,1-.07.09l-2,1.11a.33.33,0,0,1-.29,0L92.92,257a.1.1,0,0,1,0-.08S92.9,255.59,92.9,255.56Z" style="fill:#37474f"></path><path d="M93,255.47l2,1.28,0,1.39a.32.32,0,0,1-.14,0L92.92,257a.1.1,0,0,1,0-.08s0-1.28,0-1.31S92.93,255.5,93,255.47Z" style="fill:#263238"></path><path d="M94.85,256.8a.35.35,0,0,0,.3,0l2-1.12c.09,0,.1-.12,0-.17l-1.9-1.16a.33.33,0,0,0-.29,0l-2,1.11c-.09.05-.1.12,0,.17Z" style="fill:#455a64"></path><path d="M84.69,256.91a.11.11,0,0,1,.07-.09l2.36-1.29a.3.3,0,0,1,.29,0L89.85,257a.35.35,0,0,0,.3,0L92,256a.33.33,0,0,1,.29,0l1.9,1.16a.09.09,0,0,1,.06.08s0,1.28,0,1.31,0,.06-.07.09l-4.55,2.48a.35.35,0,0,1-.3,0l-4.61-2.82a.1.1,0,0,1,0-.07S84.69,256.93,84.69,256.91Z" style="fill:#37474f"></path><path d="M84.76,256.82l4.74,2.85,0,1.47a.32.32,0,0,1-.14,0l-4.61-2.82a.1.1,0,0,1,0-.07s0-1.29,0-1.31A.11.11,0,0,1,84.76,256.82Z" style="fill:#263238"></path><path d="M94.22,257.14,92.32,256a.33.33,0,0,0-.29,0l-1.88,1a.35.35,0,0,1-.3,0l-2.44-1.49a.3.3,0,0,0-.29,0l-2.36,1.29c-.08,0-.09.12,0,.16l4.61,2.82a.39.39,0,0,0,.3,0l4.55-2.49C94.29,257.26,94.3,257.19,94.22,257.14Z" style="fill:#455a64"></path><path d="M123.84,233.9a.15.15,0,0,1,.08-.1l3.14-1.71a.3.3,0,0,1,.29,0l1.9,1.16a.1.1,0,0,1,.05.07s0,1.29,0,1.31a.11.11,0,0,1-.07.09l-3.14,1.72a.35.35,0,0,1-.3,0l-1.9-1.16a.1.1,0,0,1,0-.08S123.84,233.92,123.84,233.9Z" style="fill:#37474f"></path><path d="M123.92,233.8l2,1.28,0,1.39a.32.32,0,0,1-.14,0l-1.9-1.16a.1.1,0,0,1,0-.08s0-1.28,0-1.3A.15.15,0,0,1,123.92,233.8Z" style="fill:#263238"></path><path d="M125.79,235.13a.32.32,0,0,0,.3,0l3.14-1.71c.09,0,.09-.13,0-.17l-1.9-1.16a.3.3,0,0,0-.29,0l-3.14,1.71c-.09,0-.1.13,0,.17Z" style="fill:#455a64"></path><path d="M120.86,235.52s0-.06.07-.09l2-1.11a.32.32,0,0,1,.3,0l1.89,1.15s.06.05.06.08,0,1.28,0,1.31a.1.1,0,0,1-.07.09l-2,1.12a.36.36,0,0,1-.29,0l-1.9-1.16a.08.08,0,0,1,0-.08S120.86,235.55,120.86,235.52Z" style="fill:#37474f"></path><path d="M120.93,235.43l2,1.28,0,1.39a.25.25,0,0,1-.13,0l-1.9-1.16a.08.08,0,0,1,0-.08s0-1.28,0-1.31S120.88,235.46,120.93,235.43Z" style="fill:#263238"></path><path d="M122.81,236.76a.33.33,0,0,0,.29,0l2-1.12c.09,0,.1-.12,0-.16l-1.9-1.16a.32.32,0,0,0-.3,0l-2,1.11c-.09,0-.09.13,0,.17Z" style="fill:#455a64"></path><path d="M117.87,237.15a.16.16,0,0,1,.08-.09l2-1.11a.33.33,0,0,1,.29,0l1.9,1.16a.08.08,0,0,1,0,.08s0,1.28,0,1.31,0,.06-.07.09l-2,1.11a.35.35,0,0,1-.3,0l-1.9-1.16a.1.1,0,0,1,0-.08S117.87,237.18,117.87,237.15Z" style="fill:#37474f"></path><path d="M118,237.06l2,1.28,0,1.39a.32.32,0,0,1-.14,0l-1.9-1.16a.1.1,0,0,1,0-.08s0-1.28,0-1.31A.16.16,0,0,1,118,237.06Z" style="fill:#263238"></path><path d="M119.83,238.39a.36.36,0,0,0,.29,0l2-1.12c.09-.05.1-.12,0-.17l-1.9-1.16a.33.33,0,0,0-.29,0l-2,1.11c-.09.05-.1.12,0,.17Z" style="fill:#455a64"></path><path d="M114.89,238.78a.12.12,0,0,1,.07-.09l2-1.12a.39.39,0,0,1,.3,0l1.9,1.16a.1.1,0,0,1,0,.08s0,1.28,0,1.31,0,.06-.07.09l-2,1.11a.3.3,0,0,1-.29,0l-1.9-1.15s0,0,0-.08S114.89,238.81,114.89,238.78Z" style="fill:#37474f"></path><path d="M115,238.69l2,1.27,0,1.4a.18.18,0,0,1-.13,0l-1.9-1.15s0,0,0-.08,0-1.28,0-1.31A.12.12,0,0,1,115,238.69Z" style="fill:#263238"></path><path d="M116.84,240a.33.33,0,0,0,.29,0l2.05-1.11c.08-.05.09-.12,0-.17l-1.9-1.16a.35.35,0,0,0-.3,0l-2,1.11c-.08.05-.09.12,0,.17Z" style="fill:#455a64"></path><path d="M111.91,240.41a.1.1,0,0,1,.07-.09l2-1.12a.33.33,0,0,1,.29,0l1.9,1.16a.08.08,0,0,1,.05.08s0,1.28,0,1.31,0,.06-.07.09l-2,1.11a.32.32,0,0,1-.3,0l-1.9-1.16s0,0,0-.07S111.9,240.44,111.91,240.41Z" style="fill:#37474f"></path><path d="M112,240.32l2,1.27,0,1.39a.32.32,0,0,1-.14,0l-1.9-1.16s0,0,0-.07,0-1.28,0-1.31A.1.1,0,0,1,112,240.32Z" style="fill:#263238"></path><path d="M113.86,241.64a.3.3,0,0,0,.29,0l2-1.11c.09-.05.1-.12,0-.17l-1.9-1.16a.33.33,0,0,0-.29,0l-2,1.12c-.09,0-.1.12,0,.17Z" style="fill:#455a64"></path><path d="M108.92,242A.11.11,0,0,1,109,242l2.05-1.12a.3.3,0,0,1,.29,0l1.9,1.16a.1.1,0,0,1,0,.08s0,1.28,0,1.3a.12.12,0,0,1-.08.09l-2,1.12a.3.3,0,0,1-.29,0l-1.9-1.16a.1.1,0,0,1,0-.07S108.92,242.06,108.92,242Z" style="fill:#37474f"></path><path d="M109,242l2,1.27,0,1.39a.28.28,0,0,1-.13,0l-1.9-1.16a.1.1,0,0,1,0-.07s0-1.29,0-1.31A.11.11,0,0,1,109,242Z" style="fill:#263238"></path><path d="M110.87,243.27a.3.3,0,0,0,.29,0l2-1.11c.08,0,.09-.13,0-.17l-1.9-1.16a.3.3,0,0,0-.29,0L109,242c-.08,0-.09.12,0,.16Z" style="fill:#455a64"></path><path d="M105.94,243.66s0-.06.07-.09l2-1.11a.3.3,0,0,1,.29,0l1.9,1.16s.05,0,.05.07,0,1.28,0,1.31a.1.1,0,0,1-.07.09l-2,1.12a.36.36,0,0,1-.29,0l-1.9-1.16s-.06-.05,0-.08S105.94,243.69,105.94,243.66Z" style="fill:#37474f"></path><path d="M106,243.57l2,1.28,0,1.39a.25.25,0,0,1-.13,0l-1.9-1.16s-.06-.05,0-.08,0-1.28,0-1.31S106,243.6,106,243.57Z" style="fill:#263238"></path><path d="M107.89,244.9a.3.3,0,0,0,.29,0l2-1.12c.09,0,.1-.12,0-.16l-1.9-1.16a.3.3,0,0,0-.29,0l-2,1.11c-.09.05-.1.13,0,.17Z" style="fill:#455a64"></path><path d="M103,245.29s0-.06.07-.09l2-1.11a.33.33,0,0,1,.29,0l1.9,1.16s0,0,0,.08,0,1.28,0,1.31a.15.15,0,0,1-.07.09l-2,1.11a.33.33,0,0,1-.29,0l-1.9-1.16a.1.1,0,0,1,0-.08S103,245.32,103,245.29Z" style="fill:#37474f"></path><path d="M103,245.2l2,1.28,0,1.39a.28.28,0,0,1-.13,0l-1.9-1.16a.1.1,0,0,1,0-.08s0-1.28,0-1.31S103,245.23,103,245.2Z" style="fill:#263238"></path><path d="M104.9,246.53a.39.39,0,0,0,.3,0l2-1.12c.08,0,.09-.12,0-.17l-1.9-1.16a.33.33,0,0,0-.29,0l-2,1.11c-.08.05-.09.12,0,.17Z" style="fill:#455a64"></path><path d="M100,246.92a.1.1,0,0,1,.07-.09l2-1.11a.33.33,0,0,1,.29,0l1.9,1.16s.06,0,0,.08,0,1.28,0,1.31,0,.06-.07.09l-2,1.11a.33.33,0,0,1-.29,0l-1.9-1.16a.08.08,0,0,1,0-.08S100,247,100,246.92Z" style="fill:#37474f"></path><path d="M100,246.83l2,1.28,0,1.39a.25.25,0,0,1-.13,0l-1.9-1.16a.08.08,0,0,1,0-.08s0-1.28,0-1.31A.1.1,0,0,1,100,246.83Z" style="fill:#263238"></path><path d="M101.92,248.16a.33.33,0,0,0,.29,0l2-1.11c.09,0,.1-.12,0-.17l-1.89-1.16a.35.35,0,0,0-.3,0l-2,1.11c-.09,0-.1.12,0,.17Z" style="fill:#455a64"></path><path d="M97,248.55a.12.12,0,0,1,.08-.09l2-1.12a.37.37,0,0,1,.29,0l1.9,1.16a.1.1,0,0,1,0,.08s0,1.28,0,1.31,0,.06-.07.09l-2,1.11a.3.3,0,0,1-.29,0L97,249.93s0,0,0-.07S97,248.58,97,248.55Z" style="fill:#37474f"></path><path d="M97.06,248.46l2,1.27,0,1.39a.32.32,0,0,1-.14,0L97,249.93s0,0,0-.07,0-1.28,0-1.31A.12.12,0,0,1,97.06,248.46Z" style="fill:#263238"></path><path d="M98.93,249.79a.35.35,0,0,0,.3,0l2-1.11c.09,0,.09-.12,0-.17l-1.9-1.16a.37.37,0,0,0-.29,0l-2,1.12c-.09,0-.1.12,0,.17Z" style="fill:#455a64"></path><path d="M94,250.18a.09.09,0,0,1,.07-.09l2-1.12a.32.32,0,0,1,.3,0l1.9,1.16a.1.1,0,0,1,0,.08s0,1.28,0,1.31,0,.06-.07.08l-2,1.12a.3.3,0,0,1-.29,0L94,251.56a.08.08,0,0,1,0-.07S94,250.2,94,250.18Z" style="fill:#37474f"></path><path d="M94.07,250.09l2,1.27,0,1.39a.25.25,0,0,1-.13,0L94,251.56a.08.08,0,0,1,0-.07s0-1.29,0-1.31A.09.09,0,0,1,94.07,250.09Z" style="fill:#263238"></path><path d="M96,251.41a.3.3,0,0,0,.29,0l2-1.11c.09-.05.1-.13,0-.17L96.41,249a.32.32,0,0,0-.3,0l-2,1.12c-.08,0-.09.12,0,.16Z" style="fill:#455a64"></path><path d="M91,251.8a.16.16,0,0,1,.08-.09l2-1.11a.3.3,0,0,1,.29,0l1.9,1.16a.08.08,0,0,1,.05.07s0,1.28,0,1.31a.11.11,0,0,1-.07.09l-2,1.12a.35.35,0,0,1-.3,0L91,253.19a.1.1,0,0,1,0-.08S91,251.83,91,251.8Z" style="fill:#37474f"></path><path d="M91.09,251.71l2,1.28,0,1.39a.32.32,0,0,1-.14,0L91,253.19a.1.1,0,0,1,0-.08s0-1.28,0-1.31A.16.16,0,0,1,91.09,251.71Z" style="fill:#263238"></path><path d="M93,253a.3.3,0,0,0,.29,0l2-1.12c.09,0,.1-.12,0-.16l-1.9-1.16a.3.3,0,0,0-.29,0l-2,1.11c-.09,0-.1.13,0,.17Z" style="fill:#455a64"></path><path d="M88,253.43s0-.06.07-.09l2-1.11a.35.35,0,0,1,.3,0l1.9,1.16s0,.05,0,.08,0,1.28,0,1.31a.1.1,0,0,1-.07.09l-2,1.11a.33.33,0,0,1-.29,0l-1.9-1.16a.08.08,0,0,1,0-.08S88,253.46,88,253.43Z" style="fill:#37474f"></path><path d="M88.1,253.34l2,1.28,0,1.39a.25.25,0,0,1-.13,0l-1.9-1.16a.08.08,0,0,1,0-.08s0-1.28,0-1.31S88.06,253.37,88.1,253.34Z" style="fill:#263238"></path><path d="M90,254.67a.33.33,0,0,0,.29,0l2-1.12a.09.09,0,0,0,0-.17l-1.9-1.15a.32.32,0,0,0-.3,0l-2,1.11c-.08,0-.09.12,0,.17Z" style="fill:#455a64"></path><path d="M122.27,230a.11.11,0,0,1,.07-.09l2-1.12a.32.32,0,0,1,.3,0l1.9,1.16a.1.1,0,0,1,0,.08s0,1.28,0,1.3a.09.09,0,0,1-.07.09l-2,1.12a.3.3,0,0,1-.29,0l-1.9-1.16a.08.08,0,0,1-.05-.07S122.27,230,122.27,230Z" style="fill:#37474f"></path><path d="M122.34,229.88l2,1.27,0,1.39a.25.25,0,0,1-.13,0l-1.9-1.16a.08.08,0,0,1-.05-.07s0-1.29,0-1.31A.11.11,0,0,1,122.34,229.88Z" style="fill:#263238"></path><path d="M124.22,231.2a.3.3,0,0,0,.29,0l2-1.11c.08-.05.09-.13,0-.17l-1.9-1.16a.32.32,0,0,0-.3,0l-2,1.12c-.08,0-.09.12,0,.16Z" style="fill:#455a64"></path><path d="M119.29,231.59s0-.06.07-.09l2-1.11a.3.3,0,0,1,.29,0l1.9,1.16a.08.08,0,0,1,0,.07s0,1.28,0,1.31a.12.12,0,0,1-.07.09l-2,1.12a.39.39,0,0,1-.3,0L119.3,233a.1.1,0,0,1,0-.08S119.28,231.62,119.29,231.59Z" style="fill:#37474f"></path><path d="M119.36,231.5l2,1.28,0,1.39a.32.32,0,0,1-.14,0L119.3,233a.1.1,0,0,1,0-.08s0-1.28,0-1.31S119.31,231.53,119.36,231.5Z" style="fill:#263238"></path><path d="M121.24,232.83a.3.3,0,0,0,.29,0l2-1.12c.09,0,.1-.12,0-.16l-1.9-1.16a.3.3,0,0,0-.29,0l-2,1.11c-.09.05-.1.13,0,.17Z" style="fill:#455a64"></path><path d="M116.3,233.22s0-.06.07-.09l2-1.11a.35.35,0,0,1,.3,0l1.9,1.16s0,.05,0,.08,0,1.28,0,1.31a.1.1,0,0,1-.07.09l-2,1.11a.33.33,0,0,1-.29,0l-1.9-1.16a.08.08,0,0,1,0-.08S116.3,233.25,116.3,233.22Z" style="fill:#37474f"></path><path d="M116.37,233.13l2,1.28,0,1.39a.25.25,0,0,1-.13,0l-1.9-1.16a.08.08,0,0,1,0-.08s0-1.28,0-1.31S116.33,233.16,116.37,233.13Z" style="fill:#263238"></path><path d="M118.25,234.46a.37.37,0,0,0,.29,0l2-1.12a.09.09,0,0,0,0-.17l-1.9-1.16a.35.35,0,0,0-.3,0l-2,1.11c-.08.05-.09.12,0,.17Z" style="fill:#455a64"></path><path d="M113.32,234.85a.1.1,0,0,1,.07-.09l2-1.11a.33.33,0,0,1,.29,0l1.9,1.16a.08.08,0,0,1,0,.08s0,1.28,0,1.31,0,.06-.07.09l-2,1.11a.35.35,0,0,1-.3,0l-1.9-1.16a.1.1,0,0,1,0-.08S113.31,234.88,113.32,234.85Z" style="fill:#37474f"></path><path d="M113.39,234.76l2,1.28,0,1.39a.32.32,0,0,1-.14,0l-1.9-1.16a.1.1,0,0,1,0-.08s0-1.28,0-1.31A.1.1,0,0,1,113.39,234.76Z" style="fill:#263238"></path><path d="M115.27,236.09a.33.33,0,0,0,.29,0l2-1.11c.09-.05.1-.12,0-.17l-1.9-1.16a.33.33,0,0,0-.29,0l-2,1.11c-.09.05-.1.12,0,.17Z" style="fill:#455a64"></path><path d="M110.33,236.48a.12.12,0,0,1,.07-.09l2-1.12a.39.39,0,0,1,.3,0l1.9,1.16a.1.1,0,0,1,0,.08s0,1.28,0,1.31,0,.06-.07.09l-2,1.11a.3.3,0,0,1-.29,0l-1.9-1.16s0,0,0-.07S110.33,236.51,110.33,236.48Z" style="fill:#37474f"></path><path d="M110.4,236.39l2,1.27,0,1.4s-.1,0-.13,0l-1.9-1.16s0,0,0-.07,0-1.28,0-1.31A.12.12,0,0,1,110.4,236.39Z" style="fill:#263238"></path><path d="M112.28,237.72a.33.33,0,0,0,.29,0l2.05-1.11c.08,0,.09-.12,0-.17l-1.9-1.16a.39.39,0,0,0-.3,0l-2,1.12c-.08.05-.09.12,0,.17Z" style="fill:#455a64"></path><path d="M107.35,238.11a.09.09,0,0,1,.07-.09l2-1.12a.3.3,0,0,1,.29,0l1.9,1.16a.08.08,0,0,1,0,.08s0,1.28,0,1.31,0,.06-.07.08l-2,1.12a.32.32,0,0,1-.3,0l-1.9-1.16a.1.1,0,0,1,0-.07S107.34,238.14,107.35,238.11Z" style="fill:#37474f"></path><path d="M107.42,238l2,1.27,0,1.39a.32.32,0,0,1-.14,0l-1.9-1.16a.1.1,0,0,1,0-.07s0-1.28,0-1.31A.09.09,0,0,1,107.42,238Z" style="fill:#263238"></path><path d="M109.3,239.34a.3.3,0,0,0,.29,0l2-1.11c.09,0,.1-.13,0-.17l-1.9-1.16a.3.3,0,0,0-.29,0l-2,1.12c-.09,0-.1.12,0,.16Z" style="fill:#455a64"></path><path d="M104.36,239.73s0-.06.07-.09l2-1.11a.32.32,0,0,1,.3,0l1.9,1.16a.1.1,0,0,1,0,.07s0,1.28,0,1.31a.09.09,0,0,1-.07.09l-2,1.12a.33.33,0,0,1-.29,0l-1.9-1.16a.08.08,0,0,1,0-.08S104.36,239.76,104.36,239.73Z" style="fill:#37474f"></path><path d="M104.43,239.64l2,1.28,0,1.39a.25.25,0,0,1-.13,0l-1.9-1.16a.08.08,0,0,1,0-.08s0-1.28,0-1.31S104.39,239.67,104.43,239.64Z" style="fill:#263238"></path><path d="M106.31,241a.3.3,0,0,0,.29,0l2.05-1.12c.08,0,.09-.12,0-.16l-1.9-1.16a.32.32,0,0,0-.3,0l-2,1.11c-.08.05-.09.13,0,.17Z" style="fill:#455a64"></path><path d="M101.38,241.36s0-.06.07-.09l2-1.11a.3.3,0,0,1,.29,0l1.9,1.15s0,.05,0,.08,0,1.28,0,1.31a.12.12,0,0,1-.07.09l-2,1.11a.35.35,0,0,1-.3,0l-1.9-1.16a.1.1,0,0,1,0-.08S101.37,241.39,101.38,241.36Z" style="fill:#37474f"></path><path d="M101.45,241.27l2,1.28,0,1.39a.32.32,0,0,1-.14,0l-1.9-1.16a.1.1,0,0,1,0-.08s0-1.28,0-1.31S101.4,241.3,101.45,241.27Z" style="fill:#263238"></path><path d="M103.33,242.6a.33.33,0,0,0,.29,0l2-1.12c.09,0,.1-.12,0-.17l-1.9-1.15a.3.3,0,0,0-.29,0l-2,1.11c-.09,0-.1.13,0,.17Z" style="fill:#455a64"></path><path d="M98.39,243s0-.06.07-.09l2-1.11a.35.35,0,0,1,.3,0l1.9,1.16a.1.1,0,0,1,0,.08s0,1.28,0,1.31,0,.06-.07.09l-2,1.11a.33.33,0,0,1-.29,0l-1.9-1.16a.08.08,0,0,1,0-.08S98.39,243,98.39,243Z" style="fill:#37474f"></path><path d="M98.46,242.9l2,1.28,0,1.39a.25.25,0,0,1-.13,0l-1.9-1.16a.08.08,0,0,1,0-.08s0-1.28,0-1.31S98.42,242.93,98.46,242.9Z" style="fill:#263238"></path><path d="M100.34,244.23a.37.37,0,0,0,.29,0l2.05-1.12c.08-.05.09-.12,0-.17l-1.9-1.16a.33.33,0,0,0-.29,0l-2.05,1.11c-.08,0-.09.12,0,.17Z" style="fill:#455a64"></path><path d="M95.41,244.62a.1.1,0,0,1,.07-.09l2-1.12a.36.36,0,0,1,.29,0l1.9,1.16a.08.08,0,0,1,.05.08s0,1.28,0,1.31,0,.06-.07.09l-2,1.11a.32.32,0,0,1-.3,0L95.42,246s0,0,0-.08S95.4,244.65,95.41,244.62Z" style="fill:#37474f"></path><path d="M95.48,244.53l2,1.27,0,1.4a.33.33,0,0,1-.14,0L95.42,246s0,0,0-.08,0-1.28,0-1.31A.1.1,0,0,1,95.48,244.53Z" style="fill:#263238"></path><path d="M97.36,245.86a.33.33,0,0,0,.29,0l2-1.11c.09-.05.1-.12,0-.17l-1.9-1.16a.36.36,0,0,0-.29,0l-2,1.12c-.09.05-.1.12,0,.17Z" style="fill:#455a64"></path><path d="M92.42,246.25a.11.11,0,0,1,.07-.09l2-1.12a.35.35,0,0,1,.3,0l1.9,1.16a.1.1,0,0,1,0,.08s0,1.28,0,1.31,0,.06-.07.09l-2,1.11a.3.3,0,0,1-.29,0l-1.9-1.16a.08.08,0,0,1,0-.07S92.42,246.28,92.42,246.25Z" style="fill:#37474f"></path><path d="M92.49,246.16l2,1.27,0,1.39a.25.25,0,0,1-.13,0l-1.9-1.16a.08.08,0,0,1,0-.07s0-1.28,0-1.31A.11.11,0,0,1,92.49,246.16Z" style="fill:#263238"></path><path d="M94.37,247.48a.3.3,0,0,0,.29,0l2-1.11c.08-.05.09-.13,0-.17L94.83,245a.35.35,0,0,0-.3,0l-2,1.12c-.08,0-.09.12,0,.16Z" style="fill:#455a64"></path><path d="M89.44,247.88s0-.07.07-.1l2-1.11a.3.3,0,0,1,.29,0l1.9,1.16a.08.08,0,0,1,.05.07s0,1.29,0,1.31a.11.11,0,0,1-.07.09l-2,1.12a.35.35,0,0,1-.3,0l-1.9-1.16a.1.1,0,0,1,0-.08S89.43,247.9,89.44,247.88Z" style="fill:#37474f"></path><path d="M89.51,247.78l2,1.28,0,1.39a.32.32,0,0,1-.14,0l-1.9-1.16a.1.1,0,0,1,0-.08s0-1.28,0-1.3S89.46,247.81,89.51,247.78Z" style="fill:#263238"></path><path d="M91.39,249.11a.3.3,0,0,0,.29,0l2-1.11c.09-.05.1-.13,0-.17l-1.9-1.16a.3.3,0,0,0-.29,0l-2,1.11c-.09.05-.1.13,0,.17Z" style="fill:#455a64"></path><path d="M86.45,249.5s0-.06.07-.09l2-1.11a.32.32,0,0,1,.3,0l1.9,1.15s0,.05,0,.08,0,1.28,0,1.31a.1.1,0,0,1-.07.09l-2,1.12a.37.37,0,0,1-.29,0l-1.9-1.16a.08.08,0,0,1,0-.08S86.45,249.53,86.45,249.5Z" style="fill:#37474f"></path><path d="M86.52,249.41l2,1.28,0,1.39a.25.25,0,0,1-.13,0l-1.9-1.16a.08.08,0,0,1,0-.08s0-1.28,0-1.31S86.48,249.44,86.52,249.41Z" style="fill:#263238"></path><path d="M88.4,250.74a.33.33,0,0,0,.29,0l2-1.12a.09.09,0,0,0,0-.17l-1.9-1.15a.3.3,0,0,0-.29,0l-2,1.11c-.08.05-.09.13,0,.17Z" style="fill:#455a64"></path><path d="M82.06,251.9s0-.06.07-.09l3.45-1.88a.33.33,0,0,1,.29,0l1.9,1.16a.08.08,0,0,1,0,.08s0,1.28,0,1.31,0,.06-.07.09l-3.45,1.88a.33.33,0,0,1-.29,0l-1.9-1.16s-.06,0,0-.08S82.06,251.93,82.06,251.9Z" style="fill:#37474f"></path><path d="M82.13,251.81l2,1.28,0,1.39a.25.25,0,0,1-.13,0l-1.9-1.16s-.06,0,0-.08,0-1.28,0-1.31S82.08,251.84,82.13,251.81Z" style="fill:#263238"></path><path d="M84,253.14a.33.33,0,0,0,.29,0l3.45-1.89c.09-.05.1-.12,0-.17l-1.9-1.16a.33.33,0,0,0-.29,0l-3.45,1.88c-.09.05-.1.12,0,.17Z" style="fill:#455a64"></path></g><path d="M49.37,228.55a.75.75,0,0,1,.77-.74c.87,0,2.47.07,4.69.11,3,.06,6-.19,7.24-1.28s2.65-.74,3.85.81,1.56,2.3-.21,2.25l-15.61-.37a.76.76,0,0,1-.73-.78Z" style="fill:#263238"></path></g></g></g><g id="freepik--Character--inject-63"><g id="freepik--character--inject-63"><g id="freepik--Chair--inject-63"><path d="M310.87,347.49,302,273.2l-7.27-.37,12.51,74.65h0a1,1,0,0,0,.48.65,2.91,2.91,0,0,0,2.6.14.9.9,0,0,0,.57-.78Z" style="fill:#263238"></path><path d="M302,273.2l-7.27-.37,2.14,14.09a28.88,28.88,0,0,0,4.31-2,4.38,4.38,0,0,0,1.92-1.65Z" style="fill:#263238"></path><path d="M205.29,262.3H198l-10.6,70.16h0a.87.87,0,0,0,.53.8,2.88,2.88,0,0,0,2.59,0,1,1,0,0,0,.52-.63h0Z" style="fill:#37474f"></path><path d="M198,262.3l-3,19.58a28.26,28.26,0,0,0,5.59,3.42l4.65-23Z" style="fill:#263238"></path><path d="M262.2,372.4l-6.84-75.55-7.28-.36,10.46,75.9h0a1,1,0,0,0,.48.65,2.85,2.85,0,0,0,2.59.13.86.86,0,0,0,.57-.77Z" style="fill:#37474f"></path><path d="M256.25,307.73l-.89-10.88-7.28-.36,1.48,11.73A13.43,13.43,0,0,0,256.25,307.73Z" style="fill:#263238"></path><path d="M245.05,239.19h-7.28l-10.6,70.15h0a.87.87,0,0,0,.53.8,2.82,2.82,0,0,0,2.59,0,1,1,0,0,0,.52-.62h0Z" style="fill:#263238"></path><g id="freepik--chair--inject-63"><path d="M184.47,177.35a41,41,0,0,0-2.91,12.79c-.83,9.8,2.34,46,4.34,60.24h0c2.88,23.72,6.42,23.76,11.56,27.73,8.84,6.83,34.26,20.22,42.66,23.53,15.22,6,27.66-3.25,36.94-7.83a215.6,215.6,0,0,0,24.56-14.55c2.32-1.69,3.52-3.4,3.5-5.19,0-.71,0-3.63,0-4.38,0-2.29-2-4.74-6.28-7.5-7.86-5.1-36.27-21.67-47.28-27.77a.11.11,0,0,0-.09-.09c-8.47-5.14-13.42-44.59-19.29-63.18-.12-.4-.25-.79-.38-1.16s-.21-.58-.3-.86c-.38-1-.75-1.94-1.16-2.79" style="fill:#1F385D"></path><path d="M305.12,269.68c0-2.29-2-4.74-6.28-7.5-7.86-5.1-36.27-21.67-47.28-27.77a.11.11,0,0,0-.09-.09c-8.47-5.14-13.42-44.59-19.29-63.18a32.77,32.77,0,0,0-1.23-3.42c0-.09-.07-.17-.1-.25l-.34-.76c-.06-.12-.11-.26-.17-.38h0a17.79,17.79,0,0,0-3.92-5.66,8.71,8.71,0,0,0-1.92-1.35l-3.45-1.94c-5.76-3.44-13.3.69-22.71,5.84-5.85,3.21-10.83,7-13.87,14.12h0a41,41,0,0,0-2.91,12.79c-.83,9.8,2.34,46,4.34,60.24h0c2.88,23.72,6.42,23.76,11.56,27.73,8.84,6.83,34.26,20.22,42.66,23.53,15.22,6,27.66-3.25,36.94-7.83a215.6,215.6,0,0,0,24.56-14.55c2.32-1.69,3.52-3.4,3.5-5.19C305.1,273.35,305.12,270.43,305.12,269.68Z" style="fill:#1F385D"></path><path d="M305.12,269.68c0-2.29-2-4.74-6.28-7.5-7.86-5.1-36.27-21.67-47.28-27.77a.11.11,0,0,0-.09-.09c-8.47-5.14-13.42-44.59-19.29-63.18a32.77,32.77,0,0,0-1.23-3.42c0-.09-.07-.17-.1-.25l-.34-.76c-.06-.12-.11-.26-.17-.38h0a17.79,17.79,0,0,0-3.92-5.66,8.71,8.71,0,0,0-1.92-1.35l-3.45-1.94c-5.76-3.44-13.3.69-22.71,5.84-5.85,3.21-10.83,7-13.87,14.12h0a41,41,0,0,0-2.91,12.79c-.83,9.8,2.34,46,4.34,60.24h0c2.88,23.72,6.42,23.76,11.56,27.73,8.84,6.83,34.26,20.22,42.66,23.53,15.22,6,27.66-3.25,36.94-7.83a215.6,215.6,0,0,0,24.56-14.55c2.32-1.69,3.52-3.4,3.5-5.19C305.1,273.35,305.12,270.43,305.12,269.68Z" style="fill:#fff;opacity:0.25"></path><path d="M277,289.39a214.8,214.8,0,0,0,24.57-14.56c5.28-3.83,4.79-7.75-2.77-12.65-10.5-6.82-53.32-31.11-53.32-31.11s-54.13,31.94-51.8,37.84,35.83,24.15,46.39,28.3C255.33,303.2,267.77,294,277,289.39Z" style="fill:#1F385D"></path><path d="M277,289.39a214.8,214.8,0,0,0,24.57-14.56c5.28-3.83,4.79-7.75-2.77-12.65-10.5-6.82-53.32-31.11-53.32-31.11s-54.13,31.94-51.8,37.84,35.83,24.15,46.39,28.3C255.33,303.2,267.77,294,277,289.39Z" style="fill:#fff;opacity:0.6000000000000001"></path><path d="M224.5,159.33c-5.7-3-13.1,1.08-22.26,6.1-5.87,3.21-10.87,7-13.91,14.16l-3.86-2.24c3-7.1,8-10.91,13.87-14.12,9.41-5.15,16.95-9.28,22.71-5.84Z" style="fill:#1F385D"></path><path d="M224.5,159.33c-5.7-3-13.1,1.08-22.26,6.1-5.87,3.21-10.87,7-13.91,14.16l-3.86-2.24c3-7.1,8-10.91,13.87-14.12,9.41-5.15,16.95-9.28,22.71-5.84Z" style="fill:#fff;opacity:0.5"></path><path d="M232.18,171.14c-.12-.4-2.08-7.22-5.76-10.46a9.28,9.28,0,0,0-6.23-2.37c-5,0-10.95,3.29-17.95,7.12-.59.32-1.16.65-1.73,1l-.65.38-.78.49c-.19.11-.38.24-.57.37a34,34,0,0,0-3.52,2.68c-.18.15-.36.31-.53.48a24.62,24.62,0,0,0-2,2.08c-.12.13-.23.26-.34.4l-.39.49c-.14.17-.26.34-.39.51s-.25.34-.37.52a22.87,22.87,0,0,0-1.4,2.24c-.06.1-.12.2-.17.3s-.22.42-.33.63l-.45.94a40.41,40.41,0,0,0-3.17,13.41c-1.36,16.1,4,73.82,9.55,78.41,0,0-.85-5.2,10.29-12.22,7.57-4.76,12.89-8.76,21-12.73,19.69-9.67,25.21-11.48,25.21-11.48C243,229.18,238.05,189.73,232.18,171.14Z" style="fill:#1F385D"></path><path d="M232.18,171.14c-.12-.4-2.08-7.22-5.76-10.46a9.28,9.28,0,0,0-6.23-2.37c-5,0-10.95,3.29-17.95,7.12-.59.32-1.16.65-1.73,1l-.65.38-.78.49c-.19.11-.38.24-.57.37a34,34,0,0,0-3.52,2.68c-.18.15-.36.31-.53.48a24.62,24.62,0,0,0-2,2.08c-.12.13-.23.26-.34.4l-.39.49c-.14.17-.26.34-.39.51s-.25.34-.37.52a22.87,22.87,0,0,0-1.4,2.24c-.06.1-.12.2-.17.3s-.22.42-.33.63l-.45.94a40.41,40.41,0,0,0-3.17,13.41c-1.36,16.1,4,73.82,9.55,78.41,0,0-.85-5.2,10.29-12.22,7.57-4.76,12.89-8.76,21-12.73,19.69-9.67,25.21-11.48,25.21-11.48C243,229.18,238.05,189.73,232.18,171.14Z" style="fill:#fff;opacity:0.4"></path></g></g><g id="freepik--Legs--inject-63"><path d="M293.87,344.93c.29-10.41,10.05-36.39,10.05-36.39L286,295.35s-1.54,6.43-3.52,15.09-4.28,12-4.28,12-4,4.16-4.2,7.14,1.72,10,2.75,15.39,1.62,9.5,4.26,14.85c2.57,5.18,15.86,10.39,15.61,5.19C296.25,357.83,293.87,353.44,293.87,344.93Z" style="fill:#ffbda7"></path><path d="M278.17,322.48c-1.12-.17-2.6,1.65-3.68,3s-3.52,2.18-3.45,5.81,3,6.64,3.13,11.6-.52,13.42,6.1,20.05,14.11,7.92,17,6.57a3.61,3.61,0,0,0,1.9-2,2.86,2.86,0,0,0-.22-2.33q-1-2.85-1.77-5.76a77.14,77.14,0,0,1-2.46-12.11c-.25-2.65-.12-5.06-.74-5.55-2-1.54-2.88-1.68-5.18-2.23-2.78-.66-4.36-.72-4.81-.51-.61.29-.52,1.11-.64,1.72l-.45,2.47a1.44,1.44,0,0,1-.18.54.46.46,0,0,1-.49.21c-.2-.06-.3-.28-.37-.48-1.06-3-1.22-6.16-1.68-9.27a30.93,30.93,0,0,0-1.37-5.6c-.37-1.18-.95-2.84-1.2-3.9a2.26,2.26,0,0,1,.11-1.65Z" style="fill:#37474f"></path><path d="M308.51,346.82s6.22,14.18,9.69,19.36a62.15,62.15,0,0,0,12.95,14.54c1.17.92,3.75,2.56,4.7,3.3a1.77,1.77,0,0,1,.34,2.71c-1.6,2.25-9.81,4.29-15.14,1.7s-11.16-8.34-14.47-10.62c-1.66-1.13-3.22-2.22-4.37-3s-1-1.27-1-2.62l-.59-2.13c-.94-4.39-7.74-13.93-7.74-13.93Z" style="fill:#ffbda7"></path><path d="M300.66,370c-1,.62-.86,3-.79,4.68s-1.2,4,1.26,6.63,6.65,3,10,6.64,8.48,10.41,17.83,11,15.83-3.38,17.13-6.33a3.57,3.57,0,0,0,.11-2.74c-.34-.92-.86-1.13-1.7-1.6-1.75-1-3.46-2-5.13-3.15a77.17,77.17,0,0,1-9.86-7.47c-1.94-1.82-3.43-3.72-4.21-3.67-2.5.14-3.28.64-5.36,1.75-2.53,1.34-3.75,2.34-3.95,2.79-.27.62.34,1.19.66,1.72l1.28,2.15a1.26,1.26,0,0,1,.22.52.47.47,0,0,1-.22.49.67.67,0,0,1-.6-.12c-2.75-1.52-5-3.82-7.38-5.85a26.44,26.44,0,0,0-4.23-3.13c-1.06-.64-2.42-1.29-3.48-1.93-.79-.48-1.08-.67-1.2-1Z" style="fill:#37474f"></path><path d="M303.27,323.06c1.58-7.08,4-17.91,5.49-25.15,2.41-11.54,4.24-23.6,2.43-28.93-1.73-5-11.71-12-22.24-19.08s-29.27-18.37-29.27-18.37l-58.43.32c-1.64,4.71-2.86,19.6,1.68,28.71,4.39,8.81,15.66,15.64,28.52,23.17,11.54,6.75,25.25,14.07,28.28,15.79,3.83,2.18,7.43,3.9,8.94,10.11,1.45,5.92,3.27,16.24,10,28.79l14.62,27.16s13.43,2.15,21.23-8.12C314.55,357.46,309.14,340.78,303.27,323.06Z" style="fill:#1F385D"></path><path d="M303.27,323.06c1.58-7.08,4-17.91,5.49-25.15,2.41-11.54,4.24-23.6,2.43-28.93-1.73-5-11.71-12-22.24-19.08s-29.27-18.37-29.27-18.37l-58.43.32c-1.64,4.71-2.86,19.6,1.68,28.71,4.39,8.81,15.66,15.64,28.52,23.17,11.54,6.75,25.25,14.07,28.28,15.79,3.83,2.18,7.43,3.9,8.94,10.11,1.45,5.92,3.27,16.24,10,28.79l14.62,27.16s13.43,2.15,21.23-8.12C314.55,357.46,309.14,340.78,303.27,323.06Z" style="opacity:0.30000000000000004"></path><path d="M301.88,318.87c-5.53-16.61-11.12-33.06-12.74-36.59-3.45-7.5-34.83-29.41-35.82-30.1h0l1.61-2.11a21.71,21.71,0,0,0,3.5-8.33,23,23,0,0,1-1.84,9.55c4.82,3.49,17.07,12.38,22,16.15,6.16,4.74,12.68,10.43,15.13,18.24C295.48,291.46,299.78,309.77,301.88,318.87Z" style="fill:#1F385D;opacity:0.15"></path><path d="M301.88,318.87c-5.53-16.61-11.12-33.06-12.74-36.59-3.45-7.5-34.83-29.41-35.82-30.1h0l1.61-2.11a21.71,21.71,0,0,0,3.5-8.33,23,23,0,0,1-1.84,9.55c4.82,3.49,17.07,12.38,22,16.15,6.16,4.74,12.68,10.43,15.13,18.24C295.48,291.46,299.78,309.77,301.88,318.87Z" style="opacity:0.25"></path><path d="M290,360l2.76,5.85s16,3.2,22.25-8.29L313,351.8C310,358.31,297.79,362.05,290,360Z" style="fill:#1F385D"></path><path d="M290,360l2.76,5.85s16,3.2,22.25-8.29L313,351.8C310,358.31,297.79,362.05,290,360Z" style="opacity:0.7000000000000001"></path></g><g id="freepik--Desk--inject-63"><polygon points="289.02 360.67 289.02 454.52 285.49 452.48 285.49 358.64 289.02 360.67" style="fill:#263238"></polygon><polygon points="289.02 360.67 289.02 454.52 292.55 452.48 292.55 358.64 289.02 360.67" style="fill:#37474f"></polygon><polygon points="189.28 302.99 189.28 396.84 185.75 394.8 185.75 300.95 189.28 302.99" style="fill:#263238"></polygon><polygon points="189.28 302.99 189.28 396.84 192.81 394.8 192.81 300.95 189.28 302.99" style="fill:#37474f"></polygon><polygon points="459.89 262.03 459.89 355.87 456.36 353.83 456.36 259.99 459.89 262.03" style="fill:#263238"></polygon><polygon points="459.89 262.03 459.89 355.87 463.42 353.83 463.42 259.99 459.89 262.03" style="fill:#37474f"></polygon><polygon points="289.02 354.39 289.02 366.96 185.75 307.24 185.75 294.67 289.02 354.39" style="fill:#37474f"></polygon><polygon points="289.02 366.96 463.42 266.27 463.42 253.7 289.02 354.39 289.02 366.96" style="fill:#455a64"></polygon><g id="freepik--desk--inject-63"><polygon points="289.58 352.04 181.64 289.72 359.5 187.37 467.45 249.69 289.58 352.04" style="fill:#1F385D"></polygon><g style="opacity:0.8"><polygon points="289.58 352.04 181.64 289.72 359.5 187.37 467.45 249.69 289.58 352.04" style="fill:#fff"></polygon></g><polygon points="181.64 289.7 181.64 298.57 289.58 360.87 289.58 352.02 181.64 289.7" style="fill:#1F385D"></polygon><g style="opacity:0.5"><polygon points="181.64 289.7 181.64 298.57 289.58 360.87 289.58 352.02 181.64 289.7" style="fill:#fff"></polygon></g><polygon points="289.58 360.87 467.45 258.6 467.45 249.67 289.58 352.02 289.58 360.87" style="fill:#1F385D"></polygon><g style="opacity:0.65"><polygon points="289.58 360.87 467.45 258.6 467.45 249.67 289.58 352.02 289.58 360.87" style="fill:#fff"></polygon></g></g></g><g id="freepik--Book--inject-63"><g id="freepik--shadow--inject-63" style="opacity:0.2"><path d="M249.52,264.21,301.19,294a3.24,3.24,0,0,0,2.91,0l79.18-45.71a.89.89,0,0,0,0-1.68l-51.67-29.83a3.24,3.24,0,0,0-2.91,0l-79.18,45.71A.89.89,0,0,0,249.52,264.21Z"></path></g><g id="freepik--book--inject-63"><polygon points="302.39 291.04 379.8 246.34 330.34 217.79 252.93 262.48 302.39 291.04" style="fill:#1F385D"></polygon><polygon points="302.39 291.04 379.8 246.34 330.34 217.79 252.93 262.48 302.39 291.04" style="opacity:0.15"></polygon><path d="M340.07,268.1v-1.38c0-1.71,3-6.58,6.83-8.77l30.76-17.75v6.2Z" style="fill:#f5f5f5"></path><path d="M377.64,240.2,346.89,258c-3.8,2.19-6.85,7.06-6.83,8.76v1.39l-47.31-27.31h0V239.4c0-1.7,3-6.57,6.83-8.76l30.74-17.74h0Z" style="fill:#fafafa"></path><path d="M377.64,240.2,346.89,258c-3.8,2.19-6.85,7.06-6.83,8.76v1.39l-47.31-27.31h0V239.4c0-1.7,3-6.57,6.83-8.76l30.76-17.75Z" style="fill:#fafafa"></path><path d="M340.06,266.81l-2.95-1.7-3.88-2.25a7.71,7.71,0,0,1,4.78.69A4,4,0,0,1,340.06,266.81Z" style="fill:#f0f0f0"></path><path d="M340.06,266.81l-2.95-1.7-3.88-2.25a7.71,7.71,0,0,1,4.78.69A4,4,0,0,1,340.06,266.81Z" style="fill:#e0e0e0"></path><polygon points="302.4 292.33 302.39 291.04 252.93 262.49 252.93 263.77 302.4 292.33" style="fill:#1F385D"></polygon><polygon points="302.4 292.33 302.39 291.04 252.93 262.49 252.93 263.77 302.4 292.33" style="opacity:0.30000000000000004"></polygon><polygon points="302.4 292.33 379.81 247.63 379.8 246.34 302.39 291.04 302.4 292.33" style="fill:#1F385D"></polygon><path d="M340.06,266.81c0-1.7-3.13-3.12-6.94-.94l-30.74,17.61v6.37l37.69-21.75S340.07,268.52,340.06,266.81Z" style="fill:#f5f5f5"></path><polygon points="302.38 289.86 302.38 283.48 255.08 256.17 255.08 262.54 302.38 289.86" style="fill:#ebebeb"></polygon><path d="M333.13,265.87l-1.38.79-29.37,16.82L260.6,259.36l-5.52-3.19,30.74-17.61c2.79-1.6,4.35-1.47,5.44-.85h0l48,27.68C337.49,264.42,335.47,264.62,333.13,265.87Z" style="fill:#fafafa"></path><path d="M333.42,264.22c-.57,0-1.77.44-2.43.59-2.8.63-7.73,2.88-12.45,5.25-6.31,3.16-12.26,6.53-12.26,6.53l-43.28-25,22.82-13.07a9.56,9.56,0,0,1,2.82-1.17,6,6,0,0,1,2,.68l.31-.53a2.16,2.16,0,0,1,.34.17l48,27.68A7.76,7.76,0,0,0,333.42,264.22Z" style="opacity:0.1"></path><polygon points="302.35 284.87 307.05 282.49 302.38 285.33 297.7 282.63 302.35 284.87" style="fill:#e6e6e6"></polygon><polygon points="302.39 288.06 310.99 283.09 302.39 287.72 292.71 282.47 302.39 288.06" style="fill:#e6e6e6"></polygon><polygon points="255.08 257.58 262.31 261.94 255.08 258.25 255.08 257.58" style="fill:#e6e6e6"></polygon><polygon points="255.09 260.06 265.83 266.63 255.08 260.65 255.09 260.06" style="fill:#e6e6e6"></polygon><path d="M333.23,262.86a15.86,15.86,0,0,0-1.84.32c-2.8.63-7.73,2.88-12.45,5.24-6.31,3.16-12.26,6.53-12.26,6.53l-47.33-27.29s18-10.37,25.07-11.74c3.32-.64,5.35-.19,6.59.51h0l47,27.13A7.71,7.71,0,0,0,333.23,262.86Z" style="fill:#f5f5f5"></path><path d="M342.47,255.4a15.16,15.16,0,0,0-3.83,3.28l-1-.57a15.34,15.34,0,0,1,3.83-3.28L369,239l1,.57Z" style="fill:#e0e0e0"></path><path d="M342.47,255.4a15.16,15.16,0,0,0-3.83,3.28l-1-.57a15.34,15.34,0,0,1,3.83-3.28L369,239l1,.57Z" style="fill:#e0e0e0"></path><path d="M340.05,254a15.55,15.55,0,0,0-3.83,3.28l-1-.57a15.55,15.55,0,0,1,3.83-3.28l27.57-15.87,1,.56Z" style="fill:#e0e0e0"></path><path d="M337.63,252.61a15.29,15.29,0,0,0-3.83,3.27l-1-.57a15.46,15.46,0,0,1,3.82-3.27l27.57-15.88,1,.57Z" style="fill:#e0e0e0"></path><path d="M335.21,251.21a15.34,15.34,0,0,0-3.83,3.28l-1-.57a15.16,15.16,0,0,1,3.83-3.28l27.56-15.88,1,.57Z" style="fill:#e0e0e0"></path><path d="M332.79,249.81a15.55,15.55,0,0,0-3.83,3.28l-1-.57a15.37,15.37,0,0,1,3.83-3.28l27.56-15.87,1,.57Z" style="fill:#e0e0e0"></path><path d="M330.37,248.42a15.29,15.29,0,0,0-3.83,3.27l-1-.57a15.5,15.5,0,0,1,3.83-3.27L357,232l1,.57Z" style="fill:#e0e0e0"></path><path d="M328,247a15.34,15.34,0,0,0-3.83,3.28l-1-.57a15.34,15.34,0,0,1,3.83-3.28l27.56-15.88,1,.57Z" style="fill:#e0e0e0"></path><path d="M325.53,245.62a15.55,15.55,0,0,0-3.83,3.28l-1-.57a15.55,15.55,0,0,1,3.83-3.28l27.56-15.87,1,.57Z" style="fill:#e0e0e0"></path><path d="M323.11,244.23a15.25,15.25,0,0,0-3.82,3.27l-1-.57a15.5,15.5,0,0,1,3.83-3.27l27.56-15.88,1,.57Z" style="fill:#e0e0e0"></path><path d="M320.7,242.83a15.16,15.16,0,0,0-3.83,3.28l-1-.57a15.34,15.34,0,0,1,3.83-3.28l27.56-15.88,1,.57Z" style="fill:#e0e0e0"></path><path d="M318.28,241.43a15.37,15.37,0,0,0-3.83,3.28l-1-.57a15.55,15.55,0,0,1,3.83-3.28L344.85,225l1,.57Z" style="fill:#e0e0e0"></path><path d="M315.86,240a15.29,15.29,0,0,0-3.83,3.27l-1-.57a15.69,15.69,0,0,1,3.83-3.27l27.57-15.88,1,.57Z" style="fill:#e0e0e0"></path><polygon points="371.19 245.62 377.64 242.22 377.64 241.69 371.19 245.62" style="fill:#e6e6e6"></polygon><polygon points="377.65 244.12 366.89 250.13 377.65 243.73 377.65 244.12" style="fill:#e6e6e6"></polygon><path d="M266.73,243.61c5.81-3.07,13.59-6.89,17.69-7.69,3.32-.64,5.35-.19,6.59.51h0l47,27.13a7.71,7.71,0,0,0-4.78-.69S310,248.67,295,243.83A48.33,48.33,0,0,0,266.73,243.61Z" style="opacity:0.02"></path></g></g><g id="freepik--Arm--inject-63"><path d="M331.68,197.12a12.37,12.37,0,0,0-5.33-2.45c-3,0-4.68-.35-7,.47-4.26,1.5-6.44,1.8-13.8.76l-24.25-4.39s-8.13-9.1-14.34-16c-9.19-10.25-14.19-15.61-23.42-14.82,0,0,.35,16.22,7.11,27.83,0,0,16,14.87,19.78,18.29,2.36,2.13,5.09,3.93,10.87,4.32,8.66.6,19.47.43,27.57.47a74.31,74.31,0,0,1,11.74,1c4.12.45,7,2.18,12.2,1.73C341.46,213.56,336.27,201.17,331.68,197.12Z" style="fill:#ffbda7"></path><path d="M326.48,203.47l4.88,10.91a4,4,0,0,0-1.15,0s-2-3.61-3.19-5.59c-1-1.81-2.23-4.14-2.23-4.14s-3.82-2.4-4.86-4.54S326.48,203.47,326.48,203.47Z" style="fill:#f0997a"></path><path d="M338.75,217.45l.75,7.75a.24.24,0,0,1-.41.19l-5.34-5.73Z" style="fill:#ffa8a7"></path><path d="M339.09,225.39a.24.24,0,0,0,.41-.19l-.15-1.51h0a1.3,1.3,0,0,1-1.27.49l-.14,0Z" style="fill:#263238"></path><path d="M320.26,189.7l.29.66.36.79,12.84,28.5a3.43,3.43,0,0,0,2.54,0,3.58,3.58,0,0,0,2.46-2.24L325.91,189l-.68-1.52C325.62,188.46,320.66,190.7,320.26,189.7Z" style="fill:#1F385D"></path><path d="M321.38,192.2l.66,1.47c.18.43,1.21.3,2.3-.08,1.44-.5,2.91-1.62,2.67-2.19l-.49-1.08-.18-.39c.24.58-1.23,1.7-2.67,2.19-1.05.36-2,.5-2.27.13h0A.05.05,0,0,1,321.38,192.2Z" style="fill:#ebebeb"></path><path d="M321.54,192.57c.42,1,5.38-1.27,5-2.27l-.66-1.47c.41,1-4.55,3.27-5,2.27Z" style="fill:#1F385D"></path><path d="M320.26,189.7l.65,1.45c.39,1,5.21-1.16,5-2.18,0,0,0,0,0-.06l-.67-1.46C325.62,188.46,320.66,190.7,320.26,189.7Z" style="fill:#ebebeb"></path><path d="M339.34,225.45l.16-.25L337,219.39l-13.59-30.14c.09-.05.1-.09.05-.13-1.35.68-3,1.14-3.22.58l.29.66.36.79,12.84,28.5h0l5.34,5.73A.24.24,0,0,0,339.34,225.45Z" style="opacity:0.15"></path><path d="M317.49,183.54l2.77,6.16c.17.43,1.19.3,2.27-.07,1.45-.49,2.92-1.61,2.7-2.18h0l-2.78-6.17c-.55-1.23-3.18-.41-4.44.78A1.39,1.39,0,0,0,317.49,183.54Z" style="fill:#ffa8a7"></path><path d="M319.26,184.07a4.27,4.27,0,0,0,3.12-2.1,1,1,0,0,0,0-.88c-.72-1-3.14-.17-4.33,1a1.4,1.4,0,0,0-.53,1.46C317.69,184,318.35,184.21,319.26,184.07Z" style="opacity:0.1"></path><path d="M328.83,195.44a14.64,14.64,0,0,1,2.77.22,9.72,9.72,0,0,1,3.87,1.39,3.11,3.11,0,0,1,1.12,1.1,4.81,4.81,0,0,1,.37,1.56c.39,2.79,2.21,5.11,2.61,7.87.35,2.45-.71,8.54-2.79,9.16-1.29.39-2.11-2.55-2.06-4.44-.87,1.07-2.4-.26-2.43-3.37,0-2.56-.16-6.14-.16-6.14Z" style="fill:#ffbda7"></path><path d="M334,200.16a3.11,3.11,0,0,1-.31,2,19.4,19.4,0,0,1-1.48,2l-.05-1.43Z" style="fill:#f0997a"></path><path d="M313.19,198.39c3.83-1.79,6.47-4.34,9.25-3.82,3.72.69,4.2,2.44,8.16,4,1.29.49,3.16,1,3.37,1.64.51,1.51-2.74,4.16-6.67,3.23-4.67-1.12-5.81-2.57-7.47-2.53C319.83,200.86,312.78,204.35,313.19,198.39Z" style="fill:#ffbda7"></path></g><g id="freepik--Top--inject-63"><path d="M261.57,129.32c1.54.45,3.15-.92,3.52-2.49a7.75,7.75,0,0,0-.81-4.67,2.24,2.24,0,0,1-3.67,2c-1.07-.9-1.06-2.58-.57-3.89s1.37-2.46,1.79-3.8c1-3.23-.9-6.79-3.62-8.8s-6.11-2.87-9.35-3.86c-3.92-1.2-7.73-3.3-11.72-4.15a22,22,0,0,0-12.11.62c-10.18,3.7-11.1,11.28-11.1,11.29s-1.43.51-1.52.56a11.5,11.5,0,0,0-3.64,3c-3.07,3.73-3.64,8.92-7.34,12.13a18.63,18.63,0,0,0-3.26,2.93,5.44,5.44,0,0,0-.29,5.67c.66,1.17,1.8,2.21,1.75,3.56-.08,2-2.47,2.8-3.81,4.23a4.75,4.75,0,0,0,.1,6.37c.75.75,1.74,1.22,2.54,1.92a2.75,2.75,0,0,1,1.06,2.81,3.48,3.48,0,0,1-.86,1.16,25.18,25.18,0,0,0-3,3.23,5.56,5.56,0,0,0-1.12,4.17,5.18,5.18,0,0,0,2.56,3.27,12.12,12.12,0,0,0,4,1.27c1.55.25,3.47.71,3.81,2.24a6,6,0,0,1-.1,1.84,5.45,5.45,0,0,0,3.84,5.6c3.15.88,6.4-1.25,9.66-1s5.85,2.74,9,3.19a7.41,7.41,0,0,0,6.23-2.15,30.87,30.87,0,0,1,2.45-2.77c5.3-4.31,12.05.72,17.84.19a5.27,5.27,0,0,0,4.27-2.53c1.07-2.07.27-5,2-6.57s4.84-.41,6.82-1.75a3.82,3.82,0,0,0,1.49-3.52,6.53,6.53,0,0,0-1.71-3.56c-.92-1-2.15-2.18-1.91-3.56.29-1.71,2.53-2.19,3.7-3.47a4.08,4.08,0,0,0,.67-4,7,7,0,0,0-2.65-3.25c-1.5-1.05-3.52-2.16-3.35-4,.14-1.43,1.64-2.32,2.23-3.63a3.81,3.81,0,0,0-.57-3.75A6.56,6.56,0,0,0,261.57,129.32Z" style="fill:#263238"></path><path d="M260.13,221.24a68,68,0,0,0,.55-16.27c8.24-7.53,6.71-15.71,2.82-22.07-8-13.06-13.88-18.87-18.68-22-3.41-1.24-14.35-1.24-14.35-1.24-1.9.21-18.93,2.62-24.08,3.58a18.82,18.82,0,0,0-3.73,9.8c-.15,3.26-1.15,6.28,1.65,16.55l3.81,19.91s-2,5.13-3.75,9.94c-1.39,3.82-4.38,9.59-5.11,20,0,0,7.44,9.4,30.89,7.3,27.72-2.47,32.15-13.93,32.15-13.93A78.28,78.28,0,0,0,260.13,221.24Z" style="fill:#f5f5f5"></path><path d="M260.68,205c6.08-5.56,6.83-11.47,5.25-16.74h-.13c-2.32.34-4.14,2.1-6,3.59-3.39,2.78-7.56,4.94-11.93,4.74-4.73-.21-9.26-3.14-13.92-2.26-4.11.77-6.08,4.18-9.07,6.64-3.64,3-7.6,5.52-11.43,8.25a68.15,68.15,0,0,0-7.59,6.17c-.5,1.31-1,2.72-1.53,4.11-1.39,3.82-4.38,9.59-5.11,20,0,0,7.44,9.4,30.89,7.3,27.72-2.47,32.15-13.93,32.15-13.93a78.28,78.28,0,0,0-2.17-11.58A68,68,0,0,0,260.68,205Z" style="fill:#ebebeb"></path><path d="M253.12,125a73.82,73.82,0,0,1,1.54,10.11c1.39,13.37-2.51,17.21-4.56,18.43s-6.3,1.18-9.26,1.13l-1.53,9.23c1.6,3.17,3.54,5.15,2.9,10.17-8.11-2.53-13.92-4.44-21.71-12l.2-15.1s-3,2.38-6.92-1.39c-2.64-2.54-3.38-6.2-2-8.78,1.76-3.31,7.32-3.55,8.63.16,1.37,3.9,3.93,2.68,3.46-3.13-.14-1.78-2.32-11.66,4.62-15.81,3-1.79,8,2.36,11.57,1.55,2-.45,2.46-5.08,5.95-4.31S251.87,120,253.12,125Z" style="fill:#ffbda7"></path><path d="M236.27,131.87a1.77,1.77,0,1,1-2.07-1.51A1.83,1.83,0,0,1,236.27,131.87Z" style="fill:#263238"></path><path d="M242.2,145.19a1,1,0,1,1-1.9.34,1,1,0,0,1,.77-1.15A1,1,0,0,1,242.2,145.19Z" style="fill:#b16668"></path><path d="M251.23,127.26l-3.68-1.92a2,2,0,0,1,2.74-.93A2.18,2.18,0,0,1,251.23,127.26Z" style="fill:#263238"></path><path d="M232.91,127.9l-3,2.82a2,2,0,0,1,0-2.9A2.19,2.19,0,0,1,232.91,127.9Z" style="fill:#263238"></path><path d="M249.29,129.5a1.77,1.77,0,1,1-2.07-1.51A1.8,1.8,0,0,1,249.29,129.5Z" style="fill:#263238"></path><polygon points="240.7 130.07 243.92 141.32 249.31 137.94 240.7 130.07" style="fill:#f0997a"></polygon><path d="M240.84,154.62c-4.36,0-14.69-1.54-16.5-4.85a9.09,9.09,0,0,0,3.65,4.06c2.92,1.92,12.32,3.84,12.32,3.84Z" style="fill:#f0997a"></path><path d="M247.83,158.68a2.66,2.66,0,0,0-2.56-.9,3.79,3.79,0,0,0-1.45-2.9,3.36,3.36,0,0,0-2.21-.07c.17-1.08-1-3.1-2.25-3.05a11.45,11.45,0,0,0-3.34,1.08s-.85.72-2.17,3.71l.84-4a40.11,40.11,0,0,0,4.33-2.87c1.56-1.4.94-3.38.21-3.29a30.48,30.48,0,0,0-4.61,1.77c-1.9.87-4.41,1.55-4.76,3s-.68,3.11-1.31,6.33-.76,4.17-.15,5.74,1.48,4.77,3.08,8.7,1.06,5.08-.11,7.85c-.79,1.87-6.25,11.34-12.18,20.71l-3.2-16s-1.82-16.84-9.6-21.21c-8.6.91-11.58,5.74-12.19,10.69-1.09,8.7,5.94,30.75,9.76,42.32s9.65,14.76,13.38,14.54,12.34-6.92,16.42-17c3.42-7.08,9-28.88,9.81-31.94a29.1,29.1,0,0,1,2.63-6.72c.85-1.58.53-6.68-.25-9.55.51.84,1.65,1.31,2.26.53C248,164.67,248.23,159.62,247.83,158.68Z" style="fill:#ffbda7"></path><path d="M231.37,179.75a14.63,14.63,0,0,0,1-2.92,6.57,6.57,0,0,0-.26-3.05c-.63-2-1.52-3.84-2.16-5.81s-1.34-3.89-2-5.89c-.23-2.1.42-4.11.77-6.14l.62-3c.28-.94.16-2.18,1.11-2.87a11.38,11.38,0,0,1,2.77-1.43l2.84-1.23a26.83,26.83,0,0,1,2.92-1.08c.74-.19,1.05.65,1.08,1.12a2.69,2.69,0,0,1-.34,1.57,7.42,7.42,0,0,1-2.36,2.08c-.87.57-1.75,1.11-2.64,1.64l.08-.11-.84,4-.32-.1c.29-.66.61-1.32,1-2a8.47,8.47,0,0,1,1.26-1.82h0a17.39,17.39,0,0,1,1.8-.73,4.5,4.5,0,0,1,1.95-.32,2.67,2.67,0,0,1,1.52,1.27,3.17,3.17,0,0,1,.52,1.91l-.16-.14a4.59,4.59,0,0,1,1.43-.16,1.85,1.85,0,0,1,1.31.62,4,4,0,0,1,1.06,2.63l-.13-.1a2.63,2.63,0,0,1,2.66.95h0a17.72,17.72,0,0,1,.26,3.76c0,1.25,0,2.5.1,3.73v0l0,0a1.12,1.12,0,0,1-1.3.34,2.08,2.08,0,0,1-1.06-.88l.11,0a23.61,23.61,0,0,1,.65,4.18,18.62,18.62,0,0,1-.08,4.22,5.74,5.74,0,0,1-.77,2c-.32.63-.62,1.27-.89,1.92a33,33,0,0,0-1.35,4,33.73,33.73,0,0,1,1.32-4c.26-.65.56-1.29.88-1.92a5.53,5.53,0,0,0,.75-1.95,19.11,19.11,0,0,0,.06-4.21,25.3,25.3,0,0,0-.68-4.15l-.11-.39.22.34a1.94,1.94,0,0,0,1,.82,1,1,0,0,0,1.15-.3v.05c-.12-1.25-.09-2.5-.12-3.75a19.39,19.39,0,0,0-.27-3.68h0a2.43,2.43,0,0,0-2.46-.84l-.12,0v-.13a3.76,3.76,0,0,0-1-2.47,1.63,1.63,0,0,0-1.16-.54,4.38,4.38,0,0,0-1.35.16l-.18,0,0-.18a2.88,2.88,0,0,0-.5-1.73,2.33,2.33,0,0,0-1.35-1.13,4.17,4.17,0,0,0-1.8.32,14.71,14.71,0,0,0-1.75.73l0,0a8.58,8.58,0,0,0-1.18,1.74c-.34.63-.65,1.28-.93,1.93l-.65,1.48.33-1.58.83-4,0-.07.07,0c.88-.52,1.77-1.06,2.63-1.62a7.08,7.08,0,0,0,2.27-1.95,2.36,2.36,0,0,0,.32-1.39c0-.45-.3-1-.72-.88a28.61,28.61,0,0,0-2.89,1.05c-1.84.89-3.92,1.44-5.58,2.59-.87.59-.76,1.78-1,2.75l-.64,3c-.36,2-1,4.05-.81,6.08.58,1.95,1.28,3.93,1.91,5.88s1.49,3.85,2.11,5.82a6.8,6.8,0,0,1,.24,3.07A14.48,14.48,0,0,1,231.37,179.75Z" style="fill:#b16668"></path><path d="M241.7,154.94a3,3,0,0,0-.2-1.09c-.92.54-2.17,1-2.91,1.54a2.9,2.9,0,0,0-1.16,1.81C237.74,156.63,238.78,155.71,241.7,154.94Z" style="fill:#b16668"></path><path d="M242,159.61a6.38,6.38,0,0,1,3.28-1.7,6.2,6.2,0,0,0-.16-1C242.41,158.07,242,159.61,242,159.61Z" style="fill:#b16668"></path><path d="M246,166.38a19.28,19.28,0,0,0-1.14-3.82c-.35-.72-.51-1.13.37-1.26s1.8-1.48,1.77-.69c0,.41-1.37,1.47-1.31,2A20.5,20.5,0,0,1,246,166.38Z" style="fill:#b16668"></path><path d="M219.19,200.46c-1.69,2.41-7.54,10.07-7,16.11,0,0-2.21-4,.72-10a90.25,90.25,0,0,1,5.54-9.8Z" style="fill:#f0997a"></path></g></g><g id="freepik--Sheets--inject-63"><g style="opacity:0.2"><path d="M211.07,292l45.65,26.36a2.84,2.84,0,0,0,2.57,0L292.88,299a.78.78,0,0,0,0-1.48l-45.65-26.35a2.84,2.84,0,0,0-2.57,0l-33.59,19.39A.78.78,0,0,0,211.07,292Z"></path></g><g style="opacity:0.2"><path d="M211.07,296.7l45.65,26.36a2.84,2.84,0,0,0,2.57,0l33.59-19.4a.78.78,0,0,0,0-1.48l-45.65-26.36a2.84,2.84,0,0,0-2.57,0l-33.59,19.4A.78.78,0,0,0,211.07,296.7Z"></path></g><path d="M211.07,294.35l45.65,26.35a2.84,2.84,0,0,0,2.57,0l33.59-19.39a.79.79,0,0,0,0-1.49l-45.65-26.35a2.84,2.84,0,0,0-2.57,0l-33.59,19.39A.79.79,0,0,0,211.07,294.35Z" style="fill:#ebebeb"></path><path d="M244.66,273.47l-31.89,18.42,44,25.37a2.84,2.84,0,0,0,2.57,0l31.9-18.41-44-25.38A2.84,2.84,0,0,0,244.66,273.47Z" style="fill:#e0e0e0"></path><path d="M211.07,289.71l45.65,26.35a2.84,2.84,0,0,0,2.57,0l33.59-19.39a.79.79,0,0,0,0-1.49l-45.65-26.35a2.84,2.84,0,0,0-2.57,0l-33.59,19.39A.79.79,0,0,0,211.07,289.71Z" style="fill:#fafafa"></path></g><g id="freepik--Cup--inject-63"><g style="opacity:0.1"><path d="M365.13,215.91c-5.17,2.19-5.2,5.82-.08,8.1s13.48,2.36,18.65.17,5.2-5.82.07-8.1S370.3,213.72,365.13,215.91Z"></path></g><path d="M362.88,216.05a6.17,6.17,0,0,1-3.47-.38c-1.42-.61-2.26-2.29-3.25-5-.85-2.3-2.21-8.84-1.25-10.47,1.49-2.54,4.63-2.15,7.23-2.08l.9,0,0,3.18-1,0c-1.45,0-3.89-.1-4.29.71-.62,1.57,1.19,9.95,2.48,10.86a6.4,6.4,0,0,0,3.79-.06l1.13,2.78A10.52,10.52,0,0,1,362.88,216.05Z" style="fill:#1F385D"></path><g style="opacity:0.15"><path d="M362.88,216.05a6.17,6.17,0,0,1-3.47-.38c-1.42-.61-2.26-2.29-3.25-5-.85-2.3-2.21-8.84-1.25-10.47,1.49-2.54,4.63-2.15,7.23-2.08l.9,0,0,3.18-1,0c-1.45,0-3.89-.1-4.29.71-.62,1.57,1.19,9.95,2.48,10.86a6.4,6.4,0,0,0,3.79-.06l1.13,2.78A10.52,10.52,0,0,1,362.88,216.05Z"></path></g><path d="M361.31,193.83c.31-1.26,1.58-2.48,3.82-3.43,5.17-2.19,13.51-2.11,18.64.17,2.22,1,3.47,2.23,3.76,3.49h.07c.8,8.34-.77,18-3.79,23.28a.37.37,0,0,1-.05.11.56.56,0,0,1-.05.08h0a6.38,6.38,0,0,1-2.46,2.28,15.62,15.62,0,0,1-14.14-.13,6.35,6.35,0,0,1-2.41-2.32h0a.25.25,0,0,1,0-.07s-.05-.08-.07-.13c-2.91-5.36-4.31-15-3.35-23.33Z" style="fill:#1F385D"></path><g style="opacity:0.4"><path d="M365.13,190.4c-5.17,2.19-5.2,5.82-.08,8.1s13.48,2.36,18.65.17,5.2-5.82.07-8.1S370.3,188.21,365.13,190.4Z" style="fill:#fff"></path></g><path d="M366.92,191.82c-4.17,1.42-4.19,3.79-.05,5.29a26.37,26.37,0,0,0,15,.14c4.16-1.43,4.19-3.79,0-5.29A26.37,26.37,0,0,0,366.92,191.82Z" style="fill:#1F385D"></path><g style="opacity:0.1"><path d="M366.92,191.82c-4.17,1.42-4.19,3.79-.05,5.29a26.37,26.37,0,0,0,15,.14c4.16-1.43,4.19-3.79,0-5.29A26.37,26.37,0,0,0,366.92,191.82Z"></path></g><path d="M366.89,195a7.46,7.46,0,0,0-2.1,1,8,8,0,0,0,2.08,1.06,26.37,26.37,0,0,0,15,.14,8.12,8.12,0,0,0,2.09-1,8.23,8.23,0,0,0-2.07-1.07A26.37,26.37,0,0,0,366.89,195Z" style="fill:#37474f"></path></g><g id="freepik--pot--inject-63"><path d="M416.78,242.16c-5.8,3.35-5.8,8.77,0,12.12s15.2,3.35,21,0,5.8-8.77,0-12.12S422.58,238.81,416.78,242.16Z" style="opacity:0.15"></path><path d="M436.52,249c5.05-5.15,8-18,3.09-22.11H414.54c-4.92,4.09-2,16.95,3.09,22.1l.14.15.17.17c.14.13.29.27.46.4l.12.1c.12.09.24.19.38.28a5.12,5.12,0,0,0,.65.42,16.63,16.63,0,0,0,15.05,0h0a6.52,6.52,0,0,0,.65-.42l.36-.27.15-.11c.15-.13.3-.26.44-.4l.2-.19Z" style="fill:#37474f"></path><path d="M416.72,225.21c-5.72,3.31-5.72,8.66,0,12s15,3.3,20.71,0,5.72-8.65,0-12S422.44,221.91,416.72,225.21Z" style="fill:#455a64"></path><path d="M419.36,226.74c-4.25,2.46-4.25,6.44,0,8.9a17,17,0,0,0,15.41,0c4.26-2.46,4.26-6.44,0-8.9A17,17,0,0,0,419.36,226.74Z" style="fill:#263238"></path><path d="M434.78,231a17,17,0,0,0-15.41,0,7.07,7.07,0,0,0-2.56,2.33,7,7,0,0,0,2.56,2.34,17,17,0,0,0,15.41,0,6.88,6.88,0,0,0,2.55-2.34A7,7,0,0,0,434.78,231Z" style="fill:#e0e0e0"></path><path d="M435.11,212V231a4,4,0,0,1-2.35,3.28.34.34,0,0,1-.12.06,10.25,10.25,0,0,1-3.59,1.16,13.76,13.76,0,0,1-3.95,0,10.3,10.3,0,0,1-3.6-1.16l-.11-.06A4,4,0,0,1,419,231V212a8,8,0,0,1,16.08,0Z" style="fill:#1F385D"></path><path d="M427.07,204h0c-.16,0-5.56,1.38-5.56,8v22.33l-.11-.06A4,4,0,0,1,419,231V212A8,8,0,0,1,427.07,204Z" style="opacity:0.1"></path><path d="M435.11,212V231a4,4,0,0,1-2.35,3.28.34.34,0,0,1-.12.06V212c0-6.6-5.4-8-5.56-8h0A8,8,0,0,1,435.11,212Z" style="opacity:0.1"></path><g style="opacity:0.1"><path d="M429.05,210.41v25a13.76,13.76,0,0,1-3.95,0v-25a11.67,11.67,0,0,1,2-6.43s0,1.25,0,1.25,0-1.26.05-1.25A11.64,11.64,0,0,1,429.05,210.41Z"></path></g><path d="M429.05,235.72a.27.27,0,0,1-.27-.27V233.3a.27.27,0,0,1,.54,0v2.15A.27.27,0,0,1,429.05,235.72Zm-3.95-1.4a.27.27,0,0,1-.27-.26v-2.15a.27.27,0,0,1,.54,0v2.15A.27.27,0,0,1,425.1,234.32Zm3.95-2.9a.27.27,0,0,1-.27-.27V229a.27.27,0,0,1,.54,0v2.15A.27.27,0,0,1,429.05,231.42ZM425.1,230a.27.27,0,0,1-.27-.26v-2.15a.27.27,0,0,1,.54,0v2.15A.27.27,0,0,1,425.1,230Zm3.95-2.9a.27.27,0,0,1-.27-.27V224.7a.27.27,0,1,1,.54,0v2.15A.27.27,0,0,1,429.05,227.12Zm-3.95-1.39a.27.27,0,0,1-.27-.27v-2.15a.27.27,0,0,1,.54,0v2.15A.27.27,0,0,1,425.1,225.73Zm3.95-2.91a.27.27,0,0,1-.27-.27V220.4a.27.27,0,0,1,.54,0v2.15A.27.27,0,0,1,429.05,222.82Zm-3.95-1.39a.27.27,0,0,1-.27-.27V219a.27.27,0,1,1,.54,0v2.15A.27.27,0,0,1,425.1,221.43Zm3.95-2.91a.27.27,0,0,1-.27-.27V216.1a.27.27,0,1,1,.54,0v2.15A.27.27,0,0,1,429.05,218.52Zm-3.95-1.39a.27.27,0,0,1-.27-.27v-2.15a.27.27,0,0,1,.54,0v2.15A.27.27,0,0,1,425.1,217.13Zm3.95-2.91a.27.27,0,0,1-.27-.27V211.8a.27.27,0,0,1,.54,0V214A.27.27,0,0,1,429.05,214.22Zm-3.95-1.39a.27.27,0,0,1-.27-.27v-2.15a.27.27,0,0,1,.54,0v2.15A.27.27,0,0,1,425.1,212.83Zm3.92-2.91a.26.26,0,0,1-.27-.25,12.35,12.35,0,0,0-.36-2.06.27.27,0,0,1,.19-.33.27.27,0,0,1,.33.19,11.63,11.63,0,0,1,.37,2.16.26.26,0,0,1-.24.29Zm-3.71-1.38h-.05a.27.27,0,0,1-.22-.32,12.35,12.35,0,0,1,.61-2.11.27.27,0,1,1,.5.2,12.09,12.09,0,0,0-.58,2A.27.27,0,0,1,425.31,208.54Zm2.61-2.75a.27.27,0,0,1-.24-.16,10.71,10.71,0,0,0-.62-1.17.26.26,0,0,1-.35,0,.27.27,0,0,1-.08-.37c.11-.18.19-.29.21-.32a.35.35,0,0,1,.21-.1h0c.07,0,.16,0,.21.07l0,.05h0a13,13,0,0,1,.86,1.56.28.28,0,0,1-.13.36A.27.27,0,0,1,427.92,205.79Z" style="fill:#e6e6e6"></path><path d="M426.07,204.6a.27.27,0,0,1-.25-.16.27.27,0,0,1,.13-.35,5.26,5.26,0,0,1,1-.37.25.25,0,0,1,.27.07.27.27,0,0,1,0,.38h0a.21.21,0,0,1-.13.07,4.94,4.94,0,0,0-.93.34Z" style="fill:#fafafa"></path><path d="M421.5,231.42a.26.26,0,0,1-.26-.26v-2a.27.27,0,1,1,.53,0v2A.27.27,0,0,1,421.5,231.42Zm0-4.09a.26.26,0,0,1-.26-.26v-2a.27.27,0,1,1,.53,0v2A.27.27,0,0,1,421.5,227.33Zm0-4.09a.26.26,0,0,1-.26-.26v-2a.27.27,0,1,1,.53,0v2A.27.27,0,0,1,421.5,223.24Zm0-4.09a.26.26,0,0,1-.26-.26v-2a.27.27,0,1,1,.53,0v2A.27.27,0,0,1,421.5,219.15Zm0-4.09a.27.27,0,0,1-.26-.27v-2a.27.27,0,1,1,.53,0v2A.27.27,0,0,1,421.5,215.06Zm.07-4.08h0a.26.26,0,0,1-.23-.3,8.77,8.77,0,0,1,.46-2.05.26.26,0,0,1,.34-.16.27.27,0,0,1,.17.34,8.49,8.49,0,0,0-.44,1.93A.27.27,0,0,1,421.57,211Zm1.38-3.81a.25.25,0,0,1-.16,0,.26.26,0,0,1-.06-.37,7.51,7.51,0,0,1,1.43-1.55.27.27,0,0,1,.34.42,6.74,6.74,0,0,0-1.33,1.44A.28.28,0,0,1,423,207.17Z" style="fill:#e6e6e6"></path><path d="M421.5,234.56a.27.27,0,0,1-.26-.27v-1.07a.27.27,0,1,1,.53,0v1.07A.27.27,0,0,1,421.5,234.56Z" style="fill:#fafafa"></path><path d="M428.08,204.6l-.12,0a4.94,4.94,0,0,0-.93-.34.28.28,0,0,1-.15-.08.27.27,0,0,1,.3-.44,6.9,6.9,0,0,1,1,.37.27.27,0,0,1,.13.35A.27.27,0,0,1,428.08,204.6Z" style="fill:#fafafa"></path><path d="M432.64,231.42a.27.27,0,0,1-.26-.27v-2a.27.27,0,1,1,.53,0v2A.27.27,0,0,1,432.64,231.42Zm0-4.09a.27.27,0,0,1-.26-.27v-2a.27.27,0,1,1,.53,0v2A.27.27,0,0,1,432.64,227.33Zm0-4.09a.27.27,0,0,1-.26-.27v-2a.27.27,0,1,1,.53,0v2A.27.27,0,0,1,432.64,223.24Zm0-4.09a.27.27,0,0,1-.26-.27v-2a.27.27,0,1,1,.53,0v2A.27.27,0,0,1,432.64,219.15Zm0-4.09a.27.27,0,0,1-.26-.27v-2a.27.27,0,1,1,.53,0v2A.27.27,0,0,1,432.64,215.06Zm-.07-4.09a.26.26,0,0,1-.26-.23,9,9,0,0,0-.44-1.94.26.26,0,0,1,.16-.34.27.27,0,0,1,.35.16,9.57,9.57,0,0,1,.46,2,.27.27,0,0,1-.23.3Zm-1.38-3.8a.28.28,0,0,1-.22-.12,7.25,7.25,0,0,0-1.33-1.44.25.25,0,0,1,0-.37.26.26,0,0,1,.38,0,7.51,7.51,0,0,1,1.43,1.55.26.26,0,0,1-.06.37A.3.3,0,0,1,431.19,207.17Z" style="fill:#e6e6e6"></path><path d="M432.64,234.56a.27.27,0,0,1-.26-.27v-1.07a.27.27,0,1,1,.53,0v1.07A.27.27,0,0,1,432.64,234.56Z" style="fill:#fafafa"></path><path d="M435.84,206.83a2.62,2.62,0,0,1-.65.59c-2.09,1.38-5.59-.08-6.24-2.48a5,5,0,0,1,.56-3.93,1.76,1.76,0,0,1,.55-.57.74.74,0,0,1,.77,0,1.23,1.23,0,0,1,.38.6,7.53,7.53,0,0,1,.31,1.91,3.49,3.49,0,0,1,2.81-1.79.45.45,0,0,1,.26.05.42.42,0,0,1,.16.26,4.36,4.36,0,0,1-.37,3.22,9.41,9.41,0,0,1,1.42-.54c.51-.15.94-.1.94.35A3.62,3.62,0,0,1,435.84,206.83Z" style="fill:#455a64"></path></g><g id="freepik--Paper--inject-63"><path d="M347.77,294.93a8.52,8.52,0,0,0,9.23,1.94.81.81,0,0,1,.37-.09.84.84,0,0,1,.41.23,5,5,0,0,0,3.6,1.13,4.2,4.2,0,0,0,3.18-1.95,3.81,3.81,0,0,1,1-1.42c.76-.47,1.78,0,2.65-.25,1.08-.28,1.62-1.45,2.48-2.15.57-.46,1.29-.72,1.84-1.21a3.75,3.75,0,0,0,1.12-2.3,10.36,10.36,0,0,0-.07-2.61,9.22,9.22,0,0,1-5.87,2.23c-2.14.15-4.29-.05-6.41.2a15.66,15.66,0,0,0-7.4,2.88c-.87.63-1.39,1.52-2.22,2.17A6,6,0,0,1,347.77,294.93Z" style="opacity:0.2"></path><path d="M358.62,294.89a5.45,5.45,0,0,0,3.32.81,1.76,1.76,0,0,0,.88-.13,1.86,1.86,0,0,0,.74-1.06c.2-.54.41-1.07.61-1.61.11-.29.26-.62.56-.7s.73.25,1.1.4a1.37,1.37,0,0,0,1.28-.26,3.28,3.28,0,0,0,.84-1.08,5.25,5.25,0,0,0,.74-3.91,4.13,4.13,0,0,0-1.83-2.26,5.14,5.14,0,0,0-3.7-.72,8.7,8.7,0,0,0-2.06.77,10.36,10.36,0,0,0-2.35,1.42,11.17,11.17,0,0,0-2.35,3.33,2.06,2.06,0,0,0-.33,1.63,5.09,5.09,0,0,0,1.18,1.78A17.16,17.16,0,0,0,358.62,294.89Z" style="fill:#f0f0f0"></path><path d="M359.64,294.07c1.49-1.79,1.87-4.29,3.21-6.2a1.72,1.72,0,0,1,.76-.68,1.5,1.5,0,0,1,1.63.85c.34.57.49,1.25.88,1.79a3.25,3.25,0,0,0,3.74.82,8.6,8.6,0,0,0,3.16-2.57c1.16-1.33,2.32-2.92,2.15-4.68l-3.48.18a1.92,1.92,0,0,1-.86-.08c-.6-.27-.76-1-.89-1.66a11.15,11.15,0,0,0-1-2.85,3.06,3.06,0,0,0-2.28-1.92,2.79,2.79,0,0,0-2.12,1.11A15,15,0,0,1,362.9,280c-2.85,2.32-7.68-.5-10.6,1.72a3.82,3.82,0,0,0-.64,5.26c1.72,2.12-.05,1.79-1.49,2.9a.75.75,0,0,0-.22.25c-.09.23.08.48.23.68a4.47,4.47,0,0,1,.59,1.15c.08.22.12.52-.07.66a.58.58,0,0,1-.29.09,5.28,5.28,0,0,1-2.13-.23,7.87,7.87,0,0,0,2.21,2.68A7.26,7.26,0,0,0,359.64,294.07Z" style="fill:#fafafa"></path><path d="M355.34,287.48a9.53,9.53,0,0,1,1.27.44,3.2,3.2,0,0,1,1.5,1.84,4.87,4.87,0,0,1,.1,2.4,3.13,3.13,0,0,0-1.88-2.74c-.45-.19-.94-.27-1.4-.43a4.63,4.63,0,0,1-2.84-4.12C352.15,286.17,354.3,287.13,355.34,287.48Z" style="fill:#e6e6e6"></path></g><g id="freepik--paper--inject-63"><path d="M313.57,314.42a13.77,13.77,0,0,0-4.44,0c-1.67.3-3.31,0-4.94.67a26.82,26.82,0,0,0-4.68,2.47,3.65,3.65,0,0,0-1.2,1.11,2.59,2.59,0,0,0,.42,2.87,5.86,5.86,0,0,0,2.61,1.59,17.9,17.9,0,0,1,2.89,1.09c.58.32,1.11.73,1.69,1.05a7.78,7.78,0,0,0,6.71-.06,21.12,21.12,0,0,0,5.6-4.05,4.22,4.22,0,0,0,1.69-2.64,2.85,2.85,0,0,0-1.17-2.26,7.81,7.81,0,0,0-2.38-1.14A14.22,14.22,0,0,0,313.57,314.42Z" style="opacity:0.2"></path><path d="M300.06,310.43l-.12.42a3.17,3.17,0,0,0,.12,2.17c.26.52.75.91,1,1.46.51,1.37-1,2.78-.77,4.22a3,3,0,0,0,1.82,2.07,18.58,18.58,0,0,1,2.6,1.2c.44.3.81.68,1.23,1,2.79,2.07,6.42.6,9-1a3.1,3.1,0,0,0,.83-.65c.61-.76.39-1.89.73-2.8.69-1.85,3.37-2.24,4.2-4,.68-1.48-.22-3.19-1.26-4.44a6.91,6.91,0,0,0-3.48-2.46c-1.32-.31-4,1.08-4.83-.5a4.77,4.77,0,0,1-.31-1.12,10.24,10.24,0,0,0-2-4.39,6.49,6.49,0,0,1-1.58,1.88c-1.3,1-3,1.54-4.22,2.66-.32.3-.36.65-.65,1s-.67.6-1,.95A7,7,0,0,0,300.06,310.43Z" style="fill:#fafafa"></path><path d="M305,314.14a3,3,0,0,0-1.84,1.92,3.11,3.11,0,0,0,.29,2.07,9.1,9.1,0,0,0,1.21,1.75c-.16-.6-.47-1.15-.61-1.75a1.73,1.73,0,0,1,.4-1.71c.63-.54,1.59-.26,2.4-.43a2.78,2.78,0,0,0,1.76-1.46,4,4,0,0,0,.31-3c-.09-.35-.81-2.22-1.3-1.85s-.08,1.95-.18,2.38C307.09,313.43,306.13,313.68,305,314.14Z" style="fill:#f0f0f0"></path><path d="M317,315.24c-.92-1-2.79-.28-3.64.47a2,2,0,0,0-.54.68,4.44,4.44,0,0,0-.21,1,2,2,0,0,1-.42,1,1,1,0,0,1-1,.33,3.41,3.41,0,0,0,1.35,0,1.68,1.68,0,0,0,.8-.37,1.88,1.88,0,0,0,.43-.61c.41-.81.68-1.8,1.49-2.23A3.13,3.13,0,0,1,317,315.24Z" style="fill:#e6e6e6"></path><path d="M315.79,307.8a2.07,2.07,0,0,1,.43-.1l-.26-.08c-1.32-.31-4,1.08-4.83-.5,0,0,0,0,0-.05a5.58,5.58,0,0,1-.35,1.45,3.47,3.47,0,0,0-.4,1.68,1.39,1.39,0,0,0,1,1.12,2,2,0,0,0,1.81-.61,11,11,0,0,0,1.17-1.61A3.06,3.06,0,0,1,315.79,307.8Z" style="fill:#f0f0f0"></path></g></g><g id="freepik--trash-basket--inject-63"><g id="freepik--trash-can--inject-63"><path d="M143.61,429.62c0-8.95,12.91-16.2,28.83-16.2s28.82,7.25,28.82,16.2v2.13c0,8.95-12.91,16.2-28.82,16.2s-28.83-7.25-28.83-16.2Z" style="fill:#1F385D"></path><path d="M143.61,429.62c0-8.95,12.91-16.2,28.83-16.2s28.82,7.25,28.82,16.2v2.13c0,8.95-12.91,16.2-28.82,16.2s-28.83-7.25-28.83-16.2Z" style="fill:#fff;opacity:0.6000000000000001"></path><path d="M143.61,429.62c0-8.95,12.91-16.2,28.83-16.2s28.82,7.25,28.82,16.2v2.13c0,8.95-12.91,16.2-28.82,16.2s-28.83-7.25-28.83-16.2Z" style="opacity:0.1"></path><path d="M143.61,429.62c0,8.95,12.91,16.21,28.83,16.21s28.82-7.26,28.82-16.21-12.91-16.2-28.82-16.2S143.61,420.67,143.61,429.62Z" style="fill:#1F385D"></path><path d="M143.61,429.62c0,8.95,12.91,16.21,28.83,16.21s28.82-7.26,28.82-16.21-12.91-16.2-28.82-16.2S143.61,420.67,143.61,429.62Z" style="fill:#fff;opacity:0.75"></path><path d="M143.61,429.62c0,8.95,12.91,16.21,28.83,16.21s28.82-7.26,28.82-16.21-12.91-16.2-28.82-16.2S143.61,420.67,143.61,429.62Z" style="opacity:0.05"></path><path d="M199.2,382.94a.62.62,0,0,0,.61-.53l3.75-27.49a.61.61,0,0,0-.52-.7.63.63,0,0,0-.7.52l-3.75,27.49a.61.61,0,0,0,.52.7Z" style="fill:#fafafa"></path><path d="M193.13,389.35a.61.61,0,0,0,.61-.55l3.71-35.43a.62.62,0,0,0-1.23-.12l-3.7,35.43a.61.61,0,0,0,.55.67Z" style="fill:#fafafa"></path><path d="M185.61,393a.61.61,0,0,0,.61-.58L189,349a.62.62,0,0,0-.58-.65.58.58,0,0,0-.65.57L185,392.34a.62.62,0,0,0,.57.66Z" style="fill:#fafafa"></path><path d="M177,394.8a.6.6,0,0,0,.61-.6l.9-47.12a.61.61,0,0,0-.6-.63.57.57,0,0,0-.63.6l-.9,47.12a.62.62,0,0,0,.6.63Z" style="fill:#fafafa"></path><path d="M145,382.94a.62.62,0,0,1-.61-.53l-3.75-27.49a.61.61,0,0,1,.52-.7.63.63,0,0,1,.7.52l3.75,27.49a.61.61,0,0,1-.52.7Z" style="fill:#fafafa"></path><path d="M151,389.35a.61.61,0,0,1-.61-.55l-3.71-35.43a.62.62,0,0,1,1.23-.12l3.7,35.43a.61.61,0,0,1-.55.67Z" style="fill:#fafafa"></path><path d="M158.55,393a.61.61,0,0,1-.61-.58L155.19,349a.62.62,0,0,1,.58-.65.58.58,0,0,1,.65.57l2.74,43.39a.62.62,0,0,1-.57.66Z" style="fill:#fafafa"></path><path d="M167.2,394.8a.6.6,0,0,1-.61-.6l-.9-47.12a.61.61,0,0,1,.6-.63.57.57,0,0,1,.63.6l.9,47.12a.62.62,0,0,1-.61.63Z" style="fill:#fafafa"></path><path d="M199.18,401.23c-1.57-1.92-3.67-3.73-4.19-6.27-.4-1.93-.33-4.06-1.47-5.67a18,18,0,0,0-3-2.65,8.77,8.77,0,0,1-1.92-10.22c-1.77-.66-3.76.23-5.2,1.47s-2.55,2.8-4.09,3.9c-2.1,1.49-4.74,1.94-7.12,2.93s-4.74,2.9-4.8,5.48c-.07,2.35,1.77,4.95.36,6.84-2.16,2.92-7.78.22-7.55,5.45.08,2,.78,3-1.27,4.39s-5,.65-7.13,2.11a7.86,7.86,0,0,0-2.35,3.37c-.69,1.5-1.38,3-1.92,4.55a20,20,0,0,0-.44,12.66c.59,1.79,1.57,4.41,3.46,5,2.55.81,4.93,0,7.25,1.9.92.76,1.61,1.78,2.52,2.57a9.33,9.33,0,0,0,6.07,2c1.75,0,3.44-.65,5.15-.67a13.14,13.14,0,0,1,3.39.75c2.53.6,5.7.59,7.6-1.46,1.36-1.47,1.84-3.8,3.63-4.71s4.11.17,6.22.12c3.53-.09,6.15-3.61,6.72-7.1s-.34-7-.78-10.54c-.58-4.65,2.79-8.09,2.63-12.36A6.62,6.62,0,0,0,199.18,401.23Z" style="fill:#fafafa"></path><path d="M199.18,401.23c-.65-.8-1.39-1.57-2.07-2.39-.69,2.22-2.22,4.08-3.09,6.23-1,2.58-1.07,5.43-1.09,8.21,0,3,0,6-.05,9.07a2.25,2.25,0,0,1-.4,1.55c-.72.78-2,.19-2.77-.59s-1.44-1.78-2.5-1.8c-1.25,0-2.27,1.4-3.5,1.15s-1.48-1.73-1-2.77a8.9,8.9,0,0,1,2.21-2.54,3.39,3.39,0,0,0,1.24-3c-3.44-.44-6.43,2.19-8.89,4.63-1.09,1.07-2.26,2.58-1.63,4,.49,1.05,1.83,1.47,2.4,2.49A2.86,2.86,0,0,1,177,429a8.39,8.39,0,0,1-3.78,1.21,6.86,6.86,0,0,1-2.78,0,2.34,2.34,0,0,1-1.83-1.87c-.09-.93.88-1.88,1.75-1.55-1.61-1.17-3.35-2.4-5.34-2.45s-4.14,1.69-3.7,3.63l-7.92-.17c1.08-1.57-.2-3.66-1.54-5a11.26,11.26,0,0,1-2.24-2.69,3.16,3.16,0,0,1,.1-3.33c.68-.87,2-1.3,2.17-2.39a1.8,1.8,0,0,0-1.54-1.82,3.15,3.15,0,0,0-.92,0c-.66,1.43-1.31,2.87-1.83,4.35a20,20,0,0,0-.44,12.66c.59,1.79,1.57,4.41,3.46,5,2.55.81,4.93,0,7.25,1.9.92.76,1.61,1.78,2.52,2.57a9.33,9.33,0,0,0,6.07,2c1.75,0,3.44-.65,5.15-.67a13.14,13.14,0,0,1,3.39.75c2.53.6,5.7.59,7.6-1.46,1.36-1.47,1.84-3.8,3.63-4.71s4.11.17,6.22.12c3.53-.09,6.15-3.61,6.72-7.1s-.34-7-.78-10.54c-.58-4.65,2.79-8.09,2.63-12.36A6.62,6.62,0,0,0,199.18,401.23Z" style="fill:#ebebeb"></path><path d="M159.8,411.62a2.89,2.89,0,0,1,.44,2.37,7.47,7.47,0,0,0-.34,1.23,1,1,0,0,0,.57,1,1.42,1.42,0,0,0,1-.28,3.85,3.85,0,0,1,2.67-.56,1.91,1.91,0,0,1,1.53,2,3.78,3.78,0,0,0,0-3.74,2.43,2.43,0,0,0-3.4-.73,2.23,2.23,0,0,0-1.33-2.64,3.69,3.69,0,0,0-2.93.11A3.65,3.65,0,0,1,159.8,411.62Z" style="fill:#ebebeb"></path><path d="M172.89,403.23c-.33.23-.71.38-1,.63a1.09,1.09,0,0,0-.47,1c.71-.12,1.33.48,1.72,1.08a4.11,4.11,0,0,0,1.38,1.61c.52.26,1.17.22,1.63.57.68.53.57,1.57.38,2.41l3.36-2.25a2,2,0,0,0,.54-.46,1.44,1.44,0,0,0-.34-1.87,3.17,3.17,0,0,0-1.95-.64,10.27,10.27,0,0,1-2.08-.22.53.53,0,0,1-.4-.3c-.08-.28.24-.48.51-.58l3.23-1.23a.49.49,0,0,0,0-.72,1.44,1.44,0,0,0-.75-.29,47.67,47.67,0,0,0-6.22-1C172.45,401.85,174.52,402.12,172.89,403.23Z" style="fill:#ebebeb"></path><path d="M180.88,389.77c-1.73-.27-3.77.63-4.15,2.34,1.43.08,2.52,1.26,3.46,2.35l1.48,1.73a4.15,4.15,0,0,1,1.09,1.84c.13.66,0,1.41.34,1.94a2.14,2.14,0,0,0,1.11.66,2.92,2.92,0,0,0,2.68,0,2,2,0,0,0,.51-2.14,5.59,5.59,0,0,0-1.29-1.94,8.08,8.08,0,0,1,4.76.43,1.58,1.58,0,0,0,1.15.18,1.09,1.09,0,0,0,.56-.75,2.72,2.72,0,0,0-1.12-2.76,5.22,5.22,0,0,0-3-.85C185.39,392.8,183.81,390.21,180.88,389.77Z" style="fill:#ebebeb"></path><path d="M199.81,431.2l7.51-51.39a.61.61,0,1,0-1.21-.17L198.59,431a.61.61,0,0,0,.52.7h.09a.62.62,0,0,0,.61-.53" style="fill:#fafafa"></path><path d="M193.13,438.14a.61.61,0,0,0,.61-.55l5.37-51.39a.61.61,0,0,0-1.22-.12l-5.37,51.38a.62.62,0,0,0,.55.68Z" style="fill:#fafafa"></path><path d="M185.61,441.78a.61.61,0,0,0,.61-.57l3.23-51.39a.62.62,0,0,0-.58-.65.59.59,0,0,0-.65.57L185,441.13a.6.6,0,0,0,.57.65Z" style="fill:#fafafa"></path><path d="M177,443.59a.61.61,0,0,0,.61-.6l1.08-51.39a.63.63,0,0,0-.6-.63.57.57,0,0,0-.63.61L176.34,443a.63.63,0,0,0,.6.63Z" style="fill:#fafafa"></path><path d="M167.91,443.59h0a.61.61,0,0,0,.6-.63l-1.07-51.38a.63.63,0,0,0-.62-.61h0a.63.63,0,0,0-.61.63L167.3,443A.62.62,0,0,0,167.91,443.59Z" style="fill:#fafafa"></path><path d="M159.26,441.78h0a.62.62,0,0,0,.58-.65l-3.23-51.39a.57.57,0,0,0-.65-.57.6.6,0,0,0-.57.65l3.22,51.39A.61.61,0,0,0,159.26,441.78Z" style="fill:#fafafa"></path><path d="M151.74,438.14h.06a.62.62,0,0,0,.55-.68L147,386.08a.6.6,0,0,0-.67-.55.61.61,0,0,0-.55.67l5.37,51.39A.61.61,0,0,0,151.74,438.14Z" style="fill:#fafafa"></path><path d="M145.67,431.73h.09a.61.61,0,0,0,.52-.7l-7.51-51.38a.64.64,0,0,0-.7-.53.62.62,0,0,0-.52.7l7.51,51.39A.62.62,0,0,0,145.67,431.73Z" style="fill:#fafafa"></path><g id="freepik--Bin--inject-63"><path d="M132.33,369.74a15.25,15.25,0,0,0,2.43,5.65,27,27,0,0,0,9.12,8.1c15.76,9.09,41.34,9.09,57.12,0a27.06,27.06,0,0,0,9.12-8.1,15.53,15.53,0,0,0,2.41-5.65h0c1.41-6.84-2.45-14-11.54-19.24-15.78-9.1-41.36-9.1-57.12,0C134.78,355.76,130.93,362.9,132.33,369.74Zm16.3,11c-5.07-2.94-8.19-6.57-9.34-10.36,1.13-4.08,4.24-8,9.34-11.15,13.14-8.15,34.46-8.15,47.61,0,5.09,3.16,8.2,7.07,9.34,11.16-1.16,3.79-4.29,7.42-9.36,10.35C183.09,388.32,161.77,388.32,148.63,380.73Z" style="fill:#1F385D"></path><path d="M132.33,369.74a15.25,15.25,0,0,0,2.43,5.65,27,27,0,0,0,9.12,8.1c15.76,9.09,41.34,9.09,57.12,0a27.06,27.06,0,0,0,9.12-8.1,15.53,15.53,0,0,0,2.41-5.65h0c1.41-6.84-2.45-14-11.54-19.24-15.78-9.1-41.36-9.1-57.12,0C134.78,355.76,130.93,362.9,132.33,369.74Zm16.3,11c-5.07-2.94-8.19-6.57-9.34-10.36,1.13-4.08,4.24-8,9.34-11.15,13.14-8.15,34.46-8.15,47.61,0,5.09,3.16,8.2,7.07,9.34,11.16-1.16,3.79-4.29,7.42-9.36,10.35C183.09,388.32,161.77,388.32,148.63,380.73Z" style="fill:#fff;opacity:0.75"></path><path d="M134.76,375.38a26.71,26.71,0,0,0,9.11,8.1c15.78,9.11,41.36,9.11,57.13,0a26.71,26.71,0,0,0,9.11-8.1,15.44,15.44,0,0,0,2.42-5.64h0l-1.79,7.13c-.82,4.95-4.52,9.78-11.1,13.58-15,8.67-39.39,8.67-54.43,0-6.49-3.75-10.18-8.52-11.06-13.41l-.09-.63-1.74-6.67A15.3,15.3,0,0,0,134.76,375.38Z" style="fill:#1F385D"></path><path d="M134.76,375.38a26.71,26.71,0,0,0,9.11,8.1c15.78,9.11,41.36,9.11,57.13,0a26.71,26.71,0,0,0,9.11-8.1,15.44,15.44,0,0,0,2.42-5.64h0l-1.79,7.13c-.82,4.95-4.52,9.78-11.1,13.58-15,8.67-39.39,8.67-54.43,0-6.49-3.75-10.18-8.52-11.06-13.41l-.09-.63-1.74-6.67A15.3,15.3,0,0,0,134.76,375.38Z" style="fill:#fff;opacity:0.6000000000000001"></path><path d="M139,369a12,12,0,0,0,.33,1.41c1.13-4.08,4.24-8,9.34-11.15,13.14-8.15,34.46-8.15,47.61,0,5.09,3.16,8.2,7.07,9.34,11.16a11.88,11.88,0,0,0,.34-1.43c1-5.6-2.25-11.39-9.7-15.7-13.13-7.6-34.45-7.6-47.59,0C141.2,357.56,138,363.35,139,369Z" style="fill:#1F385D"></path><path d="M139,369a12,12,0,0,0,.33,1.41c1.13-4.08,4.24-8,9.34-11.15,13.14-8.15,34.46-8.15,47.61,0,5.09,3.16,8.2,7.07,9.34,11.16a11.88,11.88,0,0,0,.34-1.43c1-5.6-2.25-11.39-9.7-15.7-13.13-7.6-34.45-7.6-47.59,0C141.2,357.56,138,363.35,139,369Z" style="fill:#fff;opacity:0.6000000000000001"></path></g></g></g></svg>